SplineFontDB: 3.0
FontName: Shabnam
FullName: Shabnam
FamilyName: Shabnam
Weight: Regular
Copyright: Copyright (c) 2003 by Bitstream, Inc. All Rights Reserved.\nDejaVu changes are in public domain\nCopyright (c) 2015 by Saber Rastikerdar. All Rights Reserved.
Version: 0.7.2
ItalicAngle: 0
UnderlinePosition: -100
UnderlineWidth: 100
Ascent: 1536
Descent: 512
InvalidEm: 0
LayerCount: 2
Layer: 0 1 "Back" 1
Layer: 1 1 "Fore" 0
XUID: [1021 502 1027637223 1088244]
UniqueID: 4178541
UseUniqueID: 1
FSType: 0
OS2Version: 1
OS2_WeightWidthSlopeOnly: 0
OS2_UseTypoMetrics: 1
CreationTime: 1431850356
ModificationTime: 1451805115
PfmFamily: 33
TTFWeight: 400
TTFWidth: 5
LineGap: 0
VLineGap: 0
Panose: 2 11 6 3 3 8 4 2 2 4
OS2TypoAscent: 2000
OS2TypoAOffset: 0
OS2TypoDescent: -1000
OS2TypoDOffset: 0
OS2TypoLinegap: 0
OS2WinAscent: 2000
OS2WinAOffset: 0
OS2WinDescent: 1000
OS2WinDOffset: 0
HheadAscent: 2000
HheadAOffset: 0
HheadDescent: -1000
HheadDOffset: 0
OS2SubXSize: 1331
OS2SubYSize: 1433
OS2SubXOff: 0
OS2SubYOff: 286
OS2SupXSize: 1331
OS2SupYSize: 1433
OS2SupXOff: 0
OS2SupYOff: 983
OS2StrikeYSize: 102
OS2StrikeYPos: 530
OS2Vendor: 'PfEd'
OS2CodePages: 600001ff.dfff0000
Lookup: 1 0 0 "'case' Case-Sensitive Forms in Latin lookup 0" { "'case' Case-Sensitive Forms in Latin lookup 0 subtable"  } ['case' ('DFLT' <'dflt' > 'latn' <'CAT ' 'ESP ' 'GAL ' 'dflt' > ) ]
Lookup: 6 1 0 "'ccmp' Glyph Composition/Decomposition lookup 2" { "'ccmp' Glyph Composition/Decomposition lookup 2 subtable"  } ['ccmp' ('arab' <'KUR ' 'SND ' 'URD ' 'dflt' > 'hebr' <'dflt' > 'nko ' <'dflt' > ) ]
Lookup: 6 0 0 "'ccmp' Glyph Composition/Decomposition lookup 3" { "'ccmp' Glyph Composition/Decomposition lookup 3 subtable"  } ['ccmp' ('cyrl' <'MKD ' 'SRB ' 'dflt' > 'grek' <'dflt' > 'latn' <'ISM ' 'KSM ' 'LSM ' 'MOL ' 'NSM ' 'ROM ' 'SKS ' 'SSM ' 'dflt' > ) ]

StartChar: exclam
Encoding: 33 33 1
Width: 915
VWidth: 2391
GlyphClass: 2
Flags: W
LayerCount: 2
Fore
SplineSet
330.919921875 132.381835938 m 128,-1,1
 330.919921875 186.381835938 330.919921875 186.381835938 368.919921875 224.381835938 c 128,-1,2
 406.919921875 262.381835938 406.919921875 262.381835938 461.419921875 262.881835938 c 0,3,4
 516.919921875 262.381835938 516.919921875 262.381835938 554.919921875 224.381835938 c 128,-1,5
 592.919921875 186.381835938 592.919921875 186.381835938 592.919921875 132.381835938 c 128,-1,6
 592.919921875 78.3818359375 592.919921875 78.3818359375 554.919921875 40.3818359375 c 128,-1,7
 516.919921875 2.3818359375 516.919921875 2.3818359375 462.419921875 1.8818359375 c 0,8,9
 406.919921875 2.3818359375 406.919921875 2.3818359375 368.919921875 40.3818359375 c 128,-1,0
 330.919921875 78.3818359375 330.919921875 78.3818359375 330.919921875 132.381835938 c 128,-1,1
356.516601562 1445.35449219 m 5,10,-1
 559.28515625 1445.35449219 l 5,11,-1
 537.629882812 529.609375 l 1,12,-1
 379.25390625 529.609375 l 1,13,-1
 356.516601562 1445.35449219 l 5,10,-1
EndSplineSet
EndChar

StartChar: parenleft
Encoding: 40 40 2
Width: 891
VWidth: 2391
GlyphClass: 2
Flags: W
GlyphCompositionVertical: 3  uni239D%0,0,44,2632 uni239C%1,44,44,2658 uni239B%0,44,0,2668
LayerCount: 2
Fore
SplineSet
617.521484375 1521.20507812 m 5,0,1
 362.999023438 1073.84179688 362.999023438 1073.84179688 362.999023438 626.709960938 c 132,-1,2
 362.999023438 179.579101562 362.999023438 179.579101562 617.55078125 -269.1640625 c 5,3,-1
 482.349609375 -269.1640625 l 5,4,5
 190.145507812 191.905273438 190.145507812 191.905273438 190.145507812 626.51171875 c 132,-1,6
 190.145507812 1061.11816406 190.145507812 1061.11816406 482.340820312 1521.20507812 c 5,7,-1
 617.521484375 1521.20507812 l 5,0,1
EndSplineSet
EndChar

StartChar: parenright
Encoding: 41 41 3
Width: 891
VWidth: 2391
GlyphClass: 2
Flags: W
GlyphCompositionVertical: 3  uni23A0%0,0,44,2632 uni239F%1,44,44,2658 uni239E%0,44,0,2668
LayerCount: 2
Fore
SplineSet
185.817382812 -269.1640625 m 1,0,1
 440 180 440 180 440.369140625 625.856617647 c 0,2,3
 440 1071 440 1071 185.78125 1521.20507812 c 5,4,-1
 321.00390625 1521.20507812 l 1,5,6
 613 1058 613 1058 613.22265625 624.948106396 c 0,7,8
 613 192 613 192 321.015625 -269.1640625 c 1,9,-1
 185.817382812 -269.1640625 l 1,0,1
EndSplineSet
EndChar

StartChar: period
Encoding: 46 46 4
Width: 592
VWidth: 2391
GlyphClass: 2
Flags: W
LayerCount: 2
Fore
SplineSet
166.255859375 129.43359375 m 132,-1,1
 166.255859375 183.43359375 166.255859375 183.43359375 204.255859375 221.43359375 c 132,-1,2
 242.255859375 259.43359375 242.255859375 259.43359375 296.755859375 259.93359375 c 4,3,4
 352.255859375 259.43359375 352.255859375 259.43359375 390.255859375 221.43359375 c 132,-1,5
 428.255859375 183.43359375 428.255859375 183.43359375 428.255859375 129.43359375 c 132,-1,6
 428.255859375 75.43359375 428.255859375 75.43359375 390.255859375 37.43359375 c 132,-1,7
 352.255859375 -0.56640625 352.255859375 -0.56640625 297.755859375 -1.06640625 c 4,8,9
 242.255859375 -0.56640625 242.255859375 -0.56640625 204.255859375 37.43359375 c 132,-1,0
 166.255859375 75.43359375 166.255859375 75.43359375 166.255859375 129.43359375 c 132,-1,1
EndSplineSet
EndChar

StartChar: colon
Encoding: 58 58 5
Width: 770
VWidth: 2391
GlyphClass: 2
Flags: W
LayerCount: 2
Fore
SplineSet
258.203125 834.43359375 m 128,-1,1
 258.203125 888.43359375 258.203125 888.43359375 296.203125 926.43359375 c 128,-1,2
 334.203125 964.43359375 334.203125 964.43359375 388.703125 964.93359375 c 0,3,4
 444.203125 964.43359375 444.203125 964.43359375 482.203125 926.43359375 c 128,-1,5
 520.203125 888.43359375 520.203125 888.43359375 520.203125 834.43359375 c 128,-1,6
 520.203125 780.43359375 520.203125 780.43359375 482.203125 742.43359375 c 128,-1,7
 444.203125 704.43359375 444.203125 704.43359375 389.703125 703.93359375 c 0,8,9
 334.203125 704.43359375 334.203125 704.43359375 296.203125 742.43359375 c 128,-1,0
 258.203125 780.43359375 258.203125 780.43359375 258.203125 834.43359375 c 128,-1,1
258.203125 129.43359375 m 128,-1,11
 258.203125 183.43359375 258.203125 183.43359375 296.203125 221.43359375 c 128,-1,12
 334.203125 259.43359375 334.203125 259.43359375 388.703125 259.93359375 c 0,13,14
 444.203125 259.43359375 444.203125 259.43359375 482.203125 221.43359375 c 128,-1,15
 520.203125 183.43359375 520.203125 183.43359375 520.203125 129.43359375 c 128,-1,16
 520.203125 75.43359375 520.203125 75.43359375 482.203125 37.43359375 c 128,-1,17
 444.203125 -0.56640625 444.203125 -0.56640625 389.703125 -1.06640625 c 0,18,19
 334.203125 -0.56640625 334.203125 -0.56640625 296.203125 37.43359375 c 128,-1,10
 258.203125 75.43359375 258.203125 75.43359375 258.203125 129.43359375 c 128,-1,11
EndSplineSet
EndChar

StartChar: afii57388
Encoding: 1548 1548 7
Width: 777
VWidth: 2398
GlyphClass: 2
Flags: W
LayerCount: 2
Fore
SplineSet
468.342773438 6.701171875 m 0,0,1
 441.44921875 -1.06640625 441.44921875 -1.06640625 392.662109375 -1.06640625 c 0,2,3
 282.488004058 -1.06640625 282.488004058 -1.06640625 256.620117188 119.826171875 c 0,4,5
 244.310546875 177.375 244.310546875 177.375 266.984375 276.125976562 c 0,6,7
 308.283459804 455.997251383 308.283459804 455.997251383 500.700195312 641.693359375 c 1,8,-1
 565.494140625 594.291992188 l 1,9,10
 403.785533412 424.892528966 403.785533412 424.892528966 392.362304688 273.772460938 c 1,11,12
 538.381943677 275.856303791 538.381943677 275.856303791 552.09765625 169.543945312 c 0,13,14
 569.348865447 35.8781013908 569.348865447 35.8781013908 468.342773438 6.701171875 c 0,0,1
EndSplineSet
EndChar

StartChar: uni0615
Encoding: 1557 1557 8
Width: 11
VWidth: 2553
GlyphClass: 4
Flags: W
AnchorPoint: "Anchor-10" 648 1490.29 mark 0
AnchorPoint: "Anchor-9" 648 1490.29 mark 0
AnchorPoint: "Anchor-1" 648 2306.6 basemark 0
AnchorPoint: "Anchor-1" 648 1490.29 mark 0
LayerCount: 2
Fore
SplineSet
870.814453125 1786.56335474 m 0,0,1
 870.814453125 1852.77112533 870.814453125 1852.77112533 818.121627196 1881.69234277 c 0,2,3
 802.940163369 1890.02490813 802.940163369 1890.02490813 763.751819966 1872.45044235 c 128,-1,4
 724.563476562 1854.87597656 724.563476562 1854.87597656 707.224425216 1847.97997027 c 0,5,6
 636.434541421 1819.82574924 636.434541421 1819.82574924 563.982421875 1729.93261719 c 2,7,-1
 530.350585938 1688.1953125 l 1,8,-1
 653.0234375 1688.1953125 l 2,9,10
 786.861868056 1688.1953125 786.861868056 1688.1953125 849.307617188 1751.54199219 c 0,11,12
 870.814453125 1773.31811574 870.814453125 1773.31811574 870.814453125 1786.56335474 c 0,0,1
950.134765625 1816.81933594 m 0,13,14
 950.134765625 1612.640625 950.134765625 1612.640625 681.908203125 1612.640625 c 2,15,-1
 347.12109375 1612.640625 l 1,16,-1
 347.12109375 1688.1953125 l 1,17,-1
 448.844726562 1688.1953125 l 1,18,-1
 448.844726562 2189.28320312 l 1,19,-1
 525.655273438 2189.28320312 l 1,20,-1
 525.655273438 1701.82226562 l 1,21,-1
 574.297851562 1800.453125 l 2,22,23
 615.064950461 1883.11452369 615.064950461 1883.11452369 736.248046875 1929.74316406 c 0,24,25
 806.352200303 1956.4497873 806.352200303 1956.4497873 885.073242188 1927.20996094 c 0,26,27
 950.134765625 1902.18426886 950.134765625 1902.18426886 950.134765625 1816.81933594 c 0,13,14
EndSplineSet
EndChar

StartChar: uni061B
Encoding: 1563 1563 9
Width: 777
VWidth: 2398
GlyphClass: 2
Flags: W
LayerCount: 2
Fore
SplineSet
264.907226562 129.43359375 m 132,-1,1
 264.907226562 183.43359375 264.907226562 183.43359375 302.907226562 221.43359375 c 132,-1,2
 340.907226562 259.43359375 340.907226562 259.43359375 395.407226562 259.93359375 c 4,3,4
 450.907226562 259.43359375 450.907226562 259.43359375 488.907226562 221.43359375 c 132,-1,5
 526.907226562 183.43359375 526.907226562 183.43359375 526.907226562 129.43359375 c 132,-1,6
 526.907226562 75.43359375 526.907226562 75.43359375 488.907226562 37.43359375 c 132,-1,7
 450.907226562 -0.56640625 450.907226562 -0.56640625 396.407226562 -1.06640625 c 4,8,9
 340.907226562 -0.56640625 340.907226562 -0.56640625 302.907226562 37.43359375 c 132,-1,0
 264.907226562 75.43359375 264.907226562 75.43359375 264.907226562 129.43359375 c 132,-1,1
539.36328125 634.521484375 m 0,10,11
 531.692836969 507.862304687 531.692836969 507.862304687 402.744628906 507.862304688 c 0,12,13
 339.721487875 507.862304688 339.721487875 507.862304688 319.226954875 520.271484375 c 128,-1,14
 298.732421875 532.680664062 298.732421875 532.680664062 292.588867188 537.657226562 c 0,15,16
 211.346020203 603.43385224 211.346020203 603.43385224 252.839025726 784.143683932 c 128,-1,17
 294.349456276 964.929404888 294.349456276 964.929404888 486.764648438 1150.62402344 c 1,18,-1
 551.557617188 1103.22265625 l 1,19,20
 389.85015951 933.824397236 389.85015951 933.824397236 378.42578125 782.702148438 c 1,21,22
 524.323710787 784.783896444 524.323710787 784.783896444 538.146484375 678.499023438 c 0,23,24
 540.743164062 658.5390625 540.743164062 658.5390625 539.36328125 634.521484375 c 0,10,11
EndSplineSet
EndChar

StartChar: uni061F
Encoding: 1567 1567 10
Width: 1241
VWidth: 2398
GlyphClass: 2
Flags: W
LayerCount: 2
Fore
SplineSet
565.284179688 129.43359375 m 128,-1,1
 565.284179688 183.43359375 565.284179688 183.43359375 603.284179688 221.43359375 c 128,-1,2
 641.284179688 259.43359375 641.284179688 259.43359375 695.784179688 259.93359375 c 0,3,4
 751.284179688 259.43359375 751.284179688 259.43359375 789.284179688 221.43359375 c 128,-1,5
 827.284179688 183.43359375 827.284179688 183.43359375 827.284179688 129.43359375 c 128,-1,6
 827.284179688 75.43359375 827.284179688 75.43359375 789.284179688 37.43359375 c 128,-1,7
 751.284179688 -0.56640625 751.284179688 -0.56640625 696.784179688 -1.06640625 c 0,8,9
 641.284179688 -0.56640625 641.284179688 -0.56640625 603.284179688 37.43359375 c 128,-1,0
 565.284179688 75.43359375 565.284179688 75.43359375 565.284179688 129.43359375 c 128,-1,1
598.524414062 481.693359375 m 1,10,11
 597 677 597 677 462 760 c 0,12,13
 229 904 229 904 234 1120 c 0,14,15
 237 1272 237 1272 347.84765625 1368.24511719 c 0,16,17
 549 1541 549 1541 907.637695312 1443.5078125 c 0,18,19
 976 1425 976 1425 1059.22460938 1376.35351562 c 1,20,-1
 996 1213 l 1,21,22
 871 1287 871 1287 733.228515625 1301.25683594 c 0,23,24
 523 1323 523 1323 453 1202 c 0,25,26
 426 1155 426 1155 429 1102 c 0,27,28
 437 980 437 980 558 896 c 0,29,30
 783 740 783 740 799.544921875 481.693359375 c 1,31,-1
 598.524414062 481.693359375 l 1,10,11
EndSplineSet
EndChar

StartChar: uni0621
Encoding: 1569 1569 11
Width: 807
VWidth: 2553
GlyphClass: 2
Flags: W
AnchorPoint: "Anchor-7" 470.143 -66.166 basechar 0
AnchorPoint: "Anchor-10" 322.188 1091.55 basechar 0
LayerCount: 2
Fore
SplineSet
444.823242188 670.458007812 m 4,0,1
 257 656 257 656 257.30078125 506 c 4,2,3
 257 363 257 363 425.74609375 330.51171875 c 4,4,5
 464 323 464 323 518.721679688 323.09765625 c 4,6,7
 574 323 574 323 668.30078125 372.385742188 c 5,8,-1
 715.30078125 214 l 5,9,-1
 167 4 l 5,10,-1
 105.973632812 147.525390625 l 5,11,12
 319.138671875 222.68359375 l 5,13,14
 91 282 91 282 91.69921875 515.701171875 c 4,15,16
 92 690 92 690 231.30078125 776 c 4,17,18
 327 836 327 836 447.303710938 829.607421875 c 4,19,20
 526 826 526 826 597.30078125 795.682617188 c 5,21,-1
 597.30078125 644 l 5,22,23
 487 674 487 674 444.823242188 670.458007812 c 4,0,1
EndSplineSet
EndChar

StartChar: uni0627
Encoding: 1575 1575 17
Width: 491
VWidth: 2553
GlyphClass: 2
Flags: W
AnchorPoint: "Anchor-10" 239.338 1515.41 basechar 0
AnchorPoint: "Anchor-7" 243.805 -254.859 basechar 0
LayerCount: 2
Fore
SplineSet
157.299804688 1387.72753906 m 1,0,-1
 332.393554688 1387.72753906 l 1,1,-1
 332.393554688 0.6943359375 l 1,2,-1
 157.299804688 0.6943359375 l 1,3,-1
 157.299804688 1387.72753906 l 1,0,-1
EndSplineSet
Substitution2: "'fina' Terminal Forms in Arabic lookup 9 subtable" uniFE8E
EndChar

StartChar: uni062D
Encoding: 1581 1581 23
Width: 1335
VWidth: 2553
GlyphClass: 2
Flags: W
AnchorPoint: "Anchor-10" 594.649 1450.91 basechar 0
AnchorPoint: "Anchor-7" 312.854 -893.488 basechar 0
LayerCount: 2
Fore
SplineSet
924.158203125 492.826171875 m 0,0,1
 273.704101562 253.080078125 273.704101562 253.080078125 259.197265625 -138.993164062 c 0,2,3
 258.685546875 -151.98046875 258.685546875 -151.98046875 258.688476562 -164.580078125 c 0,4,5
 258.776367188 -578.502929688 258.776367188 -578.502929688 815.350585938 -578.172851562 c 2,6,-1
 1243.33007812 -577.918945312 l 1,7,-1
 1243.33007812 -755.474609375 l 1,8,-1
 802.448242188 -754.58203125 l 2,9,10
 414.10546875 -753.6875 414.10546875 -753.6875 246.189453125 -593.541015625 c 0,11,12
 78.5751953125 -432.787109375 78.5751953125 -432.787109375 90.900390625 -143.78515625 c 0,13,14
 115.363749702 429.833222532 115.363749702 429.833222532 958.24609375 656.2578125 c 1,15,16
 825.731965745 704.588097009 825.731965745 704.588097009 685.812271935 749.007915692 c 128,-1,17
 545.892578125 793.427734375 545.892578125 793.427734375 458.603515625 787.379882812 c 0,18,19
 360.120803457 780.97617799 360.120803457 780.97617799 284.330078125 607.740234375 c 1,20,-1
 141.774414062 661.458007812 l 1,21,22
 172.103483916 739.675082698 172.103483916 739.675082698 197.842773438 787.530273438 c 0,23,24
 310.36328125 999.52734375 310.36328125 999.52734375 555.333984375 949.15234375 c 0,25,26
 648.94140625 930.302734375 648.94140625 930.302734375 860.8359375 850.345703125 c 2,27,-1
 1225.26367188 713.450195312 l 1,28,-1
 1225.18945312 559.193359375 l 1,29,30
 1067.83102516 545.194699652 1067.83102516 545.194699652 924.158203125 492.826171875 c 0,0,1
EndSplineSet
Substitution2: "'fina' Terminal Forms in Arabic lookup 9 subtable" uniFEA2
Substitution2: "'medi' Medial Forms in Arabic lookup 11 subtable" uniFEA4
Substitution2: "'init' Initial Forms in Arabic lookup 13 subtable" uniFEA3
EndChar

StartChar: uni062F
Encoding: 1583 1583 25
Width: 1000
VWidth: 2553
GlyphClass: 2
Flags: W
AnchorPoint: "Anchor-10" 333.659 1300.16 basechar 0
AnchorPoint: "Anchor-7" 386.382 -302.53 basechar 0
LayerCount: 2
Fore
SplineSet
487.978515625 -1.0634765625 m 2,0,-1
 91.8994140625 -1.0615234375 l 1,1,-1
 91.8994140625 188.263671875 l 1,2,-1
 94.9111328125 188.251953125 l 2,3,4
 469.501953125 186.79296875 469.501953125 186.79296875 548.088867188 193.796875 c 128,-1,5
 626.676757812 200.80078125 626.676757812 200.80078125 651.33984375 210.3984375 c 0,6,7
 747.73046875 247.921875 747.73046875 247.921875 705.03515625 362.680664062 c 0,8,9
 684.946289062 416.668945312 684.946289062 416.668945312 526.161132812 600.109375 c 2,10,-1
 343.180664062 811.50390625 l 1,11,-1
 460.696289062 942.658203125 l 1,12,-1
 626.5625 752.688476562 l 2,13,14
 824.8515625 525.583007812 824.8515625 525.583007812 828.232421875 521.141601562 c 0,15,16
 940.893554688 362.301757812 940.893554688 362.301757812 888.998046875 203.786132812 c 0,17,18
 818.700195312 -1.7490234375 818.700195312 -1.7490234375 487.978515625 -1.0634765625 c 2,0,-1
EndSplineSet
Substitution2: "'fina' Terminal Forms in Arabic lookup 9 subtable" uniFEAA
EndChar

StartChar: uni0631
Encoding: 1585 1585 27
Width: 757
VWidth: 2553
GlyphClass: 2
Flags: W
AnchorPoint: "Anchor-10" 450.527 935.269 basechar 0
AnchorPoint: "Anchor-7" 333.998 -866.627 basechar 0
LayerCount: 2
Fore
SplineSet
124.200195312 -336.440429688 m 1,0,1
 480.376907294 -334.590130312 480.376907294 -334.590130312 480.3828125 -17.46875 c 2,2,-1
 480.383789062 548.626953125 l 1,3,-1
 666.180664062 549.684570312 l 1,4,-1
 666.180664062 -14.9736328125 l 2,5,6
 666.174836464 -520.37793769 666.174836464 -520.37793769 126.435546875 -523.412109375 c 2,7,-1
 21.94921875 -524 l 1,8,-1
 21.9521484375 -336.370117188 l 1,9,-1
 124.200195312 -336.440429688 l 1,0,1
EndSplineSet
PairPos2: "'kern' Horizontal Kerning lookup 15-1" uniFEFB dx=-142 dy=0 dh=-142 dv=0 [ddx={} ddy={} ddh={} ddv={}] dx=0 dy=0 dh=0 dv=0 [ddx={} ddy={} ddh={} ddv={}]
PairPos2: "'kern' Horizontal Kerning lookup 15-1" uniFEDF dx=-142 dy=0 dh=-142 dv=0 [ddx={} ddy={} ddh={} ddv={}] dx=0 dy=0 dh=0 dv=0 [ddx={} ddy={} ddh={} ddv={}]
PairPos2: "'kern' Horizontal Kerning lookup 15-1" uni062F dx=-142 dy=0 dh=-142 dv=0 [ddx={} ddy={} ddh={} ddv={}] dx=0 dy=0 dh=0 dv=0 [ddx={} ddy={} ddh={} ddv={}]
PairPos2: "'kern' Horizontal Kerning lookup 15-2" uniFB90 dx=-142 dy=0 dh=-142 dv=0 dx=0 dy=0 dh=0 dv=0
PairPos2: "'kern' Horizontal Kerning lookup 15-2" uniFB8E dx=-142 dy=0 dh=-142 dv=0 dx=0 dy=0 dh=0 dv=0
PairPos2: "'kern' Horizontal Kerning lookup 15-2" uni06A9 dx=-142 dy=0 dh=-142 dv=0 dx=0 dy=0 dh=0 dv=0
PairPos2: "'kern' Horizontal Kerning lookup 15-2" uni064A dx=-47 dy=0 dh=-47 dv=0 dx=0 dy=0 dh=0 dv=0
PairPos2: "'kern' Horizontal Kerning lookup 15-2" uni0649 dx=-47 dy=0 dh=-47 dv=0 dx=0 dy=0 dh=0 dv=0
PairPos2: "'kern' Horizontal Kerning lookup 15-2" uni0648 dx=-47 dy=0 dh=-47 dv=0 dx=0 dy=0 dh=0 dv=0
PairPos2: "'kern' Horizontal Kerning lookup 15-2" uniFEEB dx=-142 dy=0 dh=-142 dv=0 dx=0 dy=0 dh=0 dv=0
PairPos2: "'kern' Horizontal Kerning lookup 15-2" uni0647 dx=-142 dy=0 dh=-142 dv=0 dx=0 dy=0 dh=0 dv=0
PairPos2: "'kern' Horizontal Kerning lookup 15-2" uniFEE7 dx=-142 dy=0 dh=-142 dv=0 dx=0 dy=0 dh=0 dv=0
PairPos2: "'kern' Horizontal Kerning lookup 15-2" uni0646 dx=-47 dy=0 dh=-47 dv=0 dx=0 dy=0 dh=0 dv=0
PairPos2: "'kern' Horizontal Kerning lookup 15-2" uniFEE3 dx=-142 dy=0 dh=-142 dv=0 dx=0 dy=0 dh=0 dv=0
PairPos2: "'kern' Horizontal Kerning lookup 15-2" uni0645 dx=-142 dy=0 dh=-142 dv=0 dx=0 dy=0 dh=0 dv=0
PairPos2: "'kern' Horizontal Kerning lookup 15-2" uni0644 dx=-47 dy=0 dh=-47 dv=0 dx=0 dy=0 dh=0 dv=0
PairPos2: "'kern' Horizontal Kerning lookup 15-2" uniFEDB dx=-142 dy=0 dh=-142 dv=0 dx=0 dy=0 dh=0 dv=0
PairPos2: "'kern' Horizontal Kerning lookup 15-2" uni0643 dx=-142 dy=0 dh=-142 dv=0 dx=0 dy=0 dh=0 dv=0
PairPos2: "'kern' Horizontal Kerning lookup 15-2" uniFED7 dx=-142 dy=0 dh=-142 dv=0 dx=0 dy=0 dh=0 dv=0
PairPos2: "'kern' Horizontal Kerning lookup 15-2" uni0642 dx=-47 dy=0 dh=-47 dv=0 dx=0 dy=0 dh=0 dv=0
PairPos2: "'kern' Horizontal Kerning lookup 15-2" uniFED3 dx=-142 dy=0 dh=-142 dv=0 dx=0 dy=0 dh=0 dv=0
PairPos2: "'kern' Horizontal Kerning lookup 15-2" uni0641 dx=-142 dy=0 dh=-142 dv=0 dx=0 dy=0 dh=0 dv=0
PairPos2: "'kern' Horizontal Kerning lookup 15-2" uniFECF dx=-142 dy=0 dh=-142 dv=0 dx=0 dy=0 dh=0 dv=0
PairPos2: "'kern' Horizontal Kerning lookup 15-2" uniFECB dx=-142 dy=0 dh=-142 dv=0 dx=0 dy=0 dh=0 dv=0
PairPos2: "'kern' Horizontal Kerning lookup 15-2" uniFEC7 dx=-142 dy=0 dh=-142 dv=0 dx=0 dy=0 dh=0 dv=0
PairPos2: "'kern' Horizontal Kerning lookup 15-2" uni0638 dx=-142 dy=0 dh=-142 dv=0 dx=0 dy=0 dh=0 dv=0
PairPos2: "'kern' Horizontal Kerning lookup 15-2" uniFEC3 dx=-142 dy=0 dh=-142 dv=0 dx=0 dy=0 dh=0 dv=0
PairPos2: "'kern' Horizontal Kerning lookup 15-2" uni0637 dx=-142 dy=0 dh=-142 dv=0 dx=0 dy=0 dh=0 dv=0
PairPos2: "'kern' Horizontal Kerning lookup 15-2" uniFEBF dx=-142 dy=0 dh=-142 dv=0 dx=0 dy=0 dh=0 dv=0
PairPos2: "'kern' Horizontal Kerning lookup 15-2" uni0636 dx=-142 dy=0 dh=-142 dv=0 dx=0 dy=0 dh=0 dv=0
PairPos2: "'kern' Horizontal Kerning lookup 15-2" uniFEBB dx=-142 dy=0 dh=-142 dv=0 dx=0 dy=0 dh=0 dv=0
PairPos2: "'kern' Horizontal Kerning lookup 15-2" uni0635 dx=-142 dy=0 dh=-142 dv=0 dx=0 dy=0 dh=0 dv=0
PairPos2: "'kern' Horizontal Kerning lookup 15-2" uniFEB7 dx=-142 dy=0 dh=-142 dv=0 dx=0 dy=0 dh=0 dv=0
PairPos2: "'kern' Horizontal Kerning lookup 15-2" uni0634 dx=-142 dy=0 dh=-142 dv=0 dx=0 dy=0 dh=0 dv=0
PairPos2: "'kern' Horizontal Kerning lookup 15-2" uniFEB3 dx=-142 dy=0 dh=-142 dv=0 dx=0 dy=0 dh=0 dv=0
PairPos2: "'kern' Horizontal Kerning lookup 15-2" uni0633 dx=-142 dy=0 dh=-142 dv=0 dx=0 dy=0 dh=0 dv=0
PairPos2: "'kern' Horizontal Kerning lookup 15-2" uni0632 dx=-47 dy=0 dh=-47 dv=0 dx=0 dy=0 dh=0 dv=0
PairPos2: "'kern' Horizontal Kerning lookup 15-2" uni0631 dx=-47 dy=0 dh=-47 dv=0 dx=0 dy=0 dh=0 dv=0
PairPos2: "'kern' Horizontal Kerning lookup 15-2" uniFEA7 dx=-142 dy=0 dh=-142 dv=0 dx=0 dy=0 dh=0 dv=0
PairPos2: "'kern' Horizontal Kerning lookup 15-2" uniFEA3 dx=-142 dy=0 dh=-142 dv=0 dx=0 dy=0 dh=0 dv=0
PairPos2: "'kern' Horizontal Kerning lookup 15-2" uniFE9F dx=-142 dy=0 dh=-142 dv=0 dx=0 dy=0 dh=0 dv=0
PairPos2: "'kern' Horizontal Kerning lookup 15-2" uniFE9B dx=-142 dy=0 dh=-142 dv=0 dx=0 dy=0 dh=0 dv=0
PairPos2: "'kern' Horizontal Kerning lookup 15-2" uni062B dx=-142 dy=0 dh=-142 dv=0 dx=0 dy=0 dh=0 dv=0
PairPos2: "'kern' Horizontal Kerning lookup 15-2" uniFE97 dx=-142 dy=0 dh=-142 dv=0 dx=0 dy=0 dh=0 dv=0
PairPos2: "'kern' Horizontal Kerning lookup 15-2" uni062A dx=-142 dy=0 dh=-142 dv=0 dx=0 dy=0 dh=0 dv=0
PairPos2: "'kern' Horizontal Kerning lookup 15-2" uni0629 dx=-142 dy=0 dh=-142 dv=0 dx=0 dy=0 dh=0 dv=0
PairPos2: "'kern' Horizontal Kerning lookup 15-2" uniFE91 dx=-47 dy=0 dh=-47 dv=0 dx=0 dy=0 dh=0 dv=0
PairPos2: "'kern' Horizontal Kerning lookup 15-2" uni0628 dx=-142 dy=0 dh=-142 dv=0 dx=0 dy=0 dh=0 dv=0
PairPos2: "'kern' Horizontal Kerning lookup 15-2" uni0627 dx=-188 dy=0 dh=-188 dv=0 dx=0 dy=0 dh=0 dv=0
PairPos2: "'kern' Horizontal Kerning lookup 15-2" uni0622 dx=-188 dy=0 dh=-188 dv=0 dx=0 dy=0 dh=0 dv=0
PairPos2: "'kern' Horizontal Kerning lookup 15-2" uni0621 dx=-142 dy=0 dh=-142 dv=0 dx=0 dy=0 dh=0 dv=0
PairPos2: "'kern' Horizontal Kerning lookup 15-2" uniFB94 dx=-142 dy=0 dh=-142 dv=0 dx=0 dy=0 dh=0 dv=0
PairPos2: "'kern' Horizontal Kerning lookup 15-2" uniFB92 dx=-142 dy=0 dh=-142 dv=0 dx=0 dy=0 dh=0 dv=0
PairPos2: "'kern' Horizontal Kerning lookup 15-2" afii57509 dx=-142 dy=0 dh=-142 dv=0 dx=0 dy=0 dh=0 dv=0
PairPos2: "'kern' Horizontal Kerning lookup 15-2" afii57508 dx=-47 dy=0 dh=-47 dv=0 dx=0 dy=0 dh=0 dv=0
PairPos2: "'kern' Horizontal Kerning lookup 15-2" uniFB7C dx=-142 dy=0 dh=-142 dv=0 dx=0 dy=0 dh=0 dv=0
PairPos2: "'kern' Horizontal Kerning lookup 15-2" afii57506 dx=-142 dy=0 dh=-142 dv=0 dx=0 dy=0 dh=0 dv=0
PairPos2: "'kern' Horizontal Kerning lookup 15-2" afii57440 dx=-94 dy=0 dh=-94 dv=0 dx=0 dy=0 dh=0 dv=0
Substitution2: "'fina' Terminal Forms in Arabic lookup 9 subtable" uniFEAE
EndChar

StartChar: uni0633
Encoding: 1587 1587 29
Width: 2463
VWidth: 2553
GlyphClass: 2
Flags: W
AnchorPoint: "Anchor-10" 547.364 987.957 basechar 0
AnchorPoint: "Anchor-7" 309.092 -641.765 basechar 0
LayerCount: 2
Fore
SplineSet
91 446 m 1,0,-1
 269.91796875 446.033203125 l 1,1,-1
 269.91796875 44.447265625 l 2,2,3
 270.000130801 -263.490234375 270.000130801 -263.490234375 703.396484375 -263.490234375 c 2,4,-1
 728.682617188 -263.490234375 l 1,5,-1
 756.385742188 -262.901367188 l 2,6,7
 1144.04185213 -254.999146861 1144.04185213 -254.999146861 1143.88574219 48.5576171875 c 2,8,-1
 1143.57910156 644.822265625 l 1,9,-1
 1333.88769531 644.990234375 l 1,10,-1
 1334.48339844 365.1328125 l 2,11,12
 1335 181 1335 181 1531.29003906 177.67578125 c 0,13,14
 1691.29119535 174.995121312 1691.29119535 174.995121312 1690.69042969 396.787109375 c 2,15,-1
 1689.99902344 652.041992188 l 1,16,-1
 1863.94628906 652.041992188 l 1,17,-1
 1864.58886719 390.651367188 l 2,18,19
 1865 176 1865 176 2041.46484375 178.571289062 c 0,20,21
 2192.39550781 181.00725015 2192.39550781 181.00725015 2192.39550781 411.665039062 c 2,22,-1
 2192.39550781 693.979492188 l 1,23,-1
 2371.15234375 693.979492188 l 1,24,-1
 2371.15234375 417.647460938 l 2,25,26
 2371 0 2371 0 2036.42285156 -1.06640625 c 0,27,28
 1831 -2 1831 -2 1770.8828125 180.721679688 c 1,29,30
 1708 -3 1708 -3 1542.75390625 -1 c 0,31,32
 1377 1 1377 1 1320.62597656 98.7099609375 c 1,33,-1
 1320.29394531 43.9072265625 l 2,34,35
 1317.00130404 -434.810404757 1317.00130404 -434.810404757 747.471679688 -452.205078125 c 2,36,-1
 728.415039062 -452.787109375 l 1,37,-1
 701.224609375 -452.787109375 l 2,38,39
 91.357516761 -452.999875272 91.357516761 -452.999875272 91.16015625 43.2763671875 c 2,40,-1
 91 446 l 1,0,-1
EndSplineSet
Substitution2: "'fina' Terminal Forms in Arabic lookup 9 subtable" uniFEB2
Substitution2: "'medi' Medial Forms in Arabic lookup 11 subtable" uniFEB4
Substitution2: "'init' Initial Forms in Arabic lookup 13 subtable" uniFEB3
EndChar

StartChar: uni0635
Encoding: 1589 1589 31
Width: 2547
VWidth: 2553
GlyphClass: 2
Flags: W
AnchorPoint: "Anchor-10" 539.495 987.957 basechar 0
AnchorPoint: "Anchor-7" 246.07 -630.58 basechar 0
LayerCount: 2
Fore
SplineSet
1592.00390625 201.52734375 m 1,0,-1
 1937.26074219 201.52734375 l 2,1,2
 2049.25195312 201.309570312 2049.25195312 201.309570312 2141.08886719 241.61328125 c 0,3,4
 2276.25195312 299.309570312 2276.25195312 299.309570312 2268.2265625 437.279296875 c 0,5,6
 2258.25195312 622.309570312 2258.25195312 622.309570312 2094.87402344 618.543945312 c 0,7,8
 1979.9765625 626.012695312 1979.9765625 626.012695312 1772.25195312 402.309570312 c 0,9,10
 1694.25195312 318.309570312 1694.25195312 318.309570312 1592.00390625 201.52734375 c 1,0,-1
1433 262 m 1,11,12
 1615 463 1615 463 1666.5 518 c 0,13,14
 1837 700 1837 700 1956.25195312 749.309570312 c 0,15,16
 2102 810 2102 810 2236.15917969 774.177734375 c 0,17,18
 2452 715 2452 715 2455.35644531 396.267578125 c 0,19,20
 2457 183 2457 183 2255.52441406 64.8779296875 c 0,21,22
 2146.43064505 0.255097088543 2146.43064505 0.255097088543 2015.26464844 0.1845703125 c 2,23,-1
 1672 0 l 1,24,25
 1392 0 1392 0 1320.25390625 112.287109375 c 1,26,-1
 1320.25390625 43.865234375 l 2,27,28
 1320.00014974 -434.717590607 1320.00014974 -434.717590607 747.431640625 -452.205078125 c 2,29,30
 728.375 -452.787109375 l 1,31,-1
 701.1875 -452.787109375 l 2,32,33
 91 -453 91 -453 91.12109375 43.2763671875 c 1,34,-1
 91 446 l 1,35,-1
 269.877929688 446.033203125 l 1,36,-1
 269.877929688 44.44921875 l 2,37,38
 270.000194644 -263.490234375 270.000194644 -263.490234375 703.356445312 -263.490234375 c 2,39,-1
 728.642578125 -263.490234375 l 1,40,-1
 756.364257812 -262.901367188 l 2,41,42
 1144.02319255 -254.999527255 1144.02319255 -254.999527255 1143.84570312 48.5576171875 c 2,43,-1
 1143.49707031 644.818359375 l 5,44,-1
 1324.94824219 644.911132812 l 5,45,-1
 1325.0390625 476.603515625 l 2,46,47
 1325 289 1325 289 1433 262 c 1,11,12
EndSplineSet
Substitution2: "'fina' Terminal Forms in Arabic lookup 9 subtable" uniFEBA
Substitution2: "'medi' Medial Forms in Arabic lookup 11 subtable" uniFEBC
Substitution2: "'init' Initial Forms in Arabic lookup 13 subtable" uniFEBB
EndChar

StartChar: uni0637
Encoding: 1591 1591 33
Width: 1390
VWidth: 2553
GlyphClass: 2
Flags: W
AnchorPoint: "Anchor-10" 443.723 1620.59 basechar 0
AnchorPoint: "Anchor-7" 654.688 -277.098 basechar 0
LayerCount: 2
Fore
SplineSet
434.751953125 202.217773438 m 5,0,-1
 780.008789062 202.217773438 l 6,1,2
 892 202 892 202 983.836914062 242.303710938 c 4,3,4
 1119 300 1119 300 1110.97460938 437.969726562 c 4,5,6
 1101 623 1101 623 937.622070312 619.234375 c 4,7,8
 822.724550843 626.703362446 822.724550843 626.703362446 615 403 c 4,9,10
 537 319 537 319 434.751953125 202.217773438 c 5,0,-1
352.169921875 355.219726562 m 5,11,-1
 352.169921875 1388.74414062 l 1,12,-1
 527.264648438 1388.74414062 l 1,13,-1
 527.264648438 527.959960938 l 5,14,15
 664 688 664 688 799 750 c 4,16,17
 937 813 937 813 1078.90722656 774.868164062 c 4,18,19
 1295 716 1295 716 1298.10449219 396.958007812 c 4,20,21
 1300 184 1300 184 1098.27246094 65.568359375 c 4,22,23
 988.907565357 0.945380993728 988.907565357 0.945380993728 858.012695312 0.875 c 6,24,-1
 514.748046875 0.6904296875 l 5,25,-1
 89.7705078125 -0.0048828125 l 1,26,-1
 89.7705078125 189.200195312 l 1,27,-1
 214.784179688 189.200195312 l 5,28,-1
 352.169921875 355.219726562 l 5,11,-1
EndSplineSet
Substitution2: "'fina' Terminal Forms in Arabic lookup 9 subtable" uniFEC2
Substitution2: "'medi' Medial Forms in Arabic lookup 11 subtable" uniFEC4
Substitution2: "'init' Initial Forms in Arabic lookup 13 subtable" uniFEC3
EndChar

StartChar: uni0639
Encoding: 1593 1593 35
Width: 1335
VWidth: 2553
GlyphClass: 2
Flags: W
AnchorPoint: "Anchor-10" 665.349 1455.99 basechar 0
AnchorPoint: "Anchor-7" 290.438 -871.494 basechar 0
LayerCount: 2
Fore
SplineSet
1242.51855469 -753.981445312 m 1,0,-1
 800.526367188 -753.098632812 l 2,1,2
 90.6337890625 -751.744140625 90.6337890625 -751.744140625 91.8046875 -165.764648438 c 0,3,4
 92.5771484375 264.361328125 92.5771484375 264.361328125 525.569335938 483.666992188 c 1,5,6
 418.8359375 522.924804688 418.8359375 522.924804688 371.041015625 593.03515625 c 0,7,8
 284.447265625 719.1796875 284.447265625 719.1796875 313.703125 863.818359375 c 0,9,10
 358.796875 1087.99023438 358.796875 1087.99023438 580.9296875 1141.20410156 c 128,-1,11
 802.958984375 1194.39453125 802.958984375 1194.39453125 1016.95019531 1089.38574219 c 1,12,-1
 974.638671875 943.612304688 l 1,13,14
 802.3828125 1007.73535156 802.3828125 1007.73535156 673.328125 986.544921875 c 0,15,16
 479.776367188 953.969726562 479.776367188 953.969726562 478.861328125 787.165039062 c 0,17,18
 477.868164062 614.341796875 477.868164062 614.341796875 716.225585938 590.77734375 c 1,19,-1
 1090.83789062 636.2890625 l 1,20,-1
 1090.67871094 467.701171875 l 1,21,22
 1047.37304688 465.642578125 1047.37304688 465.642578125 1003.68066406 463.995117188 c 0,23,24
 814.232421875 459.798828125 814.232421875 459.798828125 600.533203125 333.125976562 c 0,25,26
 253.828125 128.7109375 253.828125 128.7109375 252.932617188 -170.747070312 c 0,27,28
 251.68359375 -578.97265625 251.68359375 -578.97265625 796.560546875 -580.5 c 2,29,-1
 1243.57324219 -581.419921875 l 1,30,-1
 1242.51855469 -753.981445312 l 1,0,-1
EndSplineSet
Substitution2: "'fina' Terminal Forms in Arabic lookup 9 subtable" uniFECA
Substitution2: "'medi' Medial Forms in Arabic lookup 11 subtable" uniFECC
Substitution2: "'init' Initial Forms in Arabic lookup 13 subtable" uniFECB
EndChar

StartChar: afii57440
Encoding: 1600 1600 37
Width: 763
VWidth: 2553
GlyphClass: 2
Flags: W
AnchorPoint: "Anchor-10" 381.758 1491.26 basechar 0
AnchorPoint: "Anchor-7" 381.758 -141.351 basechar 0
LayerCount: 2
Fore
SplineSet
-9.0234375 -0.0966796875 m 1,0,-1
 -9.0234375 189.198242188 l 1,1,-1
 770.598632812 189.198242188 l 1,2,-1
 770.598632812 -0.0966796875 l 1,3,-1
 -9.0234375 -0.0966796875 l 1,0,-1
EndSplineSet
EndChar

StartChar: uni0643
Encoding: 1603 1603 40
Width: 1877
VWidth: 2553
GlyphClass: 2
Flags: W
AnchorPoint: "Anchor-10" 597.194 1631.14 basechar 0
AnchorPoint: "Anchor-7" 427.008 -289.033 basechar 0
LayerCount: 2
Fore
SplineSet
703.514648438 813.643554688 m 2,0,1
 768.202148437 805.491210938 768.202148437 805.491210938 832.823730469 805.491210938 c 128,-1,2
 897.4453125 805.491210938 897.4453125 805.491210938 953.028320312 827.094726562 c 0,3,4
 1037.05957031 859.754882812 1037.05957031 859.754882812 1037.05957031 911.938964844 c 128,-1,5
 1037.05957031 964.123046875 1037.05957031 964.123046875 946.176269531 978.501953125 c 128,-1,6
 855.29296875 992.880859375 855.29296875 992.880859375 819.223632812 1040.05761719 c 0,7,8
 764.521484375 1111.6015625 764.521484375 1111.6015625 788.9921875 1188.515625 c 0,9,10
 836.159179688 1336.76855469 836.159179688 1336.76855469 1100.4453125 1356.41015625 c 2,11,-1
 1129.71484375 1358.58496094 l 1,12,-1
 1129.71484375 1258.15820312 l 1,13,-1
 1104.67480469 1256.12109375 l 2,14,15
 933.364257812 1242.18652344 933.364257812 1242.18652344 891.086914062 1171.90429688 c 0,16,17
 888.592773438 1167.75687411 888.592773438 1167.75687411 888.592773438 1143.37695312 c 0,18,19
 888.592773438 1094.77539062 888.592773438 1094.77539062 942.532226562 1077.42089844 c 0,20,21
 970.375 1068.46386719 970.375 1068.46386719 1021.77978516 1060.90283203 c 128,-1,22
 1073.18457031 1053.34179688 1073.18457031 1053.34179688 1106.89697266 1020.68554688 c 128,-1,23
 1140.609375 988.029296875 1140.609375 988.029296875 1140.609375 930.932517906 c 0,24,25
 1140.609375 873.835738937 1140.609375 873.835738937 1117.30957031 836.818359375 c 0,26,27
 1004.61328125 657.772460938 1004.61328125 657.772460938 695.8984375 706.025390625 c 2,28,-1
 672.857421875 709.627929688 l 1,29,-1
 672.857421875 817.506835938 l 1,30,-1
 703.514648438 813.643554688 l 2,0,1
1371.84667969 188.23046875 m 2,31,32
 1569.41601562 188.359187309 1569.41601562 188.359187309 1569.41601562 450.396484375 c 2,33,-1
 1569.41601562 1387.18847656 l 1,34,-1
 1748.17382812 1387.18847656 l 1,35,-1
 1748.17382812 477.391601562 l 2,36,37
 1748.17382812 -1.06640625 1748.17382812 -1.06640625 1364.62988281 -1.06640625 c 2,38,-1
 462.955078125 -1.06640625 l 2,39,40
 91.1513725051 -0.968613095553 91.1513725051 -0.968613095553 91.1494140625 441.006835938 c 2,41,-1
 91.1484375 653.75 l 1,42,-1
 269.904296875 653.75 l 1,43,-1
 269.904296875 451.571289062 l 2,44,45
 269.900410815 188.230468749 269.900410815 188.230468749 467.470703125 188.23046875 c 2,46,-1
 1371.84667969 188.23046875 l 2,31,32
EndSplineSet
Substitution2: "'fina' Terminal Forms in Arabic lookup 9 subtable" uniFEDA
Substitution2: "'medi' Medial Forms in Arabic lookup 11 subtable" uniFEDC
Substitution2: "'init' Initial Forms in Arabic lookup 13 subtable" uniFEDB
EndChar

StartChar: uni0644
Encoding: 1604 1604 41
Width: 1450
VWidth: 2553
GlyphClass: 2
Flags: W
AnchorPoint: "Anchor-10" 444.625 1249.69 basechar 0
AnchorPoint: "Anchor-7" 407.231 -611.937 basechar 0
LayerCount: 2
Fore
SplineSet
269.877929688 44.44921875 m 2,0,1
 269.877929688 -297.528320312 269.877929688 -297.528320312 703.356445312 -297.528320312 c 2,2,-1
 728.643554688 -297.528320312 l 1,3,-1
 756.362304688 -296.938476562 l 2,4,5
 1142.69335874 -289.006295983 1142.69335874 -289.006295983 1147.36523438 48.416015625 c 2,6,-1
 1148.03613281 96.87109375 l 1,7,8
 1147.37695312 97.5892951859 1147.37695312 97.5892951859 1147.37695312 433.754882812 c 2,9,-1
 1147.37695312 1386.63671875 l 1,10,-1
 1321.29882812 1386.63671875 l 1,11,-1
 1321.29882812 433.766601562 l 1,12,-1
 1320.91210938 100.340820312 l 1,13,-1
 1320.25488281 43.9853515625 l 2,14,15
 1314.00112212 -468.907971174 1314.00112212 -468.907971174 747.430664062 -486.2421875 c 2,16,-1
 728.375 -486.825195312 l 1,17,-1
 701.186523438 -486.825195312 l 2,18,19
 91.12109375 -486.999965309 91.12109375 -486.999965309 91.12109375 43.2763671875 c 2,20,-1
 91 446 l 5,21,-1
 269.877929688 446.033203125 l 1,22,-1
 269.877929688 44.44921875 l 2,0,1
EndSplineSet
Substitution2: "'fina' Terminal Forms in Arabic lookup 9 subtable" uniFEDE
Substitution2: "'medi' Medial Forms in Arabic lookup 11 subtable" uniFEE0
Substitution2: "'init' Initial Forms in Arabic lookup 13 subtable" uniFEDF
EndChar

StartChar: uni0645
Encoding: 1605 1605 42
Width: 1284
VWidth: 2553
GlyphClass: 2
Flags: W
AnchorPoint: "Anchor-10" 635.137 1252.98 basechar 0
AnchorPoint: "Anchor-7" 134.119 -737.918 basechar 0
LayerCount: 2
Fore
SplineSet
832.837890625 579.115234375 m 0,0,1
 698.231059737 578.942336663 698.231059737 578.942336663 684.531545493 567.491169295 c 0,2,3
 670.83203125 556.040001927 670.83203125 556.040001927 670.83203125 400.20703125 c 128,-1,4
 670.83203125 244.193359375 670.83203125 244.193359375 720.286132812 193.526367188 c 128,-1,5
 769.711914062 142.890625 769.711914062 142.890625 858.740234375 142.890625 c 0,6,7
 870.278320312 142.890625 870.278320312 142.890625 882.500976562 143.775390625 c 0,8,9
 1022.97265625 153.684507934 1022.97265625 153.684507934 1022.97265625 411.822265625 c 0,10,11
 1022.97265625 579.115234375 1022.97265625 579.115234375 832.837890625 579.115234375 c 0,0,1
928.190429688 744.5390625 m 1,12,13
 1195.98166878 741.951576835 1195.98166878 741.951576835 1193.04785156 392.005859375 c 0,14,15
 1193.34137092 125.533328976 1193.34137092 125.533328976 1042.48242188 27.3974609375 c 0,16,17
 966.938476562 -21.9462890625 966.938476562 -21.9462890625 831.629581664 -15.7967962311 c 0,18,19
 696.320686766 -9.64730339979 696.320686766 -9.64730339979 611.139648438 71.6201171875 c 0,20,21
 491.197265625 181.868164062 491.197265625 181.868164062 498.890625 425.30859375 c 0,22,23
 501.432617188 513.10546875 501.432617188 513.10546875 505.227539062 553.943359375 c 1,24,25
 265.010742188 530.650390625 265.010742188 530.650390625 265.010742188 161.032226562 c 2,26,-1
 265.010742188 -496.416992188 l 1,27,-1
 90.94921875 -496.416992188 l 1,28,-1
 90.94921875 153.58984375 l 1,29,-1
 90.9541015625 159.58984375 l 0,30,31
 92.34375 704.224609375 92.34375 704.224609375 493.255859375 744.525390625 c 1,32,-1
 928.190429688 744.5390625 l 1,12,13
EndSplineSet
Substitution2: "'init' Initial Forms in Arabic lookup 13 subtable" uniFEE3
Substitution2: "'medi' Medial Forms in Arabic lookup 11 subtable" uniFEE4
Substitution2: "'fina' Terminal Forms in Arabic lookup 9 subtable" uniFEE2
EndChar

StartChar: uni0647
Encoding: 1607 1607 44
Width: 933
VWidth: 2330
GlyphClass: 2
Flags: W
AnchorPoint: "Anchor-10" 446.842 1230.09 basechar 0
AnchorPoint: "Anchor-7" 339.011 -258.527 basechar 0
LayerCount: 2
Fore
SplineSet
465.715820312 604.506835938 m 1,0,1
 298.044921875 436.5703125 298.044921875 436.5703125 271.077148438 356.017578125 c 1,2,3
 266.603515625 336.765625 266.603515625 336.765625 266.603515625 319.46875 c 0,4,5
 266.603515625 237.5078125 266.603515625 237.5078125 367.065429688 199.458984375 c 0,6,7
 423.48828125 178.083007812 423.48828125 178.083007812 480.7265625 178.083007812 c 0,8,9
 516.272460938 178.083007812 516.272460938 178.083007812 552.1328125 186.327148438 c 0,10,11
 645.73828125 207.845703125 645.73828125 207.845703125 666.094726562 267.801757812 c 0,12,13
 672.357421875 285.794921875 672.357421875 285.794921875 672.357421875 305.854492188 c 0,14,15
 672.357421875 421.083984375 672.357421875 421.083984375 465.715820312 604.506835938 c 1,0,1
141.868164062 127.74609375 m 0,16,17
 92 187 92 187 91.8251953125 274.637695312 c 0,18,19
 92 381 92 381 150.029296875 474.669921875 c 0,20,21
 231 606 231 606 344.032226562 719.196289062 c 1,22,-1
 303.859375 753.739257812 l 1,23,-1
 410.26171875 867.556640625 l 1,24,25
 722 642 722 642 800.418945312 448.637695312 c 0,26,27
 841 348 841 348 841.462890625 267.815429688 c 0,28,29
 841 128 841 128 716.77734375 52.5029296875 c 0,30,31
 622 -5 622 -5 492.712890625 3.67578125 c 0,32,33
 488 4 488 4 482.750976562 3.7333984375 c 0,34,35
 332 5 332 5 255.23828125 41.86328125 c 0,36,37
 186 76 186 76 141.868164062 127.74609375 c 0,16,17
EndSplineSet
Substitution2: "'fina' Terminal Forms in Arabic lookup 9 subtable" uniFEEA
Substitution2: "'medi' Medial Forms in Arabic lookup 11 subtable" uniFEEC
Substitution2: "'init' Initial Forms in Arabic lookup 13 subtable" uniFEEB
EndChar

StartChar: uni0648
Encoding: 1608 1608 45
Width: 857
VWidth: 2553
GlyphClass: 2
Flags: W
AnchorPoint: "Anchor-10" 352.019 1205.88 basechar 0
AnchorPoint: "Anchor-7" 355.433 -717.366 basechar 0
LayerCount: 2
Fore
SplineSet
509.889648438 533.3671875 m 0,0,1
 473.751953125 551.930664062 473.751953125 551.930664062 417.2578125 552.032226562 c 0,2,3
 282.01171875 550.979492188 282.01171875 550.979492188 259.069335938 424.308105469 c 128,-1,4
 236.126953125 297.63671875 236.126953125 297.63671875 284.243164062 231.104492188 c 0,5,6
 320.88112293 180.443622714 320.88112293 180.443622714 461.571289062 180.670898438 c 0,7,8
 505.609375 180.600585938 505.609375 180.600585938 589.709960938 191.706054688 c 1,9,10
 592.736328125 239.243164062 592.736328125 239.243164062 592.887695312 280.255859375 c 0,11,12
 592.731445312 491.013671875 592.731445312 491.013671875 509.889648438 533.3671875 c 0,0,1
578.778320312 2.0224609375 m 1,13,14
 543.571289062 -3.673828125 543.571289062 -3.673828125 485.965332031 -3.673828125 c 128,-1,15
 428.359375 -3.673828125 428.359375 -3.673828125 424.982421875 -3.6669921875 c 0,16,17
 90.642578125 -3.8857421875 90.642578125 -3.8857421875 90.642578125 350.403320312 c 0,18,19
 90.642578125 495.48828125 90.642578125 495.48828125 150.873046875 592.421875 c 0,20,21
 237.830078125 730.184570312 237.830078125 730.184570312 424.609375 730.184570312 c 0,22,23
 425.163085938 730.184570312 425.163085938 730.184570312 425.713867188 730.18359375 c 0,24,25
 659.091796875 730.18359375 659.091796875 730.18359375 741.137695312 503.581054688 c 0,26,27
 765.958007812 435.799804688 765.958007812 435.799804688 765.958007812 318.217773438 c 0,28,29
 765.958007812 315.791992188 765.958007812 315.791992188 765.948242188 313.34375 c 2,30,-1
 764.577148438 -4.4111328125 l 1,31,-1
 764.577148438 -11.4638671875 l 2,32,33
 764.599609375 -523.412109375 764.599609375 -523.412109375 222.525390625 -523.412109375 c 0,34,35
 211.815429688 -523.594726562 211.815429688 -523.594726562 193.007324219 -523.594726562 c 128,-1,36
 174.19921875 -523.594726562 174.19921875 -523.594726562 120.979492188 -523.362304688 c 2,37,-1
 117.994140625 -523.349609375 l 1,38,-1
 117.891601562 -335.1953125 l 1,39,-1
 217.8515625 -335.265625 l 2,40,41
 578.778320312 -335.439453125 578.778320312 -335.439453125 578.778320312 -42.5517578125 c 2,42,-1
 578.778320312 2.0224609375 l 1,13,14
EndSplineSet
Substitution2: "'fina' Terminal Forms in Arabic lookup 9 subtable" uniFEEE
EndChar

StartChar: uni0649
Encoding: 1609 1609 46
Width: 1476
VWidth: 2553
GlyphClass: 2
Flags: W
AnchorPoint: "Anchor-10" 444.637 1228.75 basechar 0
AnchorPoint: "Anchor-7" 285.837 -686.501 basechar 0
LayerCount: 2
Fore
SplineSet
1160.77441406 263.370117188 m 2,0,1
 1385.12792969 263.370117188 1385.12792969 263.370117188 1385.12792969 41.36328125 c 2,2,-1
 1385.12792969 12.0224609375 l 1,3,4
 1383.00082372 -502.800634856 1383.00082372 -502.800634856 825.421875 -508.692382812 c 2,5,-1
 769.877929688 -509.279296875 l 1,6,-1
 690.94140625 -509.279296875 l 2,7,8
 90.6088914636 -508.999817923 90.6088914636 -508.999817923 90.267578125 56.033203125 c 2,9,-1
 90 499 l 1,10,-1
 269.022460938 499 l 1,11,-1
 269.022460938 57.2060546875 l 2,12,13
 269.000000726 -319.987806691 269.000000726 -319.987806691 693.11328125 -319.982421875 c 2,14,-1
 770.028320312 -319.981445312 l 1,15,-1
 834.020507812 -319.39453125 l 2,16,17
 1208.71875 -316.002546038 1208.71875 -316.002546038 1208.71875 -5.583984375 c 2,18,-1
 1208.71875 6.1513671875 l 2,19,20
 1208.9996552 83.9045604321 1208.9996552 83.9045604321 1130.29003906 84.1484375 c 2,21,-1
 938.9765625 84.7412109375 l 2,22,23
 765.765625 85.0003506468 765.765625 85.0003506468 765.765625 251.583007812 c 2,24,-1
 765.765625 317.377929688 l 2,25,26
 765.999845894 789.689241506 765.999845894 789.689241506 1188.53320312 789.901367188 c 2,27,-1
 1385 790 l 1,28,-1
 1385.89160156 600.604492188 l 1,29,-1
 1147.28222656 600.604492188 l 2,30,31
 949.929634952 601.000141067 949.929634952 601.000141067 944.522460938 324.002929688 c 2,32,-1
 943.338867188 263.370117188 l 1,33,-1
 1160.77441406 263.370117188 l 2,0,1
EndSplineSet
Substitution2: "'fina' Terminal Forms in Arabic lookup 9 subtable" uniFEF0
Substitution2: "'medi' Medial Forms in Arabic lookup 11 subtable" uniFBE9
Substitution2: "'init' Initial Forms in Arabic lookup 13 subtable" uniFBE8
EndChar

StartChar: uni064B
Encoding: 1611 1611 48
Width: 0
VWidth: 2186
GlyphClass: 4
Flags: W
AnchorPoint: "Anchor-10" 547.84 1041.5 mark 0
AnchorPoint: "Anchor-9" 547.84 1041.5 mark 0
AnchorPoint: "Anchor-1" 547.84 1576.5 basemark 0
AnchorPoint: "Anchor-1" 547.84 1041.5 mark 0
LayerCount: 2
Fore
SplineSet
286 993 m 5,0,-1
 286 1120.0703125 l 5,1,-1
 780 1322.0703125 l 5,2,-1
 780 1195 l 5,3,-1
 286 993 l 5,0,-1
286 1252 m 5,4,-1
 286 1379.0703125 l 5,5,-1
 780 1581.0703125 l 5,6,-1
 780 1454 l 5,7,-1
 286 1252 l 5,4,-1
EndSplineSet
EndChar

StartChar: uni064C
Encoding: 1612 1612 49
Width: 0
VWidth: 2186
GlyphClass: 4
Flags: W
AnchorPoint: "Anchor-10" 554.386 1155.44 mark 0
AnchorPoint: "Anchor-9" 554.386 1155.44 mark 0
AnchorPoint: "Anchor-1" 546.386 1810.94 basemark 0
AnchorPoint: "Anchor-1" 554.386 1155.44 mark 0
LayerCount: 2
Fore
SplineSet
567.219 1298.72 m 0,0,1
 608.391 1338.78 608.391 1338.78 631.845 1385.69 c 2,2,-1
 639.364 1400.73 l 1,3,-1
 622.913 1404.22 l 2,4,5
 589.558 1411.29 589.558 1411.29 566.532 1424.31 c 0,6,7
 457.736 1481.73 457.736 1481.73 457.736 1574.47 c 0,8,9
 457.736 1661.08 457.736 1661.08 526.365 1712.8 c 0,10,11
 552.86 1732.67 552.86 1732.67 615.937 1732.67 c 0,12,13
 688.759 1732.67 688.759 1732.67 727.738 1694.66 c 0,14,15
 782.696 1640.71 782.696 1640.71 782.696 1561.63 c 0,16,17
 782.696 1521.9 782.696 1521.9 770.46 1483.15 c 2,18,-1
 765.402 1467.14 l 1,19,-1
 782.175 1466.26 l 2,20,21
 802.247 1465.2 802.247 1465.2 817.806 1465.17 c 0,22,23
 831.205 1464.45 831.205 1464.45 845.826 1464.2 c 1,24,-1
 845.826 1372.44 l 1,25,26
 806.232 1372.69 806.232 1372.69 788.381 1374.48 c 2,27,-1
 723.27 1380.74 l 1,28,-1
 719.537 1371.99 l 2,29,30
 692.652 1308.91 692.652 1308.91 614.12 1227.24 c 1,31,32
 527.043 1139.14 527.043 1139.14 431.896 1139.14 c 0,33,34
 319.02 1139.14 319.02 1139.14 262.205 1295.39 c 0,35,36
 247.89 1334.51 247.89 1334.51 246.994 1442.7 c 1,37,-1
 317.299 1442.7 l 1,38,39
 318.143 1347.11 318.143 1347.11 331.307 1318.59 c 0,40,41
 372.26 1230.84 372.26 1230.84 431.896 1230.84 c 0,42,43
 497.076 1230.84 497.076 1230.84 567.219 1298.72 c 0,0,1
669.292 1482.64 m 1,44,-1
 680.316 1508.36 l 2,45,46
 690.996 1533.28 690.996 1533.28 690.996 1561.63 c 0,47,48
 690.996 1604.15 690.996 1604.15 668.07 1623.02 c 0,49,50
 646.28 1640.97 646.28 1640.97 620.217 1640.97 c 0,51,52
 591.787 1640.97 591.787 1640.97 575.875 1628.63 c 0,53,54
 551.576 1610.34 551.576 1610.34 551.576 1574.47 c 0,55,56
 551.576 1526.08 551.576 1526.08 607.898 1503.55 c 0,57,58
 629.803 1494.79 629.803 1494.79 658.123 1486.08 c 2,59,-1
 669.292 1482.64 l 1,44,-1
EndSplineSet
EndChar

StartChar: uni064D
Encoding: 1613 1613 50
Width: 0
VWidth: 2186
GlyphClass: 4
Flags: W
AnchorPoint: "Anchor-7" 531.84 75.5 mark 0
AnchorPoint: "Anchor-6" 531.84 75.5 mark 0
AnchorPoint: "Anchor-0" 547.84 -439.5 basemark 0
AnchorPoint: "Anchor-0" 531.84 75.5 mark 0
LayerCount: 2
Fore
SplineSet
291 -497 m 5,0,-1
 291 -369.9296875 l 5,1,-1
 785 -167.9296875 l 5,2,-1
 785 -295 l 5,3,-1
 291 -497 l 5,0,-1
291 -238 m 5,4,-1
 291 -110.9296875 l 5,5,-1
 785 91.0703125 l 5,6,-1
 785 -36 l 5,7,-1
 291 -238 l 5,4,-1
EndSplineSet
EndChar

StartChar: uni064E
Encoding: 1614 1614 51
Width: 0
VWidth: 2186
GlyphClass: 4
Flags: W
AnchorPoint: "Anchor-10" 517.84 1279.5 mark 0
AnchorPoint: "Anchor-9" 517.84 1279.5 mark 0
AnchorPoint: "Anchor-1" 517.84 1600.5 basemark 0
AnchorPoint: "Anchor-1" 517.84 1279.5 mark 0
LayerCount: 2
Fore
SplineSet
257 1251 m 5,0,-1
 257 1378.0703125 l 5,1,-1
 751 1580.0703125 l 5,2,-1
 751 1453 l 5,3,-1
 257 1251 l 5,0,-1
EndSplineSet
EndChar

StartChar: uni064F
Encoding: 1615 1615 52
Width: 0
VWidth: 2186
GlyphClass: 4
Flags: W
AnchorPoint: "Anchor-10" 531.84 1205.5 mark 0
AnchorPoint: "Anchor-9" 531.84 1205.5 mark 0
AnchorPoint: "Anchor-1" 547.84 1825 basemark 0
AnchorPoint: "Anchor-1" 531.84 1205.5 mark 0
LayerCount: 2
Fore
SplineSet
594.529 1426.81 m 6,0,1
 586.598 1428.57 586.598 1428.57 567.734 1438.5 c 4,2,3
 459.19 1494.78 459.19 1494.78 459.19 1588.53 c 4,4,5
 459.19 1675.14 459.19 1675.14 527.819 1726.86 c 4,6,7
 554.314 1746.73 554.314 1746.73 617.39 1746.73 c 4,8,9
 690.212 1746.73 690.212 1746.73 729.192 1708.72 c 4,10,11
 784.15 1654.77 784.15 1654.77 784.15 1575.69 c 4,12,13
 784.15 1543.43 784.15 1543.43 769.757 1497.16 c 6,14,-1
 764.821 1481.3 l 5,15,-1
 781.407 1480.32 l 6,16,17
 799.81 1479.24 799.81 1479.24 819.259 1478.7 c 4,18,19
 832.229 1478.34 832.229 1478.34 847.28 1478.21 c 5,20,-1
 847.28 1386.53 l 5,21,22
 817.029 1386.85 817.029 1386.85 789.455 1388.57 c 4,23,24
 757.6 1390.7 757.6 1390.7 727.915 1393.88 c 6,25,-1
 720.312 1394.69 l 5,26,-1
 715.905 1388.44 l 6,27,28
 671.45 1325.37 671.45 1325.37 599.88 1281.81 c 4,29,30
 398.294 1157.85 398.294 1157.85 248.4 1152.36 c 5,31,-1
 248.4 1244.01 l 5,32,33
 408.671 1248.65 408.671 1248.65 554.781 1363.22 c 4,34,35
 580.142 1383.07 580.142 1383.07 601.135 1405.16 c 6,36,-1
 616.962 1421.83 l 5,37,-1
 594.529 1426.81 l 6,0,1
670.746 1496.7 m 5,38,-1
 681.77 1522.42 l 6,39,40
 692.45 1547.34 692.45 1547.34 692.45 1575.69 c 4,41,42
 692.45 1618.21 692.45 1618.21 669.524 1637.08 c 4,43,44
 647.734 1655.03 647.734 1655.03 621.67 1655.03 c 4,45,46
 593.241 1655.03 593.241 1655.03 577.329 1642.69 c 4,47,48
 553.03 1624.4 553.03 1624.4 553.03 1588.53 c 4,49,50
 553.03 1540.14 553.03 1540.14 609.352 1517.61 c 4,51,52
 631.256 1508.85 631.256 1508.85 659.577 1500.14 c 6,53,-1
 670.746 1496.7 l 5,38,-1
EndSplineSet
EndChar

StartChar: uni0650
Encoding: 1616 1616 53
Width: 0
VWidth: 2186
GlyphClass: 4
Flags: W
AnchorPoint: "Anchor-7" 509.84 -12.5 mark 0
AnchorPoint: "Anchor-6" 509.84 -12.5 mark 0
AnchorPoint: "Anchor-0" 556.84 -311.5 basemark 0
AnchorPoint: "Anchor-0" 509.84 -12.5 mark 0
LayerCount: 2
Fore
SplineSet
301 -343 m 1,0,-1
 301 -215.9296875 l 1,1,-1
 795 -13.9296875 l 1,2,-1
 795 -141 l 1,3,-1
 301 -343 l 1,0,-1
EndSplineSet
EndChar

StartChar: uni0651
Encoding: 1617 1617 54
Width: 0
VWidth: 2186
GlyphClass: 4
Flags: W
AnchorPoint: "Anchor-10" 547.84 1316.5 mark 0
AnchorPoint: "Anchor-9" 547.84 1316.5 mark 0
AnchorPoint: "Anchor-1" 535.84 1818.5 basemark 0
AnchorPoint: "Anchor-1" 547.84 1316.5 mark 0
LayerCount: 2
Fore
SplineSet
507.838 1339.09 m 128,-1,1
 469.58 1294.39 469.58 1294.39 378.78 1294.39 c 0,2,3
 301.302 1294.39 301.302 1294.39 261.261 1355.91 c 0,4,5
 227 1408.31 227 1408.31 227 1486.07 c 0,6,7
 227 1527.41 227 1527.41 242.222 1626.56 c 1,8,-1
 320.73 1626.56 l 1,9,10
 310.14 1502.98 310.14 1502.98 310.14 1459.89 c 0,11,12
 310.14 1394.86 310.14 1394.86 398.84 1393.09 c 0,13,14
 497.128 1391.16 497.128 1391.16 506.266 1518.54 c 0,15,16
 508.184 1545.08 508.184 1545.08 508.4 1680.83 c 1,17,-1
 586.06 1680.83 l 1,18,19
 588.34 1645.85 588.34 1645.85 588.34 1597.53 c 0,20,21
 588.34 1452.09 588.34 1452.09 700.84 1452.09 c 4,22,23
 785.54 1452.09 785.54 1452.09 785.54 1599.06 c 4,24,25
 785.54 1708.64 785.54 1708.64 774.521 1770.1 c 5,26,-1
 857.705 1770.1 l 5,27,28
 868.68 1694.87 868.68 1694.87 868.68 1580.87 c 4,29,30
 868.68 1511.69 868.68 1511.69 841.188 1456.65 c 4,31,32
 796.118 1367.27 796.118 1367.27 722.84 1358.99 c 4,33,34
 657.525 1351.76 657.525 1351.76 616.258 1379.33 c 4,35,36
 556.63 1418.62 556.63 1418.62 554.84 1431.09 c 1,37,38
 546.096 1383.79 546.096 1383.79 507.838 1339.09 c 128,-1,1
EndSplineSet
EndChar

StartChar: uni0652
Encoding: 1618 1618 55
Width: 0
VWidth: 2186
GlyphClass: 4
Flags: W
AnchorPoint: "Anchor-10" 565.84 1128.5 mark 0
AnchorPoint: "Anchor-9" 565.84 1128.5 mark 0
AnchorPoint: "Anchor-1" 551.84 1702 basemark 0
AnchorPoint: "Anchor-1" 565.84 1128.5 mark 0
LayerCount: 2
Fore
SplineSet
674.569 1383.62 m 0,0,1
 674.569 1428.15 674.569 1428.15 643.439 1459.28 c 128,-1,2
 612.312 1490.41 612.312 1490.41 567.126 1490.41 c 0,3,4
 521.285 1490.41 521.285 1490.41 490.485 1459.61 c 128,-1,5
 459.685 1428.81 459.685 1428.81 459.685 1383.62 c 0,6,7
 459.685 1337.78 459.685 1337.78 490.485 1306.98 c 128,-1,8
 521.285 1276.18 521.285 1276.18 567.126 1276.18 c 0,9,10
 612.314 1276.18 612.314 1276.18 643.439 1307.31 c 128,-1,11
 674.569 1338.44 674.569 1338.44 674.569 1383.62 c 0,0,1
750.396 1383.73 m 128,-1,13
 750.396 1306.88 750.396 1306.88 697.316 1253.46 c 128,-1,14
 644.259 1200.07 644.259 1200.07 567.436 1200.07 c 128,-1,15
 490.613 1200.07 490.613 1200.07 437.557 1253.46 c 128,-1,16
 384.476 1306.88 384.476 1306.88 384.476 1383.73 c 128,-1,17
 384.476 1460.56 384.476 1460.56 437.537 1513.63 c 128,-1,18
 490.596 1566.69 490.596 1566.69 567.436 1566.69 c 128,-1,19
 644.276 1566.69 644.276 1566.69 697.335 1513.63 c 128,-1,12
 750.396 1460.56 750.396 1460.56 750.396 1383.73 c 128,-1,13
EndSplineSet
EndChar

StartChar: uni0653
Encoding: 1619 1619 56
Width: 11
VWidth: 2553
GlyphClass: 4
Flags: W
AnchorPoint: "Anchor-10" 404.334 1442.64 mark 0
AnchorPoint: "Anchor-9" 404.334 1442.64 mark 0
AnchorPoint: "Anchor-1" 397.691 1800.13 basemark 0
AnchorPoint: "Anchor-1" 404.334 1442.64 mark 0
LayerCount: 2
Fore
SplineSet
305.553710938 1686.04003906 m 2,0,-1
 673.001953125 1686.04003906 l 1,1,-1
 674.517578125 1534.54003906 l 1,2,-1
 318.1640625 1534.54003906 l 2,3,4
 228.786044911 1534.54003906 228.786044911 1534.54003906 165.71875 1452.35839844 c 2,5,-1
 145.598632812 1426.13867188 l 1,6,-1
 43.5888671875 1541.40039062 l 1,7,-1
 55.0322265625 1558.83007812 l 2,8,9
 138.807617188 1686.04003906 138.807617188 1686.04003906 305.553710938 1686.04003906 c 2,0,-1
EndSplineSet
EndChar

StartChar: uni0657
Encoding: 1623 1623 59
Width: 11
VWidth: 2553
GlyphClass: 4
Flags: W
AnchorPoint: "Anchor-10" 648 1490.29 mark 0
AnchorPoint: "Anchor-9" 648 1490.29 mark 0
AnchorPoint: "Anchor-1" 648 2306.6 basemark 0
AnchorPoint: "Anchor-1" 648 1490.29 mark 0
LayerCount: 2
Fore
SplineSet
306.93359375 1991.88769531 m 1,0,-1
 450.541015625 1981.86425781 l 1,1,2
 510.180800958 2066.46174183 510.180800958 2066.46174183 592.361328125 2116.48046875 c 0,3,4
 817.018263895 2254.62504563 817.018263895 2254.62504563 989.06640625 2266.37109375 c 1,5,-1
 989.06640625 2179.70019531 l 1,6,7
 801.000944794 2169.33489258 801.000944794 2169.33489258 633.450195312 2037.95410156 c 0,8,9
 603.086914062 2014.18554688 603.086914062 2014.18554688 577.916992188 1987.703125 c 2,10,-1
 546.705078125 1954.84375 l 1,11,-1
 590.9453125 1945.00195312 l 2,12,13
 598.904296875 1943.23632812 598.904296875 1943.23632812 639.939453125 1921.87646484 c 128,-1,14
 680.974609375 1900.51660156 680.974609375 1900.51660156 711.318359375 1858.87304688 c 128,-1,15
 741.662109375 1817.22949219 741.662109375 1817.22949219 741.662109375 1767.10302734 c 128,-1,16
 741.662109375 1716.9765625 741.662109375 1716.9765625 727.368164062 1688.15576172 c 0,17,18
 678.704817741 1590.03613281 678.704817741 1590.03613281 560.003986708 1590.03613281 c 0,19,20
 441.303155674 1590.03613281 441.303155674 1590.03613281 396.317382812 1698.92773438 c 0,21,22
 381.028320312 1735.93894084 381.028320312 1735.93894084 381.028320312 1776.31761495 c 128,-1,23
 381.028320312 1816.69628906 381.028320312 1816.69628906 397.453125 1869.484375 c 2,24,-1
 407.186523438 1900.77050781 l 1,25,-1
 374.467773438 1902.703125 l 2,26,27
 343.974695766 1904.49603037 343.974695766 1904.49603037 306.93359375 1905.08398438 c 1,28,-1
 306.93359375 1991.88769531 l 1,0,-1
497.87890625 1885.78320312 m 1,29,-1
 481.260742188 1847.01367188 l 2,30,31
 467.884765625 1815.82258117 467.884765625 1815.82258117 467.884765625 1770.71402496 c 128,-1,32
 467.884765625 1725.60546875 467.884765625 1725.60546875 497.455566406 1701.24902344 c 128,-1,33
 527.026367188 1676.89257812 527.026367188 1676.89257812 561.344726562 1676.89257812 c 0,34,35
 633.005376407 1678.9500117 633.005376407 1678.9500117 648.71484375 1736.82519531 c 0,36,37
 652.293945312 1750.00585938 652.293945312 1750.00585938 652.293945312 1761.6640625 c 0,38,39
 652.293945312 1838.29363789 652.293945312 1838.29363789 519.913085938 1878.99902344 c 2,40,-1
 497.87890625 1885.78320312 l 1,29,-1
EndSplineSet
EndChar

StartChar: uni065A
Encoding: 1626 1626 60
Width: 1295
VWidth: 2553
GlyphClass: 4
Flags: W
AnchorPoint: "Anchor-10" 648 1490.29 mark 0
AnchorPoint: "Anchor-9" 648 1490.29 mark 0
AnchorPoint: "Anchor-1" 645.488 2055.43 basemark 0
AnchorPoint: "Anchor-1" 648 1490.29 mark 0
LayerCount: 2
Fore
SplineSet
569.607421875 1593.80273438 m 1,0,-1
 355.39453125 1951.92480469 l 1,1,-1
 471.013671875 1951.92480469 l 1,2,-1
 648 1686.44140625 l 1,3,-1
 824.983398438 1951.92480469 l 1,4,-1
 940.604492188 1951.92480469 l 1,5,-1
 726.388671875 1593.80273438 l 1,6,-1
 569.607421875 1593.80273438 l 1,0,-1
EndSplineSet
EndChar

StartChar: afii57392
Encoding: 1632 1632 61
Width: 876
VWidth: 2553
GlyphClass: 2
Flags: W
LayerCount: 2
Fore
SplineSet
328.626953125 442.924804688 m 0,0,1
 363.595703125 374.819335938 363.595703125 374.819335938 439.271484375 374.819335938 c 0,2,3
 490.361328125 374.819335938 490.361328125 374.819335938 526.65234375 411.321289062 c 128,-1,4
 562.966796875 447.84375 562.966796875 447.84375 562.966796875 499.287109375 c 128,-1,5
 562.966796875 550.72265625 562.966796875 550.72265625 526.654296875 587.252929688 c 128,-1,6
 490.36328125 623.755859375 490.36328125 623.755859375 439.271484375 623.755859375 c 128,-1,7
 388.18359375 623.755859375 388.18359375 623.755859375 351.890625 587.252929688 c 128,-1,8
 315.576171875 550.724609375 315.576171875 550.724609375 315.576171875 496.697265625 c 0,9,10
 315.576171875 468.338867188 315.576171875 468.338867188 328.626953125 442.924804688 c 0,0,1
180.685546875 369.219726562 m 0,11,12
 150.337890625 428.323242188 150.337890625 428.323242188 150.337890625 494.272460938 c 0,13,14
 150.337890625 619.91796875 150.337890625 619.91796875 234.7890625 704.8671875 c 128,-1,15
 319.189453125 789.756835938 319.189453125 789.756835938 438 789.756835938 c 128,-1,16
 556.81640625 789.756835938 556.81640625 789.756835938 641.212890625 704.8671875 c 128,-1,17
 725.662109375 619.9140625 725.662109375 619.9140625 725.662109375 500.294921875 c 128,-1,18
 725.662109375 380.659179688 725.662109375 380.659179688 641.2109375 295.723632812 c 128,-1,19
 556.810546875 210.834960938 556.810546875 210.834960938 438 210.834960938 c 0,20,21
 262.0078125 210.834960938 262.0078125 210.834960938 180.685546875 369.219726562 c 0,11,12
EndSplineSet
EndChar

StartChar: afii57393
Encoding: 1633 1633 62
Width: 652
VWidth: 2553
GlyphClass: 2
Flags: W
LayerCount: 2
Fore
SplineSet
501.849609375 3.9091796875 m 1,0,-1
 316.869140625 3.9091796875 l 1,1,2
 314 829 314 829 150 1342 c 1,3,-1
 328 1391 l 1,4,5
 501 844 501 844 501.849609375 3.9091796875 c 1,0,-1
EndSplineSet
EndChar

StartChar: afii57394
Encoding: 1634 1634 63
Width: 1154
VWidth: 2553
GlyphClass: 2
Flags: W
LayerCount: 2
Fore
SplineSet
496.8515625 11.921875 m 2,0,-1
 496.864257812 3.9091796875 l 1,1,-1
 312.094726562 3.9091796875 l 1,2,-1
 312.076171875 11.8916015625 l 2,3,4
 310 772 310 772 150 1343 c 1,5,-1
 322.090820312 1394.53515625 l 1,6,7
 350 1270 350 1270 371.133789062 1198.89160156 c 0,8,9
 437.477539062 977.741210938 437.477539062 977.741210938 631.326171875 973.91796875 c 0,10,11
 824.000976562 970.15625 824.000976562 970.15625 844.715820312 1193.77441406 c 0,12,13
 854 1294 854 1294 846.31640625 1405.22265625 c 1,14,-1
 1003.6640625 1405.22265625 l 1,15,16
 1008 1159 1008 1159 993 1073 c 0,17,18
 941.961914062 790.791992188 941.961914062 790.791992188 632.44921875 790.942382812 c 0,19,20
 514 791 514 791 436.421875 855.73046875 c 1,21,22
 496 622 496 622 496.8515625 11.921875 c 2,0,-1
EndSplineSet
EndChar

StartChar: afii57395
Encoding: 1635 1635 64
Width: 1250
VWidth: 2553
GlyphClass: 2
Flags: W
LayerCount: 2
Fore
SplineSet
777.313476562 1138 m 2,0,1
 776.876043511 970.002685574 776.876043511 970.002685574 922.23046875 966.853515625 c 0,2,3
 1037.94229803 964.001422252 1037.94229803 964.001422252 1037.30371094 1166.30078125 c 2,4,-1
 1036.58496094 1393.99511719 l 1,5,-1
 1207.97949219 1393.99511719 l 1,6,7
 1214 1109 1214 1109 1182.05078125 989.935546875 c 0,8,9
 1129 791 1129 791 941.538085938 790.290039062 c 0,10,11
 786 790 786 790 702.630859375 911.508789062 c 1,12,13
 640 797 640 797 538.912109375 793.759765625 c 0,14,15
 419 790 419 790 361.813476562 843 c 5,16,17
 416 570 416 570 416.517578125 11.9169921875 c 2,18,-1
 416.525390625 3.9091796875 l 1,19,-1
 231.75390625 3.9091796875 l 5,20,21
 235 827 235 827 67 1340 c 5,22,-1
 237.899414062 1394.53515625 l 1,23,-1
 297.930664062 1168.19335938 l 2,24,25
 351 968 351 968 489.327148438 966.708007812 c 0,26,27
 620.007584552 964.999900863 620.007584552 964.999900863 620.3046875 1147.96386719 c 2,28,-1
 620.705078125 1394.53515625 l 1,29,-1
 777.981445312 1394.53515625 l 1,30,-1
 777.313476562 1138 l 2,0,1
EndSplineSet
EndChar

StartChar: afii57396
Encoding: 1636 1636 65
Width: 997
VWidth: 2553
GlyphClass: 2
Flags: W
LayerCount: 2
Fore
SplineSet
150.43359375 297 m 0,0,1
 200.43359375 518.596679688 200.43359375 518.596679688 399.760742188 683.260742188 c 1,2,3
 263.28125 752.217773438 263.28125 752.217773438 179.000976562 853.2890625 c 0,4,5
 143.391601562 895.9921875 143.391601562 895.9921875 159.670898438 957 c 0,6,7
 235.430664062 1240.91503906 235.430664062 1240.91503906 620.29296875 1381.23925781 c 1,8,9
 638.640625 1349.82519531 638.640625 1349.82519531 644.83984375 1242.83105469 c 1,10,11
 433.41015625 1094.42285156 433.41015625 1094.42285156 356.000976562 1013.08007812 c 0,12,13
 308.73828125 963.415039062 308.73828125 963.415039062 377.000976562 919.455078125 c 0,14,15
 537.364257812 816.18359375 537.364257812 816.18359375 711.162109375 781.5625 c 1,16,17
 705.517578125 718.232421875 705.517578125 718.232421875 701.497070312 662.63671875 c 1,18,19
 475.109375 532.284179688 475.109375 532.284179688 356.000976562 371.37109375 c 0,20,21
 308.58203125 307.309570312 308.58203125 307.309570312 383.000976562 283.865234375 c 0,22,23
 552.9765625 230.31640625 552.9765625 230.31640625 818.109375 254.153320312 c 1,24,-1
 846.447265625 42.1474609375 l 1,25,26
 412.919921875 13.1552734375 412.919921875 13.1552734375 179.000976562 164.299804688 c 0,27,28
 127.936523438 197.293945312 127.936523438 197.293945312 150.43359375 297 c 0,0,1
EndSplineSet
EndChar

StartChar: afii57397
Encoding: 1637 1637 66
Width: 1250
VWidth: 2553
GlyphClass: 2
Flags: W
LayerCount: 2
Fore
SplineSet
597.77734375 983.793945312 m 1,0,1
 394.504882812 816 394.504882812 816 317.069335938 597.463867188 c 0,2,3
 294.504882812 533 294.504882812 533 293.795898438 462.901367188 c 0,4,5
 292.504882812 190 292.504882812 190 659.357421875 188.442382812 c 0,6,7
 849.504882812 188 849.504882812 188 917.504882812 308 c 0,8,9
 977.504882812 414 977.504882812 414 919.504882812 581 c 0,10,11
 842.504882812 801 842.504882812 801 597.77734375 983.793945312 c 1,0,1
388.1953125 1128.59375 m 1,12,-1
 495.268554688 1283.17285156 l 1,13,14
 1005.50488281 980 1005.50488281 980 1115.50488281 601 c 4,15,16
 1218.50488281 247 1218.50488281 247 978.2421875 85.298828125 c 0,17,18
 848.504882812 -2 848.504882812 -2 625.114257812 -1.3291015625 c 0,19,20
 341.504882812 -1 341.504882812 -1 210.59375 137.111328125 c 0,21,22
 80.5048828125 275 80.5048828125 275 108.568359375 498.184570312 c 0,23,24
 131.504882812 683 131.504882812 683 233.698242188 845.51953125 c 0,25,26
 317.504882812 978 317.504882812 978 453.510742188 1092.30761719 c 1,27,-1
 388.1953125 1128.59375 l 1,12,-1
EndSplineSet
EndChar

StartChar: afii57398
Encoding: 1638 1638 67
Width: 1250
VWidth: 2553
GlyphClass: 2
Flags: W
LayerCount: 2
Fore
SplineSet
95.1669921875 1385.40625 m 2,0,1
 308.51171875 1330.56835938 308.51171875 1330.56835938 528.756835938 1330.56835938 c 128,-1,2
 748.993164062 1330.56835938 748.993164062 1330.56835938 997.330078125 1386.52148438 c 2,3,-1
 1003.39648438 1387.88867188 l 1,4,-1
 1003.44921875 1377.93847656 l 2,5,6
 1007.42578125 627.426757812 1007.42578125 627.426757812 1159.55078125 10.10546875 c 2,7,-1
 1161.07714844 3.9091796875 l 1,8,-1
 957.666015625 3.9091796875 l 1,9,-1
 956.811523438 7.849609375 l 2,10,11
 881.1875 356.58203125 881.1875 356.58203125 850.322265625 698.435546875 c 0,12,13
 820.234375 1031.70214844 820.234375 1031.70214844 820.967773438 1173.78710938 c 1,14,15
 669.7265625 1131.71777344 669.7265625 1131.71777344 483.390625 1131.71777344 c 0,16,17
 388.022460938 1131.71777344 388.022460938 1131.71777344 290.311523438 1145.86035156 c 128,-1,18
 192.600585938 1160.00390625 192.600585938 1160.00390625 92.5625 1188.27929688 c 2,19,-1
 88.9228515625 1189.30859375 l 1,20,-1
 88.9228515625 1387.01074219 l 1,21,-1
 95.1669921875 1385.40625 l 2,0,1
EndSplineSet
EndChar

StartChar: afii57399
Encoding: 1639 1639 68
Width: 1250
VWidth: 2553
GlyphClass: 2
Flags: W
LayerCount: 2
Fore
SplineSet
535.002929688 3.9091796875 m 5,0,1
 420 716 420 716 99.7333984375 1320.83984375 c 5,2,-1
 291 1385 l 5,3,4
 499 922 499 922 630 405 c 5,5,6
 729 864 729 864 969 1385 c 5,7,-1
 1150.26660156 1320.83984375 l 5,8,9
 837 731 837 731 723.961914062 3.9091796875 c 5,10,-1
 535.002929688 3.9091796875 l 5,0,1
EndSplineSet
EndChar

StartChar: afii57400
Encoding: 1640 1640 69
Width: 1250
VWidth: 2553
GlyphClass: 2
Flags: W
LayerCount: 2
Fore
SplineSet
535.002929688 1385 m 5,0,1
 723.961914062 1385 l 5,2,3
 837 657.909179688 837 657.909179688 1150.26660156 68.0693359375 c 5,4,-1
 969 3.9091796875 l 5,5,6
 729 524.909179688 729 524.909179688 630 983.909179688 c 5,7,8
 499 466.909179688 499 466.909179688 291 3.9091796875 c 5,9,-1
 99.7333984375 68.0693359375 l 5,10,11
 420 672.909179688 420 672.909179688 535.002929688 1385 c 5,0,1
EndSplineSet
EndChar

StartChar: afii57401
Encoding: 1641 1641 70
Width: 1137
VWidth: 2553
GlyphClass: 2
Flags: W
LayerCount: 2
Fore
SplineSet
521.426757812 632.3984375 m 4,0,1
 327 632 327 632 235.162109375 739.697265625 c 4,2,3
 150 840 150 840 150.045898438 984.611328125 c 4,4,5
 150 1157 150 1157 242.0234375 1257.23535156 c 4,6,7
 358 1384 358 1384 554.987304688 1384.0546875 c 4,8,9
 881 1384 881 1384 914.954101562 1022.24511719 c 4,10,11
 927.286132812 890.0546875 927.286132812 890.0546875 935.002929688 775.598632812 c 4,12,13
 961 390 961 390 986.25390625 3.9091796875 c 5,14,-1
 806.578125 3.9091796875 l 5,15,16
 803 129 803 129 770.416992188 693.072265625 c 5,17,18
 669 632 669 632 521.426757812 632.3984375 c 4,0,1
510.78515625 791.723632812 m 4,19,20
 658 783 658 783 748.037109375 881.4375 c 5,21,22
 748 961 748 961 733.1171875 1062.34277344 c 4,23,24
 710 1219 710 1219 564.438476562 1218.82226562 c 4,25,26
 420 1219 420 1219 359.184570312 1131.34765625 c 4,27,28
 305 1054 305 1054 318.154296875 966.294921875 c 4,29,30
 342 802 342 802 510.78515625 791.723632812 c 4,19,20
EndSplineSet
EndChar

StartChar: afii57381
Encoding: 1642 1642 71
Width: 1391
VWidth: 2553
GlyphClass: 2
Flags: W
LayerCount: 2
Fore
SplineSet
178.361328125 1296.22167969 m 128,-1,1
 178.361328125 1371.39819409 178.361328125 1371.39819409 243.955078125 1409.93164062 c 0,2,3
 272.756917927 1426.84765625 272.756917927 1426.84765625 317.912638651 1426.84765625 c 128,-1,4
 363.068359375 1426.84765625 363.068359375 1426.84765625 401.342773438 1388.57421875 c 128,-1,5
 439.616210938 1350.29980469 439.616210938 1350.29980469 439.616210938 1288.59633751 c 128,-1,6
 439.616210938 1226.89287033 439.616210938 1226.89287033 381.161132812 1187.03417969 c 0,7,8
 349.713468769 1165.59179688 349.713468769 1165.59179688 311.282142197 1165.59179688 c 128,-1,9
 272.850815625 1165.59179688 272.850815625 1165.59179688 251.136833594 1178.33300781 c 0,10,0
 178.361328125 1221.03581861 178.361328125 1221.03581861 178.361328125 1296.22167969 c 128,-1,1
918.478515625 45.44921875 m 0,11,12
 856.338572171 107.131444521 856.338572171 107.131444521 889.656687651 187.513946005 c 128,-1,13
 922.974803132 267.89644749 922.974803132 267.89644749 1004.63419835 267.932011102 c 128,-1,14
 1086.29359357 267.967574714 1086.29359357 267.967574714 1124.42773438 202.920898438 c 0,15,16
 1141.38484464 173.995782866 1141.38484464 173.995782866 1140.94974654 128.506680495 c 128,-1,17
 1140.51464844 83.017578125 1140.51464844 83.017578125 1102.87194991 45.0834960938 c 128,-1,18
 1065.22925139 7.1494140625 1065.22925139 7.1494140625 1010.86035156 7.1494140625 c 128,-1,19
 956.5 7.1494140625 956.5 7.1494140625 918.478515625 45.44921875 c 0,11,12
945.688476562 1425.36816406 m 1,20,-1
 1088.87695312 1425.36816406 l 1,21,-1
 357.364257812 8.9091796875 l 1,22,-1
 214.1796875 8.9091796875 l 1,23,-1
 945.688476562 1425.36816406 l 1,20,-1
EndSplineSet
EndChar

StartChar: uni066B
Encoding: 1643 1643 72
Width: 667
VWidth: 2553
GlyphClass: 2
Flags: W
LayerCount: 2
Fore
SplineSet
25.3916015625 -269.513671875 m 1,0,-1
 451.059570312 567.4765625 l 1,1,-1
 574.604492188 566.556640625 l 1,2,3
 151.846679688 -271.249023438 l 1,4,-1
 25.3916015625 -269.513671875 l 1,0,-1
EndSplineSet
EndChar

StartChar: uni066C
Encoding: 1644 1644 73
Width: 826
VWidth: 2553
GlyphClass: 2
Flags: W
LayerCount: 2
Fore
SplineSet
357.16796875 1832.61914062 m 1,0,-1
 570.866210938 1832.61914062 l 1,1,-1
 570.866210938 1673.58300781 l 1,2,-1
 374.8984375 1292.39746094 l 1,3,-1
 261.61328125 1292.39746094 l 1,4,-1
 357.16796875 1664.13378906 l 1,5,-1
 357.16796875 1832.61914062 l 1,0,-1
EndSplineSet
EndChar

StartChar: afii63167
Encoding: 1645 1645 74
Width: 1411
VWidth: 2553
GlyphClass: 2
Flags: W
LayerCount: 2
Fore
SplineSet
192.791992188 910.817382812 m 1,0,-1
 583.680664062 910.817382812 l 1,1,-1
 705.771484375 1282.53027344 l 1,2,-1
 827.856445312 910.817382812 l 1,3,-1
 1218.74707031 910.817382812 l 1,4,-1
 902.943359375 679.956054688 l 1,5,-1
 1023.75 308.823242188 l 1,6,-1
 705.771484375 538.59765625 l 1,7,-1
 387.788085938 308.823242188 l 1,8,-1
 508.595703125 679.956054688 l 1,9,-1
 192.791992188 910.817382812 l 1,0,-1
EndSplineSet
EndChar

StartChar: uni066E
Encoding: 1646 1646 75
Width: 1931
VWidth: 2553
GlyphClass: 2
Flags: W
AnchorPoint: "Anchor-10" 869.751 1229.53 basechar 0
AnchorPoint: "Anchor-7" 869.751 -214.707 basechar 0
LayerCount: 2
Fore
SplineSet
1463.10742188 189.200195312 m 2,0,1
 1660.68261719 189.723164006 1660.68261719 189.723164006 1660.68261719 451.366210938 c 2,2,-1
 1660.68261719 653.75 l 5,3,-1
 1839.44042969 653.75 l 5,4,-1
 1839.44042969 447.842773438 l 2,5,6
 1839.10388684 147.185369454 1839.10388684 147.185369454 1674.04394531 49.00390625 c 0,7,8
 1590.96875 0.234375 1590.96875 0.234375 1466.4609375 -0.0966796875 c 2,9,-1
 462.935546875 -0.0966796875 l 2,10,11
 91.1513518854 0.0977284588455 91.1513518854 0.0977284588455 91.1494140625 441.977539062 c 2,12,-1
 91.1484375 653.75 l 5,13,-1
 269.904296875 653.75 l 5,14,-1
 269.904296875 452.541015625 l 2,15,16
 269.900410815 189.200195312 269.900410815 189.200195312 467.470703125 189.200195312 c 2,17,-1
 1463.10742188 189.200195312 l 2,0,1
EndSplineSet
Substitution2: "'init' Initial Forms in Arabic lookup 13 subtable" uni066E.init
Substitution2: "'medi' Medial Forms in Arabic lookup 11 subtable" uni066E.medi
Substitution2: "'fina' Terminal Forms in Arabic lookup 9 subtable" uni066E.fina
EndChar

StartChar: uni066F
Encoding: 1647 1647 76
Width: 1511
VWidth: 2553
GlyphClass: 2
Flags: W
AnchorPoint: "Anchor-10" 343.676 1221.52 basechar 0
AnchorPoint: "Anchor-7" 415.271 -653.467 basechar 0
LayerCount: 2
Fore
SplineSet
701.186523438 -482.129882812 m 2,0,1
 90.9999700577 -482.129882812 90.9999700577 -482.129882812 91.12109375 43.2763671875 c 1,2,-1
 91 446 l 1,3,-1
 269.877929688 446.033203125 l 1,4,-1
 269.877929688 44.44921875 l 2,5,6
 269.999939592 -292.833007812 269.999939592 -292.833007812 703.356445312 -292.833007812 c 2,7,-1
 728.5859375 -292.833007812 l 1,8,-1
 845.39453125 -292.24609375 l 2,9,10
 1237.30701038 -289.99823911 1237.30701038 -289.99823911 1240.08789062 48.474609375 c 2,11,-1
 1240.62109375 113.373046875 l 1,12,13
 1179 113 1179 113 1073.21415736 112.845071089 c 0,14,15
 967 113 967 113 908.628860365 134.618681544 c 0,16,17
 850 156 850 156 810.8125 199.87890625 c 0,18,19
 729 289 729 289 745.158203125 499.904296875 c 0,20,21
 756 649 756 649 823.854492188 722.9140625 c 0,22,23
 914 823 914 823 1091.63378906 819.752929688 c 0,24,25
 1426 813 1426 813 1419.74023438 405.129882812 c 0,26,27
 1418 290 1418 290 1419.29101562 235.364257812 c 1,28,-1
 1419.29101562 102.936523438 l 1,29,-1
 1418.84570312 62.7587890625 l 2,30,31
 1413.00184132 -485.827148519 1413.00184132 -485.827148519 837.006835938 -482.715820312 c 2,32,-1
 728.533203125 -482.129882812 l 1,33,-1
 701.186523438 -482.129882812 l 2,0,1
1243.72363281 307.079101562 m 1,34,35
 1252.62857838 521.115272456 1252.62857838 521.115272456 1214.2257888 584.481167785 c 128,-1,36
 1175.82299922 647.847063113 1175.82299922 647.847063113 1078.63024961 645.122262025 c 128,-1,37
 981.4375 642.397460938 981.4375 642.397460938 940.875 591.872070312 c 128,-1,38
 900.313476562 541.34765625 900.313476562 541.34765625 902.885253906 449.772460938 c 128,-1,39
 905.45703125 358.197265625 905.45703125 358.197265625 951.267578125 327.950195312 c 0,40,41
 1021.08398438 282.68359375 1021.08398438 282.68359375 1243.72363281 307.079101562 c 1,34,35
EndSplineSet
Substitution2: "'init' Initial Forms in Arabic lookup 13 subtable" uni066F.init
Substitution2: "'medi' Medial Forms in Arabic lookup 11 subtable" uni066F.medi
Substitution2: "'fina' Terminal Forms in Arabic lookup 9 subtable" uni066F.fina
EndChar

StartChar: uni0670
Encoding: 1648 1648 77
Width: 11
VWidth: 2553
GlyphClass: 4
Flags: W
AnchorPoint: "Anchor-10" 648 1490.29 mark 0
AnchorPoint: "Anchor-9" 648 1490.29 mark 0
AnchorPoint: "Anchor-1" 648 2306.6 basemark 0
AnchorPoint: "Anchor-1" 648 1490.29 mark 0
LayerCount: 2
Fore
SplineSet
604.571289062 1557.38378906 m 1,0,-1
 604.571289062 2239.51757812 l 1,1,-1
 691.427734375 2239.51757812 l 1,2,-1
 691.427734375 1557.38378906 l 1,3,-1
 604.571289062 1557.38378906 l 1,0,-1
EndSplineSet
EndChar

StartChar: uni0674
Encoding: 1652 1652 78
Width: 759
VWidth: 2553
GlyphClass: 2
Flags: W
LayerCount: 2
Fore
SplineSet
161.505859375 1776.52950978 m 1,0,-1
 270.56497862 1801.69567833 l 1,1,2
 191.312836495 1849.16582598 191.312836495 1849.16582598 172.381282354 1919.10907815 c 0,3,4
 164.018554688 1950.00545176 164.018554688 1950.00545176 164.018554688 1987.76855469 c 0,5,6
 164.018554688 2094.06684219 164.018554688 2094.06684219 274.772771049 2157.04509995 c 0,7,8
 358.806517726 2204.83066316 358.806517726 2204.83066316 475.813643022 2180.37203311 c 0,9,10
 513.626878425 2172.4668954 513.626878425 2172.4668954 559.309570312 2148.38523232 c 1,11,-1
 559.309570312 2033.42906726 l 1,12,-1
 538.625357903 2041.89900083 l 2,13,14
 454.979227824 2076.15107439 454.979227824 2076.15107439 401.819890011 2070.87784069 c 0,15,16
 281.959667371 2058.65963895 281.959667371 2058.65963895 275.441453037 1984.07374436 c 0,17,18
 267.34161342 1890.27611411 267.34161342 1890.27611411 395.855011189 1851.35484206 c 0,19,20
 437.634541264 1841.57748047 437.634541264 1841.57748047 585.682617188 1873.77048489 c 1,21,-1
 585.682617188 1752.89747923 l 1,22,-1
 161.505859375 1657.66927849 l 1,23,-1
 161.505859375 1776.52950978 l 1,0,-1
EndSplineSet
EndChar

StartChar: uni06A1
Encoding: 1697 1697 82
Width: 1938
VWidth: 2553
GlyphClass: 2
Flags: W
AnchorPoint: "Anchor-10" 494.245 1207.49 basechar 0
AnchorPoint: "Anchor-7" 511.19 -185.02 basechar 0
LayerCount: 2
Fore
SplineSet
269.311523438 452.4453125 m 2,0,1
 269.311523438 189.109375 269.311523438 189.109375 466.877929688 189.109375 c 2,2,-1
 995.229492188 189.109375 l 1,3,-1
 1285.04296875 189.426757812 l 2,4,5
 1645.76198559 189.999622005 1645.76198559 189.999622005 1658.82714844 338.044921875 c 6,6,-1
 1661.55078125 368.907226562 l 5,7,-1
 1485.65039062 368.90234375 l 6,8,9
 1343 369 1343 369 1248.90136719 457.727539062 c 4,10,11
 1155 547 1155 547 1172.25878906 755.54296875 c 4,12,13
 1184 891 1184 891 1251.94042969 965.959960938 c 4,14,15
 1354 1078 1354 1078 1518.74804688 1075.39453125 c 4,16,17
 1823 1070 1823 1070 1838.55566406 796.522460938 c 4,18,19
 1847.05538004 644.006278325 1847.05538004 644.006278325 1846.97460938 620.380859375 c 6,20,-1
 1846.97070312 619.23828125 l 6,21,22
 1846.39257812 619.096367266 1846.39257812 619.096367266 1846.39257812 491.1484375 c 6,23,-1
 1846.39257812 353.82421875 l 6,24,25
 1845.99952427 -2.431188504 1845.99952427 -2.431188504 1328.48925781 -1.06640625 c 2,26,-1
 995.217773438 -0.1875 l 1,27,-1
 462.358398438 -0.1875 l 2,28,29
 90.5577017441 0.000223318959456 90.5577017441 0.000223318959456 90.5556640625 441.885742188 c 2,30,-1
 90.5546875 653.66015625 l 1,31,-1
 269.311523438 653.66015625 l 1,32,-1
 269.311523438 452.4453125 l 2,0,1
1670.84570312 562.7265625 m 5,33,34
 1679 777 1679 777 1642.78808594 836.51171875 c 4,35,36
 1607 896 1607 896 1520.47558594 900.19921875 c 4,37,38
 1346 909 1346 909 1330.94921875 718.870117188 c 4,39,40
 1323 620 1323 620 1378.32324219 583.62109375 c 4,41,42
 1448 538 1448 538 1670.84570312 562.7265625 c 5,33,34
EndSplineSet
Substitution2: "'init' Initial Forms in Arabic lookup 13 subtable" uni06A1.init
Substitution2: "'medi' Medial Forms in Arabic lookup 11 subtable" uni06A1.medi
Substitution2: "'fina' Terminal Forms in Arabic lookup 9 subtable" uni06A1.fina
EndChar

StartChar: uni06A9
Encoding: 1705 1705 83
Width: 1835
VWidth: 2553
GlyphClass: 2
Flags: W
AnchorPoint: "Anchor-10" 459.222 1405.6 basechar 0
AnchorPoint: "Anchor-7" 402.269 -315.044 basechar 0
LayerCount: 2
Fore
SplineSet
269.814453125 451.571289062 m 2,0,1
 269.814453125 189.170417894 269.814453125 189.170417894 467.379882812 189.200195312 c 2,2,-1
 1290.24316406 189.32421875 l 2,3,4
 1496 189 1496 189 1498.03222656 322.884765625 c 0,5,6
 1499.00427473 378.243448092 1499.00427473 378.243448092 1390.97070312 501.4140625 c 2,7,-1
 1120.18164062 810.14453125 l 2,8,9
 1065 873 1065 873 1039.05890712 907.905326741 c 0,10,11
 1015 941 1015 941 1018.18505859 990.559570312 c 0,12,13
 1028.01672871 1120.2206199 1028.01672871 1120.2206199 1136.60058594 1159.90332031 c 2,14,-1
 1783.82421875 1396.43554688 l 1,15,-1
 1783.82421875 1212.04296875 l 1,16,-1
 1195 1000 l 5,17,-1
 1527.74902344 624.4921875 l 6,18,19
 1678 455 1678 455 1659.39968583 286.843280138 c 0,20,21
 1642 136 1642 136 1518.88769531 53.8486328125 c 0,22,23
 1438.01668205 0.0111055880768 1438.01668205 0.0111055880768 1338.75 0 c 2,24,-1
 474.583984375 -0.0966796875 l 2,25,26
 91.0596366593 -1.5030723489e-05 91.0596366593 -1.5030723489e-05 91.0576171875 441.977539062 c 2,27,-1
 91.056640625 655.706054688 l 1,28,-1
 269.814453125 654.703125 l 1,29,-1
 269.814453125 451.571289062 l 2,0,1
EndSplineSet
Substitution2: "'init' Initial Forms in Arabic lookup 13 subtable" uniFB90
Substitution2: "'medi' Medial Forms in Arabic lookup 11 subtable" uniFB91
Substitution2: "'fina' Terminal Forms in Arabic lookup 9 subtable" uniFB8F
EndChar

StartChar: afii57514
Encoding: 1722 1722 85
Width: 1462
VWidth: 2553
GlyphClass: 2
Flags: W
AnchorPoint: "Anchor-10" 587.158 925.159 basechar 0
AnchorPoint: "Anchor-7" 691.132 -706.307 basechar 0
LayerCount: 2
Fore
SplineSet
91 446 m 5,0,-1
 269.877929688 446.033203125 l 1,1,-1
 269.877929688 104.58984375 l 2,2,3
 270.000051363 -283.163085938 270.000051363 -283.163085938 723.842773438 -283.163085938 c 2,4,-1
 765.5234375 -283.163085938 l 1,5,-1
 807.290039062 -282.572265625 l 2,6,7
 1189.11304917 -276.998349689 1189.11304917 -276.998349689 1188.84277344 108.697265625 c 2,8,-1
 1188.49511719 604.818359375 l 1,9,-1
 1369.94726562 604.911132812 l 1,10,-1
 1369.94726562 99.310546875 l 2,11,12
 1369.9999804 -461.791401513 1369.9999804 -461.791401513 798.567382812 -471.874023438 c 2,13,-1
 765.359375 -472.459960938 l 1,14,-1
 721.671875 -472.459960938 l 2,15,16
 91.3244880471 -472.000236655 91.3244880471 -472.000236655 91.12109375 103.416992188 c 2,17,-1
 91 446 l 5,0,-1
EndSplineSet
Substitution2: "'init' Initial Forms in Arabic lookup 13 subtable" uni06BA.init
Substitution2: "'medi' Medial Forms in Arabic lookup 11 subtable" uni06BA.medi
Substitution2: "'fina' Terminal Forms in Arabic lookup 9 subtable" uniFB9F
EndChar

StartChar: uni06F4
Encoding: 1780 1780 92
Width: 1200
VWidth: 2553
GlyphClass: 2
Flags: W
LayerCount: 2
Fore
SplineSet
999 1220 m 1,0,1
 879 1250 879 1250 799.154296875 1250.19628906 c 0,2,3
 692 1250 692 1250 623.9375 1180.1015625 c 0,4,5
 550 1106 550 1106 550 998 c 0,6,7
 550 846 550 846 776.876953125 844.430664062 c 0,8,9
 846 844 846 844 1047.50976562 873.73828125 c 1,10,-1
 1050 713 l 1,11,12
 638 618 638 618 460.185546875 776 c 1,13,14
 503 578 503 578 506.03515625 3.9091796875 c 1,15,-1
 321.0546875 3.9091796875 l 1,16,17
 318 829 318 829 154.185546875 1342 c 1,18,-1
 332.185546875 1391 l 1,19,20
 368 1235 368 1235 404.185546875 1079 c 1,21,22
 472 1398 472 1398 773.14453125 1409.70410156 c 0,23,24
 861 1413 861 1413 999 1373.41113281 c 1,25,-1
 999 1220 l 1,0,1
EndSplineSet
EndChar

StartChar: uni06F5
Encoding: 1781 1781 93
Width: 1250
VWidth: 2553
GlyphClass: 2
Flags: W
LayerCount: 2
Fore
SplineSet
421.6796875 199.653320312 m 0,0,1
 554 201 554 201 575.43359375 418.513671875 c 1,2,-1
 688.314453125 418.513671875 l 5,3,4
 698 199 698 199 859.109340036 195.567435584 c 0,5,6
 1006.33427712 193.4653975 1006.33427712 193.4653975 1006.33427712 346.813034484 c 4,7,8
 1006.33427712 408.759367775 1006.33427712 408.759367775 979.516601562 496.103515625 c 0,9,10
 902 751 902 751 627.676757812 1043.47851562 c 1,11,12
 362 736 362 736 280.034179688 490.849609375 c 0,13,14
 251.311672222 405.342160739 251.311672222 405.342160739 251.311672222 344.941376906 c 0,15,16
 251.311672222 199.631168787 251.311672222 199.631168787 417.549345381 199.631168787 c 0,17,18
 419.601845555 199.631168787 419.601845555 199.631168787 421.6796875 199.653320312 c 0,0,1
387.313476562 -0.4072265625 m 0,19,20
 80.0682309978 0.0257754036165 80.0682309978 0.0257754036165 80.0682309978 308.868410491 c 0,21,22
 80.0682309978 663.343202799 80.0682309978 663.343202799 515.501953125 1162.52148438 c 1,23,24
 489.556640625 1190 489.556640625 1190 464.76953125 1216.52148438 c 1,25,-1
 586.76953125 1357.52148438 l 1,26,27
 588.958007812 1347.87988281 588.958007812 1347.87988281 679.522460938 1253.90722656 c 0,28,29
 1169.93255834 739.603368781 1169.93255834 739.603368781 1169.93255834 355.603525393 c 0,30,31
 1169.93255834 323.794145213 1169.93255834 323.794145213 1166.56738281 292.87890625 c 0,32,33
 1136.23595135 0.0216434690451 1136.23595135 0.0216434690451 861.362409812 0.0216434690473 c 0,34,35
 687.771186479 0.0216434690473 687.771186479 0.0216434690473 631.713867188 155.643554688 c 2,36,-1
 626.650390625 169.700195312 l 1,37,-1
 621.579101562 155.646484375 l 2,38,39
 565.556640625 0 565.556640625 0 387.313476562 -0.4072265625 c 0,19,20
EndSplineSet
EndChar

StartChar: uni06F6
Encoding: 1782 1782 94
Width: 1053
VWidth: 2553
GlyphClass: 2
Flags: W
LayerCount: 2
Fore
SplineSet
308.875 1026.9758625 m 0,0,1
 300 867 300 867 503.89348926 836.979079498 c 0,2,3
 593 824 593 824 652.990234375 866.790039062 c 0,4,5
 733 923 733 923 813 980 c 1,6,-1
 903 822 l 1,7,8
 664 687 664 687 338 0 c 1,9,-1
 184 75 l 1,10,11
 282 299 282 299 526 678 c 1,12,13
 188 701 188 701 150.52734375 949 c 0,14,15
 146 979 146 979 145.846700909 1021.65673144 c 0,16,17
 146 1180 146 1180 244 1288 c 0,18,19
 336 1389 336 1389 498 1395.28320312 c 0,20,21
 635 1401 635 1401 719.52734375 1350.57324219 c 1,22,-1
 718.52734375 1195 l 1,23,24
 648 1231 648 1231 559.4921875 1239.3515625 c 0,25,26
 488 1246 488 1246 429 1219.28320312 c 0,27,28
 317 1168 317 1168 308.875 1026.9758625 c 0,0,1
EndSplineSet
EndChar

StartChar: uniFB8F
Encoding: 64399 64399 109
Width: 2038
VWidth: 2553
GlyphClass: 2
Flags: W
AnchorPoint: "Anchor-7" 443.692 -290.794 basechar 0
AnchorPoint: "Anchor-10" 475.382 1372.92 basechar 0
LayerCount: 2
Fore
SplineSet
268.984375 452.541015625 m 2,0,1
 268.984375 189.171270888 268.984375 189.171270888 466.549804688 189.200195312 c 2,2,-1
 1313.6796875 189.32421875 l 2,3,4
 1521 189 1521 189 1521.46875 322.875976562 c 0,5,6
 1521.99761105 378.747618652 1521.99761105 378.747618652 1414.40625 501.4140625 c 2,7,-1
 1143.6171875 810.14453125 l 2,8,9
 1092 869 1092 869 1063.90625 906.204589844 c 0,10,11
 1038 941 1038 941 1041.67871094 990.883300781 c 0,12,13
 1051.96389319 1121.54131645 1051.96389319 1121.54131645 1160.0390625 1160.875 c 2,14,-1
 1807.26074219 1396.4296875 l 1,15,-1
 1807.26074219 1212.04296875 l 1,16,-1
 1219.98144531 997.08203125 l 5,17,-1
 1808.77246094 330.063476562 l 2,18,19
 1933.20700981 189.766601562 1933.20700981 189.766601562 2023.13378906 189.766601562 c 2,20,-1
 2050.73828125 189.766601562 l 1,21,-1
 2050.73828125 0.5859375 l 1,22,-1
 2030.12792969 0.5859375 l 2,23,24
 1828 1 1828 1 1670.29882812 220.591796875 c 1,25,26
 1596.00857029 0.0254450251643 1596.00857029 0.0254450251643 1362.18652344 0 c 2,27,-1
 473.767578125 -0.0966796875 l 2,28,29
 90.2295495594 -5.78281776598e-05 90.2295495594 -5.78281776598e-05 90.2275390625 441.977539062 c 2,30,-1
 90.2265625 656.66015625 l 1,31,-1
 268.984375 656.66015625 l 1,32,-1
 268.984375 452.541015625 l 2,0,1
EndSplineSet
EndChar

StartChar: uniFB9F
Encoding: 64415 64415 117
Width: 1610
VWidth: 2553
GlyphClass: 2
Flags: W
AnchorPoint: "Anchor-10" 322.402 799.573 basechar 0
AnchorPoint: "Anchor-7" 282.474 -702.176 basechar 0
LayerCount: 2
Fore
SplineSet
91 446 m 1,0,-1
 269.877929688 446.033203125 l 1,1,-1
 269.877929688 44.44921875 l 2,2,3
 269.999863601 -267.650874491 269.999863601 -267.650874491 635.272460938 -267.643554688 c 2,4,-1
 684.004882812 -267.642578125 l 1,5,-1
 757.385742188 -267.053710938 l 2,6,7
 1146.35745237 -263.997191158 1146.35745237 -263.997191158 1146.16210938 48.5576171875 c 2,8,-1
 1145.81445312 604.818359375 l 1,9,-1
 1327.26757812 604.911132812 l 1,10,-1
 1327.26757812 419.294921875 l 2,11,12
 1326.99965166 188.700195312 1326.99965166 188.700195312 1556.40722656 188.700195312 c 2,13,-1
 1624.953125 188.700195312 l 1,14,-1
 1624.953125 -0.48046875 l 1,15,-1
 1487.31738281 -0.48046875 l 2,16,17
 1409 -0 1409 -0 1322.57128906 90.068359375 c 1,18,-1
 1322.57128906 43.86328125 l 2,19,20
 1323.0001143 -451.131938882 1323.0001143 -451.131938882 748.819335938 -456.350585938 c 2,21,-1
 683.921875 -456.940429688 l 1,22,-1
 633.1015625 -456.940429688 l 2,23,24
 91.12109375 -456.999986693 91.12109375 -456.999986693 91.12109375 43.2763671875 c 2,25,-1
 91 446 l 1,0,-1
EndSplineSet
EndChar

StartChar: uniFBE8
Encoding: 64488 64488 120
Width: 678
VWidth: 2553
GlyphClass: 2
Flags: W
AnchorPoint: "Anchor-10" 379.938 1220.35 basechar 0
AnchorPoint: "Anchor-7" 417.497 -142.32 basechar 0
LayerCount: 2
Fore
SplineSet
586.322265625 410.48828125 m 2,0,1
 586.322265625 -1.06640625 586.322265625 -1.06640625 242.688476562 -1.06640625 c 2,2,-1
 -12.53515625 -1.06640625 l 1,3,-1
 -12.53515625 188.23046875 l 1,4,-1
 227.59765625 188.23046875 l 2,5,6
 407.56640625 188.000553927 407.56640625 188.000553927 407.56640625 404.623046875 c 2,7,-1
 407.56640625 690.689453125 l 5,8,-1
 586.322265625 690.689453125 l 5,9,-1
 586.322265625 410.48828125 l 2,0,1
EndSplineSet
EndChar

StartChar: uniFBE9
Encoding: 64489 64489 121
Width: 877
VWidth: 2553
GlyphClass: 2
Flags: W
AnchorPoint: "Anchor-10" 369.939 1126.45 basechar 0
AnchorPoint: "Anchor-7" 348.812 -147.016 basechar 0
LayerCount: 2
Fore
SplineSet
597.15625 397.380859375 m 2,0,1
 597.15625 188.23046875 597.15625 188.23046875 860.405273438 188.23046875 c 2,2,-1
 886.2265625 188.23046875 l 1,3,-1
 886.2265625 -1.06640625 l 1,4,-1
 791.33203125 -1.06640625 l 2,5,6
 623.334827152 -1.00013208785 623.334827152 -1.00013208785 522.625976562 108.619140625 c 2,7,-1
 503.498046875 129.439453125 l 1,8,-1
 484.634765625 108.375976562 l 2,9,10
 386.940722279 -1.06640625 386.940722279 -1.06640625 216.1484375 -1.06640625 c 2,11,-1
 -8.55859375 -1.06640625 l 1,12,-1
 -8.55859375 188.23046875 l 1,13,-1
 161.162109375 188.23046875 l 2,14,15
 412.671875 188.000300283 412.671875 188.000300283 412.671875 397.358398438 c 2,16,-1
 412.671875 651.372070312 l 5,17,-1
 597.15625 651.372070312 l 5,18,-1
 597.15625 397.380859375 l 2,0,1
EndSplineSet
EndChar

StartChar: uniFE73
Encoding: 65139 65139 129
Width: 683
VWidth: 2553
GlyphClass: 2
Flags: W
AnchorPoint: "Anchor-10" 252.404 1490.29 basechar 0
AnchorPoint: "Anchor-7" 252.404 -142.32 basechar 0
LayerCount: 2
Fore
SplineSet
342.298828125 400.2109375 m 2,0,1
 342.298828125 320.515620792 342.298828125 320.515620792 408.206542969 254.607908052 c 128,-1,2
 474.114257812 188.700195312 474.114257812 188.700195312 609.067382812 188.700195312 c 2,3,-1
 677.61328125 188.700195312 l 1,4,-1
 677.61328125 8.9091796875 l 1,5,-1
 539.997070312 8.9091796875 l 2,6,7
 372.288085938 8.9091796875 372.288085938 8.9091796875 267.398925781 113.798339844 c 128,-1,8
 162.509765625 218.6875 162.509765625 218.6875 162.509765625 385.141601562 c 2,9,-1
 162.509765625 413.498046875 l 1,10,-1
 342.298828125 413.498046875 l 1,11,-1
 342.298828125 400.2109375 l 2,0,1
EndSplineSet
EndChar

StartChar: uniFE8E
Encoding: 65166 65166 155
Width: 551
VWidth: 2553
GlyphClass: 2
Flags: W
AnchorPoint: "Anchor-10" 250.923 1573.04 basechar 0
AnchorPoint: "Anchor-7" 265.009 -292.554 basechar 0
LayerCount: 2
Fore
SplineSet
336.448242188 426.135742188 m 2,0,1
 336.448242188 188.314453125 336.448242188 188.314453125 534.014648438 188.23046875 c 2,2,-1
 559.901367188 188.23046875 l 1,3,-1
 559.901367188 -1.06640625 l 1,4,-1
 541.231445312 -1.06640625 l 2,5,6
 159.150390625 -0.96875 159.150390625 -0.96875 157.69140625 417.251953125 c 1,7,-1
 157.69140625 1387.18847656 l 1,8,-1
 336.448242188 1387.18847656 l 1,9,-1
 336.448242188 426.135742188 l 2,0,1
EndSplineSet
EndChar

StartChar: uniFEA2
Encoding: 65186 65186 175
Width: 1398
VWidth: 2553
GlyphClass: 2
Flags: W
AnchorPoint: "Anchor-10" 677.761 1461.94 basechar 0
AnchorPoint: "Anchor-7" 481.334 -893.653 basechar 0
LayerCount: 2
Fore
SplineSet
1096.19238281 540.9140625 m 1,0,1
 1075.62958393 188.698242188 1075.62958393 188.698242188 1362.16308594 188.698242188 c 2,2,-1
 1410.23925781 188.698242188 l 1,3,-1
 1410.23925781 -0.48046875 l 1,4,-1
 1390.75683594 -0.48046875 l 2,5,6
 957.384765625 0.0009765625 957.384765625 0.0009765625 962.251953125 506.017578125 c 1,7,8
 942.57421875 499.7890625 942.57421875 499.7890625 924.163085938 492.828125 c 0,9,10
 273.704101562 253.080078125 273.704101562 253.080078125 259.197265625 -138.993164062 c 0,11,12
 258.685546875 -151.98046875 258.685546875 -151.98046875 258.688476562 -164.580078125 c 0,13,14
 258.776367188 -578.502929688 258.776367188 -578.502929688 815.350585938 -578.172851562 c 2,15,-1
 1243.33007812 -577.918945312 l 1,16,-1
 1243.33007812 -755.474609375 l 1,17,-1
 802.448242188 -754.58203125 l 2,18,19
 414.10546875 -753.6875 414.10546875 -753.6875 246.189453125 -593.541015625 c 0,20,21
 78.5751953125 -432.787109375 78.5751953125 -432.787109375 90.900390625 -143.78515625 c 0,22,23
 115.363749702 429.833222532 115.363749702 429.833222532 958.24609375 656.2578125 c 1,24,25
 825.731965745 704.588097009 825.731965745 704.588097009 685.812271935 749.007915692 c 128,-1,26
 545.892578125 793.427734375 545.892578125 793.427734375 458.603515625 787.379882812 c 0,27,28
 360.120803457 780.97617799 360.120803457 780.97617799 284.330078125 607.740234375 c 1,29,-1
 141.774414062 661.458007812 l 1,30,31
 172.102307402 739.672048529 172.102307402 739.672048529 197.836914062 787.520507812 c 0,32,33
 309.475585938 999.7109375 309.475585938 999.7109375 555.333984375 949.15234375 c 0,34,35
 646.87890625 930.71875 646.87890625 930.71875 860.8359375 850.345703125 c 2,36,-1
 1225.26367188 713.450195312 l 1,37,-1
 1225.18945312 559.201171875 l 1,38,39
 1158.33742381 553.067078863 1158.33742381 553.067078863 1096.19238281 540.9140625 c 1,0,1
EndSplineSet
EndChar

StartChar: uniFEA3
Encoding: 65187 65187 176
Width: 1292
VWidth: 2553
GlyphClass: 2
Flags: W
AnchorPoint: "Anchor-10" 490.912 1239.39 basechar 0
AnchorPoint: "Anchor-7" 425.185 -293.728 basechar 0
LayerCount: 2
Fore
SplineSet
-8.55859375 -1.06640625 m 1,0,-1
 -8.55859375 188.235351562 l 1,1,-1
 1032.43164062 188.731445312 l 1,2,-1
 1011.99902344 206.87109375 l 2,3,4
 850.032226562 350.669921875 850.032226562 350.669921875 739.476074219 458.124023438 c 128,-1,5
 628.919921875 565.578125 628.919921875 565.578125 583.341796875 591.01953125 c 0,6,7
 462.990234375 658.197265625 462.990234375 658.197265625 350.345703125 575.473632812 c 0,8,9
 293.535206215 533.749214314 293.535206215 533.749214314 226.750976562 457.03125 c 1,10,-1
 94.3720703125 569.143554688 l 1,11,12
 145.040273391 635.904669994 145.040273391 635.904669994 232.638716369 720.191699175 c 128,-1,13
 320.237159347 804.478728356 320.237159347 804.478728356 471.608398438 805.62109375 c 128,-1,14
 622.983398438 806.762695312 622.983398438 806.762695312 855.951171875 588.268554688 c 0,15,16
 1043.06434869 411.368273678 1043.06434869 411.368273678 1218.51464844 246.604492188 c 5,17,18
 1179 40 1179 40 981.0859375 -1.07421875 c 1,19,-1
 -8.55859375 -1.06640625 l 1,0,-1
EndSplineSet
EndChar

StartChar: uniFEA4
Encoding: 65188 65188 177
Width: 1378
VWidth: 2553
GlyphClass: 2
Flags: W
AnchorPoint: "Anchor-10" 454.527 1219.29 basechar 0
AnchorPoint: "Anchor-7" 494.433 -291.487 basechar 0
LayerCount: 2
Fore
SplineSet
1359.07324219 0 m 2,0,1
 1214.7960584 0 1214.7960584 0 1108.25 95.8076171875 c 1,2,3
 1019.11621094 -4.2109375 1019.11621094 -4.2109375 891.434570312 0 c 1,4,-1
 -8.55859375 0 l 1,5,-1
 -8.55859375 188.235351562 l 1,6,-1
 1032.43066406 188.73046875 l 1,7,-1
 1012.00585938 206.865234375 l 1,8,9
 833.434570312 366.760742188 833.434570312 366.760742188 731.16796875 466.123046875 c 0,10,11
 551.268554688 640.916992188 551.268554688 640.916992188 455.91015625 626.359863281 c 128,-1,12
 360.526607003 611.798894927 360.526607003 611.798894927 226.74609375 457.033203125 c 1,13,-1
 94.373046875 569.143554688 l 1,14,15
 144.908376442 635.758307299 144.908376442 635.758307299 238.709071034 726.416263025 c 128,-1,16
 332.509765625 817.07421875 332.509765625 817.07421875 471.0390625 811.4765625 c 1,17,18
 618.732421875 819.97265625 618.732421875 819.97265625 855.862304688 588.3515625 c 2,19,-1
 1218.39160156 234.245117188 l 2,20,21
 1264.55078125 189.255859375 1264.55078125 189.255859375 1303.06835938 189.09765625 c 2,22,-1
 1385.17773438 188.76171875 l 1,23,-1
 1385.17871094 0 l 5,24,-1
 1359.07324219 0 l 2,0,1
EndSplineSet
EndChar

StartChar: uniFEAA
Encoding: 65194 65194 183
Width: 1197
VWidth: 2553
GlyphClass: 2
Flags: W
AnchorPoint: "Anchor-10" 362.389 1316.77 basechar 0
AnchorPoint: "Anchor-7" 293.739 -286.099 basechar 0
LayerCount: 2
Fore
SplineSet
1156.35644531 -0.48046875 m 1,0,1
 979 1 979 1 830.790039062 150.499023438 c 1,2,3
 743 15 743 15 521.64453125 -1.0712890625 c 1,4,-1
 50.8994140625 -1.0615234375 l 1,5,-1
 50.8994140625 188.301757812 l 1,6,-1
 318.596679688 188.223632812 l 1,7,8
 546 186 546 186 613.767578125 214.483398438 c 0,9,10
 712 255 712 255 662.783203125 369.87890625 c 0,11,12
 646.795898438 406.465820312 646.795898438 406.465820312 567.106445312 499.20703125 c 2,13,-1
 298.762695312 811.498046875 l 1,14,-1
 429.588867188 941.270507812 l 1,15,-1
 881.110351562 385.129882812 l 2,16,17
 1038.90039062 190.124023438 1038.90039062 190.124023438 1184.41015625 189.059570312 c 2,18,-1
 1214.18945312 188.841796875 l 1,19,-1
 1214.18945312 -0.48046875 l 1,20,-1
 1156.35644531 -0.48046875 l 1,0,1
EndSplineSet
EndChar

StartChar: uniFEAE
Encoding: 65198 65198 187
Width: 883
VWidth: 2553
GlyphClass: 2
Flags: W
AnchorPoint: "Anchor-10" 390.643 948.634 basechar 0
AnchorPoint: "Anchor-7" 274.358 -757.397 basechar 0
LayerCount: 2
Fore
SplineSet
667.383789062 -17.318359375 m 2,0,1
 667.815095517 -523.683794267 667.815095517 -523.683794267 125.353515625 -523.412109375 c 2,2,-1
 21.8974609375 -523.360351562 l 1,3,-1
 21.900390625 -335.196289062 l 1,4,-1
 120.57421875 -335.265625 l 2,5,6
 480.78697175 -335.611395054 480.78697175 -335.611395054 481.584960938 -18.5009765625 c 2,7,-1
 481.584960938 548.626953125 l 1,8,-1
 666.209960938 549.68359375 l 1,9,-1
 666.209960938 345.16015625 l 1,10,11
 672.33984375 188.23046875 672.33984375 188.23046875 872.923828125 188.23046875 c 2,12,-1
 895.022460938 188.23046875 l 1,13,-1
 895.022460938 -1.06640625 l 1,14,-1
 871.923828125 -1.06640625 l 2,15,16
 740.103265532 -0.972546208102 740.103265532 -0.972546208102 667.3828125 78.0068359375 c 1,17,-1
 667.383789062 -17.318359375 l 2,0,1
EndSplineSet
PairPos2: "'kern' Horizontal Kerning lookup 15-1" uniFEFB dx=-142 dy=0 dh=-142 dv=0 [ddx={} ddy={} ddh={} ddv={}] dx=0 dy=0 dh=0 dv=0 [ddx={} ddy={} ddh={} ddv={}]
PairPos2: "'kern' Horizontal Kerning lookup 15-1" uniFEDF dx=-142 dy=0 dh=-142 dv=0 [ddx={} ddy={} ddh={} ddv={}] dx=0 dy=0 dh=0 dv=0 [ddx={} ddy={} ddh={} ddv={}]
PairPos2: "'kern' Horizontal Kerning lookup 15-1" uni062F dx=-142 dy=0 dh=-142 dv=0 [ddx={} ddy={} ddh={} ddv={}] dx=0 dy=0 dh=0 dv=0 [ddx={} ddy={} ddh={} ddv={}]
PairPos2: "'kern' Horizontal Kerning lookup 15-2" uniFB90 dx=-142 dy=0 dh=-142 dv=0 dx=0 dy=0 dh=0 dv=0
PairPos2: "'kern' Horizontal Kerning lookup 15-2" uniFB8E dx=-142 dy=0 dh=-142 dv=0 dx=0 dy=0 dh=0 dv=0
PairPos2: "'kern' Horizontal Kerning lookup 15-2" uni06A9 dx=-142 dy=0 dh=-142 dv=0 dx=0 dy=0 dh=0 dv=0
PairPos2: "'kern' Horizontal Kerning lookup 15-2" uni064A dx=-47 dy=0 dh=-47 dv=0 dx=0 dy=0 dh=0 dv=0
PairPos2: "'kern' Horizontal Kerning lookup 15-2" uni0649 dx=-47 dy=0 dh=-47 dv=0 dx=0 dy=0 dh=0 dv=0
PairPos2: "'kern' Horizontal Kerning lookup 15-2" uni0648 dx=-47 dy=0 dh=-47 dv=0 dx=0 dy=0 dh=0 dv=0
PairPos2: "'kern' Horizontal Kerning lookup 15-2" uniFEEB dx=-142 dy=0 dh=-142 dv=0 dx=0 dy=0 dh=0 dv=0
PairPos2: "'kern' Horizontal Kerning lookup 15-2" uni0647 dx=-142 dy=0 dh=-142 dv=0 dx=0 dy=0 dh=0 dv=0
PairPos2: "'kern' Horizontal Kerning lookup 15-2" uniFEE7 dx=-142 dy=0 dh=-142 dv=0 dx=0 dy=0 dh=0 dv=0
PairPos2: "'kern' Horizontal Kerning lookup 15-2" uni0646 dx=-47 dy=0 dh=-47 dv=0 dx=0 dy=0 dh=0 dv=0
PairPos2: "'kern' Horizontal Kerning lookup 15-2" uniFEE3 dx=-142 dy=0 dh=-142 dv=0 dx=0 dy=0 dh=0 dv=0
PairPos2: "'kern' Horizontal Kerning lookup 15-2" uni0645 dx=-142 dy=0 dh=-142 dv=0 dx=0 dy=0 dh=0 dv=0
PairPos2: "'kern' Horizontal Kerning lookup 15-2" uni0644 dx=-47 dy=0 dh=-47 dv=0 dx=0 dy=0 dh=0 dv=0
PairPos2: "'kern' Horizontal Kerning lookup 15-2" uniFEDB dx=-142 dy=0 dh=-142 dv=0 dx=0 dy=0 dh=0 dv=0
PairPos2: "'kern' Horizontal Kerning lookup 15-2" uni0643 dx=-142 dy=0 dh=-142 dv=0 dx=0 dy=0 dh=0 dv=0
PairPos2: "'kern' Horizontal Kerning lookup 15-2" uniFED7 dx=-142 dy=0 dh=-142 dv=0 dx=0 dy=0 dh=0 dv=0
PairPos2: "'kern' Horizontal Kerning lookup 15-2" uni0642 dx=-47 dy=0 dh=-47 dv=0 dx=0 dy=0 dh=0 dv=0
PairPos2: "'kern' Horizontal Kerning lookup 15-2" uniFED3 dx=-142 dy=0 dh=-142 dv=0 dx=0 dy=0 dh=0 dv=0
PairPos2: "'kern' Horizontal Kerning lookup 15-2" uni0641 dx=-142 dy=0 dh=-142 dv=0 dx=0 dy=0 dh=0 dv=0
PairPos2: "'kern' Horizontal Kerning lookup 15-2" uniFECF dx=-142 dy=0 dh=-142 dv=0 dx=0 dy=0 dh=0 dv=0
PairPos2: "'kern' Horizontal Kerning lookup 15-2" uniFECB dx=-142 dy=0 dh=-142 dv=0 dx=0 dy=0 dh=0 dv=0
PairPos2: "'kern' Horizontal Kerning lookup 15-2" uniFEC7 dx=-142 dy=0 dh=-142 dv=0 dx=0 dy=0 dh=0 dv=0
PairPos2: "'kern' Horizontal Kerning lookup 15-2" uni0638 dx=-142 dy=0 dh=-142 dv=0 dx=0 dy=0 dh=0 dv=0
PairPos2: "'kern' Horizontal Kerning lookup 15-2" uniFEC3 dx=-142 dy=0 dh=-142 dv=0 dx=0 dy=0 dh=0 dv=0
PairPos2: "'kern' Horizontal Kerning lookup 15-2" uni0637 dx=-142 dy=0 dh=-142 dv=0 dx=0 dy=0 dh=0 dv=0
PairPos2: "'kern' Horizontal Kerning lookup 15-2" uniFEBF dx=-142 dy=0 dh=-142 dv=0 dx=0 dy=0 dh=0 dv=0
PairPos2: "'kern' Horizontal Kerning lookup 15-2" uni0636 dx=-142 dy=0 dh=-142 dv=0 dx=0 dy=0 dh=0 dv=0
PairPos2: "'kern' Horizontal Kerning lookup 15-2" uniFEBB dx=-142 dy=0 dh=-142 dv=0 dx=0 dy=0 dh=0 dv=0
PairPos2: "'kern' Horizontal Kerning lookup 15-2" uni0635 dx=-142 dy=0 dh=-142 dv=0 dx=0 dy=0 dh=0 dv=0
PairPos2: "'kern' Horizontal Kerning lookup 15-2" uniFEB7 dx=-142 dy=0 dh=-142 dv=0 dx=0 dy=0 dh=0 dv=0
PairPos2: "'kern' Horizontal Kerning lookup 15-2" uni0634 dx=-142 dy=0 dh=-142 dv=0 dx=0 dy=0 dh=0 dv=0
PairPos2: "'kern' Horizontal Kerning lookup 15-2" uniFEB3 dx=-142 dy=0 dh=-142 dv=0 dx=0 dy=0 dh=0 dv=0
PairPos2: "'kern' Horizontal Kerning lookup 15-2" uni0633 dx=-142 dy=0 dh=-142 dv=0 dx=0 dy=0 dh=0 dv=0
PairPos2: "'kern' Horizontal Kerning lookup 15-2" uni0632 dx=-47 dy=0 dh=-47 dv=0 dx=0 dy=0 dh=0 dv=0
PairPos2: "'kern' Horizontal Kerning lookup 15-2" uni0631 dx=-47 dy=0 dh=-47 dv=0 dx=0 dy=0 dh=0 dv=0
PairPos2: "'kern' Horizontal Kerning lookup 15-2" uniFEA7 dx=-142 dy=0 dh=-142 dv=0 dx=0 dy=0 dh=0 dv=0
PairPos2: "'kern' Horizontal Kerning lookup 15-2" uniFEA3 dx=-142 dy=0 dh=-142 dv=0 dx=0 dy=0 dh=0 dv=0
PairPos2: "'kern' Horizontal Kerning lookup 15-2" uniFE9F dx=-142 dy=0 dh=-142 dv=0 dx=0 dy=0 dh=0 dv=0
PairPos2: "'kern' Horizontal Kerning lookup 15-2" uniFE9B dx=-142 dy=0 dh=-142 dv=0 dx=0 dy=0 dh=0 dv=0
PairPos2: "'kern' Horizontal Kerning lookup 15-2" uni062B dx=-142 dy=0 dh=-142 dv=0 dx=0 dy=0 dh=0 dv=0
PairPos2: "'kern' Horizontal Kerning lookup 15-2" uniFE97 dx=-142 dy=0 dh=-142 dv=0 dx=0 dy=0 dh=0 dv=0
PairPos2: "'kern' Horizontal Kerning lookup 15-2" uni062A dx=-142 dy=0 dh=-142 dv=0 dx=0 dy=0 dh=0 dv=0
PairPos2: "'kern' Horizontal Kerning lookup 15-2" uni0629 dx=-142 dy=0 dh=-142 dv=0 dx=0 dy=0 dh=0 dv=0
PairPos2: "'kern' Horizontal Kerning lookup 15-2" uniFE91 dx=-47 dy=0 dh=-47 dv=0 dx=0 dy=0 dh=0 dv=0
PairPos2: "'kern' Horizontal Kerning lookup 15-2" uni0628 dx=-142 dy=0 dh=-142 dv=0 dx=0 dy=0 dh=0 dv=0
PairPos2: "'kern' Horizontal Kerning lookup 15-2" uni0627 dx=-188 dy=0 dh=-188 dv=0 dx=0 dy=0 dh=0 dv=0
PairPos2: "'kern' Horizontal Kerning lookup 15-2" uni0622 dx=-188 dy=0 dh=-188 dv=0 dx=0 dy=0 dh=0 dv=0
PairPos2: "'kern' Horizontal Kerning lookup 15-2" uni0621 dx=-142 dy=0 dh=-142 dv=0 dx=0 dy=0 dh=0 dv=0
PairPos2: "'kern' Horizontal Kerning lookup 15-2" uniFB94 dx=-142 dy=0 dh=-142 dv=0 dx=0 dy=0 dh=0 dv=0
PairPos2: "'kern' Horizontal Kerning lookup 15-2" uniFB92 dx=-142 dy=0 dh=-142 dv=0 dx=0 dy=0 dh=0 dv=0
PairPos2: "'kern' Horizontal Kerning lookup 15-2" afii57509 dx=-142 dy=0 dh=-142 dv=0 dx=0 dy=0 dh=0 dv=0
PairPos2: "'kern' Horizontal Kerning lookup 15-2" afii57508 dx=-47 dy=0 dh=-47 dv=0 dx=0 dy=0 dh=0 dv=0
PairPos2: "'kern' Horizontal Kerning lookup 15-2" uniFB7C dx=-142 dy=0 dh=-142 dv=0 dx=0 dy=0 dh=0 dv=0
PairPos2: "'kern' Horizontal Kerning lookup 15-2" afii57506 dx=-142 dy=0 dh=-142 dv=0 dx=0 dy=0 dh=0 dv=0
PairPos2: "'kern' Horizontal Kerning lookup 15-2" afii57440 dx=-142 dy=0 dh=-142 dv=0 dx=0 dy=0 dh=0 dv=0
EndChar

StartChar: uniFEB2
Encoding: 65202 65202 191
Width: 2646
VWidth: 2553
GlyphClass: 2
Flags: W
AnchorPoint: "Anchor-10" 684.089 1029.03 basechar 0
AnchorPoint: "Anchor-7" 261.557 -625.885 basechar 0
LayerCount: 2
Fore
SplineSet
91.16015625 316.163085938 m 2,0,1
 91 446 l 1,2,3
 269.91796875 446.033203125 l 1,4,-1
 269.91796875 44.447265625 l 2,5,6
 270.000130801 -263.490234375 270.000130801 -263.490234375 703.396484375 -263.490234375 c 2,7,-1
 728.682617188 -263.490234375 l 1,8,-1
 756.385742188 -262.901367188 l 2,9,10
 1144.04185213 -254.999146861 1144.04185213 -254.999146861 1143.88574219 48.5576171875 c 2,11,-1
 1143.57910156 644.822265625 l 1,12,-1
 1333.88769531 644.990234375 l 1,13,-1
 1334.48339844 365.1328125 l 2,14,15
 1335 181 1335 181 1531.29003906 177.67578125 c 0,16,17
 1691.29119535 174.995121312 1691.29119535 174.995121312 1690.69042969 396.787109375 c 2,18,-1
 1689.99902344 652.041992188 l 1,19,-1
 1863.94628906 652.041992188 l 1,20,-1
 1864.58886719 390.651367188 l 2,21,22
 1865 176 1865 176 2041.46484375 178.571289062 c 0,23,24
 2192.39550781 181.016175625 2192.39550781 181.016175625 2192.39550781 411.665039062 c 2,25,-1
 2192.39550781 652.979492188 l 5,26,-1
 2371.15234375 652.979492188 l 5,27,-1
 2371.15234375 417.6484375 l 2,28,29
 2370.99980025 188.700195312 2370.99980025 188.700195312 2605.48144531 188.700195312 c 2,30,-1
 2656.71191406 188.700195312 l 1,31,-1
 2656.71191406 -0.48046875 l 1,32,-1
 2571.93945312 -0.48046875 l 2,33,34
 2372 -0 2372 -0 2289.17675781 141.09765625 c 1,35,36
 2180 -1 2180 -1 2036.41113281 -1.06640625 c 0,37,38
 1831 -1 1831 -1 1770.88378906 180.723632812 c 1,39,40
 1708 -3 1708 -3 1542.75390625 -1 c 0,41,42
 1377 1 1377 1 1320.62597656 98.7099609375 c 1,43,-1
 1320.29394531 43.9072265625 l 2,44,45
 1317.00130404 -434.810404757 1317.00130404 -434.810404757 747.471679688 -452.205078125 c 2,46,-1
 728.415039062 -452.787109375 l 1,47,-1
 701.224609375 -452.787109375 l 2,48,49
 91.16015625 -452.999944126 91.16015625 -452.999944126 91.16015625 43.2763671875 c 2,50,-1
 91.16015625 316.163085938 l 2,0,1
EndSplineSet
EndChar

StartChar: uniFEB3
Encoding: 65203 65203 192
Width: 1574
VWidth: 2553
GlyphClass: 2
Flags: W
AnchorPoint: "Anchor-10" 744.679 1113.53 basechar 0
AnchorPoint: "Anchor-7" 904.307 -327.179 basechar 0
LayerCount: 2
Fore
SplineSet
366.506835938 148.888671875 m 1,0,1
 249.948383143 -1.06640625 249.948383143 -1.06640625 88.82421875 -1.06640625 c 2,2,-1
 -12.9033203125 -1.06640625 l 1,3,-1
 -12.9033203125 188.23046875 l 1,4,-1
 19.7529296875 188.23046875 l 2,5,6
 266.998392324 188.000001499 266.998392324 188.000001499 267.376953125 401.948242188 c 2,7,-1
 267.810546875 646.999023438 l 1,8,-1
 445.765625 646.999023438 l 1,9,-1
 446.34765625 397.413085938 l 2,10,11
 447 189 447 189 622.517578125 188.55859375 c 0,12,13
 794.771901752 188.000738709 794.771901752 188.000738709 794.215820312 392.716796875 c 2,14,-1
 793.52734375 646.172851562 l 1,15,-1
 971.737304688 646.172851562 l 1,16,-1
 972.376953125 393.9765625 l 2,17,18
 973 189 973 189 1156.99511719 188.506835938 c 0,19,20
 1303.484375 187.998318559 1303.484375 187.998318559 1303.484375 392.9921875 c 2,21,-1
 1303.484375 690.362304688 l 5,22,-1
 1482.2421875 690.362304688 l 5,23,-1
 1482.2421875 392.029296875 l 1,24,25
 1481 -1 1481 -1 1164.95898438 -1.06640625 c 0,26,27
 935 -1 935 -1 877.42578125 180.176757812 c 1,28,29
 821 -1 821 -1 631.898222045 -0.968555497699 c 0,30,31
 443 -1 443 -1 366.506835938 148.888671875 c 1,0,1
EndSplineSet
EndChar

StartChar: uniFEB4
Encoding: 65204 65204 193
Width: 1771
VWidth: 2548
GlyphClass: 2
Flags: W
AnchorPoint: "Anchor-10" 850.65 1107.67 basechar 0
AnchorPoint: "Anchor-7" 862.824 -287.272 basechar 0
LayerCount: 2
Fore
SplineSet
1666.80078125 -1.06640625 m 2,0,1
 1488.03125274 -1.06640625 1488.03125274 -1.06640625 1409.91503906 164.916015625 c 1,2,3
 1363 -1 1363 -1 1169.73566289 -0.489521095941 c 0,4,5
 976 0 976 0 899.986328125 175.909179688 c 1,6,7
 869 86 869 86 808.135742188 44.3090820312 c 0,8,9
 747 3 747 3 649.4765625 3.0126953125 c 0,10,11
 461 3 461 3 380.678710938 160.245117188 c 1,12,13
 316.973774931 -1.06640625 316.973774931 -1.06640625 89.7490234375 -1.06640625 c 2,14,-1
 -10.236328125 -1.06640625 l 1,15,-1
 -10.236328125 188.228515625 l 1,16,-1
 48.099609375 188.229492188 l 1,17,18
 290.589472646 189.997007655 290.589472646 189.997007655 288.87890625 375.979492188 c 2,19,-1
 286.379882812 647.6875 l 5,20,-1
 474.487304688 647.6875 l 5,21,-1
 474.108398438 384.181640625 l 2,22,23
 474 189 474 189 654.182617188 188.9609375 c 0,24,25
 816.352965001 189.000085205 816.352965001 189.000085205 816.149414062 384.741210938 c 2,26,-1
 815.875976562 647.6875 l 5,27,-1
 990.993164062 647.6875 l 5,28,-1
 992.345703125 386.685546875 l 2,29,30
 993 189 993 189 1171.109375 189.11328125 c 0,31,32
 1322.61447428 189.000287528 1322.61447428 189.000287528 1323.10644531 380.19140625 c 2,33,-1
 1323.80273438 650.78515625 l 5,34,-1
 1487.03808594 650.78515625 l 5,35,-1
 1487.01757812 417.545898438 l 2,36,37
 1487 293 1487 293 1574.77441406 226.6796875 c 0,38,39
 1624.61859588 189.286132812 1624.61859588 189.286132812 1719.37304688 189.286132812 c 2,40,-1
 1780.8046875 189.286132812 l 1,41,-1
 1780.8046875 -1.06640625 l 1,42,-1
 1666.80078125 -1.06640625 l 2,0,1
EndSplineSet
EndChar

StartChar: uniFEBA
Encoding: 65210 65210 199
Width: 2699
VWidth: 2553
GlyphClass: 2
Flags: W
AnchorPoint: "Anchor-10" 652.398 1146.4 basechar 0
AnchorPoint: "Anchor-7" 270.946 -692.786 basechar 0
LayerCount: 2
Fore
SplineSet
1592.00390625 201.52734375 m 1,0,-1
 1937.26074219 201.52734375 l 2,1,2
 2049.25195312 201.309570312 2049.25195312 201.309570312 2141.08886719 241.61328125 c 0,3,4
 2276.25195312 299.309570312 2276.25195312 299.309570312 2268.2265625 437.279296875 c 0,5,6
 2258.25195312 622.309570312 2258.25195312 622.309570312 2094.87402344 618.543945312 c 0,7,8
 1979.9765625 626.012695312 1979.9765625 626.012695312 1772.25195312 402.309570312 c 0,9,10
 1694.25195312 318.309570312 1694.25195312 318.309570312 1592.00390625 201.52734375 c 1,0,-1
2449.95703125 311.604492188 m 1,11,12
 2537.84348968 188.219726562 2537.84348968 188.219726562 2678.1171875 188.219726562 c 2,13,-1
 2711.49902344 188.219726562 l 1,14,-1
 2711.49902344 -0.9609375 l 1,15,-1
 2652.99902344 -0.9609375 l 2,16,17
 2465 -1 2465 -1 2378.63769531 163.889648438 c 1,18,19
 2327 107 2327 107 2255.52441406 64.8779296875 c 0,20,21
 2146.43064505 0.255097088543 2146.43064505 0.255097088543 2015.26464844 0.1845703125 c 2,22,-1
 1672 0 l 1,23,24
 1392 0 1392 0 1320.25390625 112.287109375 c 1,25,-1
 1320.25390625 43.865234375 l 2,26,27
 1320.00014974 -434.717590607 1320.00014974 -434.717590607 747.431640625 -452.205078125 c 2,28,-1
 728.375 -452.787109375 l 1,29,-1
 701.1875 -452.787109375 l 2,30,31
 91 -453 91 -453 91.12109375 43.2763671875 c 1,32,-1
 91 446 l 1,33,-1
 269.877929688 446.033203125 l 1,34,-1
 269.877929688 44.44921875 l 2,35,36
 270.000194644 -263.490234375 270.000194644 -263.490234375 703.356445312 -263.490234375 c 2,37,-1
 728.642578125 -263.490234375 l 1,38,-1
 756.364257812 -262.901367188 l 2,39,40
 1144.02319255 -254.999527255 1144.02319255 -254.999527255 1143.84570312 48.5576171875 c 2,41,-1
 1143.49707031 644.818359375 l 5,42,-1
 1324.94824219 644.911132812 l 5,43,-1
 1325.0390625 476.603515625 l 2,44,45
 1325 289 1325 289 1433 262 c 1,46,47
 1615 463 1615 463 1666.5 518 c 0,48,49
 1837 700 1837 700 1956.25195312 749.309570312 c 0,50,51
 2102 810 2102 810 2236.15917969 774.177734375 c 0,52,53
 2450.7921461 717.319968897 2450.7921461 717.319968897 2455.35644531 396.267578125 c 0,54,55
 2456 351 2456 351 2449.95703125 311.604492188 c 1,11,12
EndSplineSet
EndChar

StartChar: uniFEBB
Encoding: 65211 65211 200
Width: 1611
VWidth: 2553
GlyphClass: 2
Flags: W
AnchorPoint: "Anchor-10" 630.109 1250.04 basechar 0
AnchorPoint: "Anchor-7" 630.109 -266.146 basechar 0
LayerCount: 2
Fore
SplineSet
656.00390625 201.52734375 m 1,0,-1
 1001.26074219 201.52734375 l 2,1,2
 1113.25195312 201.309570312 1113.25195312 201.309570312 1205.08886719 241.61328125 c 0,3,4
 1340.25195312 299.309570312 1340.25195312 299.309570312 1332.2265625 437.279296875 c 0,5,6
 1322.25195312 622.309570312 1322.25195312 622.309570312 1158.87402344 618.543945312 c 0,7,8
 1043.9765625 626.012695312 1043.9765625 626.012695312 836.251953125 402.309570312 c 0,9,10
 758.251953125 318.309570312 758.251953125 318.309570312 656.00390625 201.52734375 c 1,0,-1
726 0 m 1,11,12
 454 0 454 0 368.004882812 151.799804688 c 1,13,14
 268.936944839 -0.0966796875 268.936944839 -0.0966796875 58.154296875 -0.0966796875 c 2,15,-1
 -12.9033203125 -0.0966796875 l 1,16,-1
 -12.9033203125 189.200195312 l 1,17,-1
 51.2724609375 189.200195312 l 1,18,19
 277.774414062 189.989321652 277.774414062 189.989321652 277.774414062 397.534179688 c 2,20,-1
 277.774414062 653.1796875 l 5,21,-1
 444.749023438 653.1796875 l 5,22,-1
 445.829101562 444.998046875 l 2,23,24
 447 262 447 262 497 262 c 1,25,26
 679 463 679 463 730.5 518 c 0,27,28
 901 700 901 700 1020.25195312 749.309570312 c 0,29,30
 1166 810 1166 810 1300.15917969 774.177734375 c 0,31,32
 1516 717 1516 717 1519.35644531 396.267578125 c 0,33,34
 1521 183 1521 183 1319.52441406 64.8779296875 c 0,35,36
 1210.42727178 0.25309889719 1210.42727178 0.25309889719 1079.26464844 0.1845703125 c 2,37,-1
 726 0 l 1,11,12
EndSplineSet
EndChar

StartChar: uniFEBC
Encoding: 65212 65212 201
Width: 1768
VWidth: 2553
GlyphClass: 2
Flags: W
AnchorPoint: "Anchor-10" 689.854 1252.04 basechar 0
AnchorPoint: "Anchor-7" 719.196 -303.704 basechar 0
LayerCount: 2
Fore
SplineSet
656.00390625 201.52734375 m 1,0,-1
 1001.26074219 201.52734375 l 2,1,2
 1113.25195312 201.309570312 1113.25195312 201.309570312 1205.08886719 241.61328125 c 0,3,4
 1340.25195312 299.309570312 1340.25195312 299.309570312 1332.2265625 437.279296875 c 0,5,6
 1322.25195312 622.309570312 1322.25195312 622.309570312 1158.87402344 618.543945312 c 0,7,8
 1043.9765625 626.012695312 1043.9765625 626.012695312 836.251953125 402.309570312 c 0,9,10
 758.251953125 318.309570312 758.251953125 318.309570312 656.00390625 201.52734375 c 1,0,-1
1438.04589844 162 m 1,11,12
 1392 108 1392 108 1319.52441406 64.8779296875 c 0,13,14
 1210.42727178 0.25309889719 1210.42727178 0.25309889719 1079.26464844 0.1845703125 c 2,15,-1
 726 0 l 1,16,17
 454 0 454 0 368.004882812 151.799804688 c 1,18,19
 268.936944839 -0.0966796875 268.936944839 -0.0966796875 58.154296875 -0.0966796875 c 2,20,-1
 -12.9033203125 -0.0966796875 l 1,21,-1
 -12.9033203125 189.200195312 l 1,22,-1
 51.2724609375 189.200195312 l 1,23,24
 277.774414062 189.989321652 277.774414062 189.989321652 277.774414062 397.534179688 c 2,25,-1
 277.774414062 653.1796875 l 5,26,-1
 444.749023438 653.1796875 l 5,27,-1
 445.829101562 444.998046875 l 2,28,29
 447 262 447 262 497 262 c 1,30,31
 679 463 679 463 730.5 518 c 0,32,33
 901 700 901 700 1020.25195312 749.309570312 c 0,34,35
 1166 810 1166 810 1300.15917969 774.177734375 c 0,36,37
 1515 717 1515 717 1519.35644531 396.267578125 c 0,38,39
 1520 352 1520 352 1516.96582031 312.07421875 c 1,40,41
 1605.21444832 188.700195312 1605.21444832 188.700195312 1745.11816406 188.700195312 c 2,42,-1
 1778.49902344 188.700195312 l 1,43,-1
 1778.49902344 -0.48046875 l 1,44,-1
 1719.9921875 -0.48046875 l 2,45,46
 1523 -0 1523 -0 1438.04589844 162 c 1,11,12
EndSplineSet
EndChar

StartChar: uniFEC2
Encoding: 65218 65218 207
Width: 1477
VWidth: 2553
GlyphClass: 2
Flags: W
AnchorPoint: "Anchor-7" 525.078 -284.734 basechar 0
AnchorPoint: "Anchor-10" 403.545 1523.1 basechar 0
LayerCount: 2
Fore
SplineSet
434.751953125 202.217773438 m 5,0,-1
 780.008789062 202.217773438 l 6,1,2
 892 202 892 202 983.836914062 242.303710938 c 4,3,4
 1119 300 1119 300 1110.97460938 437.969726562 c 4,5,6
 1101 623 1101 623 937.622070312 619.234375 c 4,7,8
 822.724550843 626.703362446 822.724550843 626.703362446 615 403 c 4,9,10
 537 319 537 319 434.751953125 202.217773438 c 5,0,-1
1201 145 m 5,11,12
 1154 98 1154 98 1098.27246094 65.568359375 c 4,13,14
 988.907565357 0.945380993728 988.907565357 0.945380993728 858.012695312 0.875 c 6,15,-1
 514.748046875 0.6904296875 l 5,16,-1
 89.7705078125 -0.0048828125 l 5,17,-1
 89.7705078125 189.200195312 l 5,18,-1
 214.784179688 189.200195312 l 5,19,-1
 352.169921875 355.219726562 l 5,20,-1
 352.169921875 1388.74414062 l 5,21,-1
 527.264648438 1388.74414062 l 5,22,-1
 527.264648438 527.959960938 l 5,23,24
 664 688 664 688 799 750 c 4,25,26
 937 813 937 813 1078.90722656 774.868164062 c 4,27,28
 1293 717 1293 717 1298.10449219 396.958007812 c 4,29,30
 1299 342 1299 342 1285.69921875 294 c 5,31,32
 1349.2009058 189.669921875 1349.2009058 189.669921875 1462.98046875 189.669921875 c 6,33,-1
 1487.57128906 189.669921875 l 5,34,-1
 1487.57128906 0.4892578125 l 5,35,-1
 1422.89453125 0.4892578125 l 6,36,37
 1304 0 1304 0 1201 145 c 5,11,12
EndSplineSet
EndChar

StartChar: uniFEC3
Encoding: 65219 65219 208
Width: 1218
VWidth: 2553
GlyphClass: 2
Flags: W
AnchorPoint: "Anchor-10" 250.277 1517.82 basechar 0
AnchorPoint: "Anchor-7" 348.078 -302.734 basechar 0
LayerCount: 2
Fore
SplineSet
262.751953125 202.217773438 m 1,0,-1
 608.008789062 202.217773438 l 2,1,2
 720 202 720 202 811.836914062 242.303710938 c 0,3,4
 947 300 947 300 938.974609375 437.969726562 c 0,5,6
 929 623 929 623 765.622070312 619.234375 c 0,7,8
 650.724609375 626.703125 650.724609375 626.703125 443 403 c 0,9,10
 365 319 365 319 262.751953125 202.217773438 c 1,0,-1
180.169921875 355.219726562 m 1,11,-1
 180.169921875 1388.74414062 l 1,12,-1
 355.264648438 1388.74414062 l 1,13,-1
 355.264648438 527.959960938 l 1,14,15
 492 688 492 688 627 750 c 0,16,17
 765 813 765 813 906.907226562 774.868164062 c 0,18,19
 1123 716 1123 716 1126.10449219 396.958007812 c 0,20,21
 1128 184 1128 184 926.272460938 65.568359375 c 0,22,23
 816.907565357 0.945380993728 816.907565357 0.945380993728 686.012695312 0.875 c 2,24,-1
 342.748046875 0.6904296875 l 1,25,-1
 -15.2294921875 -0.0048828125 l 1,26,-1
 -15.2294921875 189.200195312 l 1,27,-1
 42.7841796875 189.200195312 l 1,28,-1
 180.169921875 355.219726562 l 1,11,-1
EndSplineSet
EndChar

StartChar: uniFEC4
Encoding: 65220 65220 209
Width: 1309
VWidth: 2553
GlyphClass: 2
Flags: W
AnchorPoint: "Anchor-10" 260.783 1518.53 basechar 0
AnchorPoint: "Anchor-7" 490.837 -294.314 basechar 0
LayerCount: 2
Fore
SplineSet
266.751953125 202.217773438 m 1,0,-1
 612.008789062 202.217773438 l 2,1,2
 724 202 724 202 815.836914062 242.303710938 c 0,3,4
 951 300 951 300 942.974609375 437.969726562 c 0,5,6
 933 623 933 623 769.622070312 619.234375 c 0,7,8
 654.724609375 626.703125 654.724609375 626.703125 447 403 c 0,9,10
 369 319 369 319 266.751953125 202.217773438 c 1,0,-1
1033 145 m 1,11,12
 986 98 986 98 930.272460938 65.568359375 c 0,13,14
 820.907565357 0.945380993728 820.907565357 0.945380993728 690.012695312 0.875 c 2,15,-1
 346.748046875 0.6904296875 l 1,16,-1
 -15.2294921875 -0.0048828125 l 1,17,-1
 -15.2294921875 189.200195312 l 1,18,-1
 46.7841796875 189.200195312 l 1,19,-1
 184.169921875 355.219726562 l 1,20,-1
 184.169921875 1388.74414062 l 1,21,-1
 359.264648438 1388.74414062 l 1,22,-1
 359.264648438 527.959960938 l 1,23,24
 496 688 496 688 631 750 c 0,25,26
 769 813 769 813 910.907226562 774.868164062 c 0,27,28
 1125 717 1125 717 1130.10449219 396.958007812 c 0,29,30
 1131 342 1131 342 1117.69921875 294 c 1,31,32
 1181.2009058 189.669921875 1181.2009058 189.669921875 1294.98046875 189.669921875 c 2,33,-1
 1319.57128906 189.669921875 l 1,34,-1
 1319.57128906 0.4892578125 l 1,35,-1
 1254.89453125 0.4892578125 l 2,36,37
 1136 0 1136 0 1033 145 c 1,11,12
EndSplineSet
EndChar

StartChar: uniFECA
Encoding: 65226 65226 215
Width: 1288
VWidth: 2553
GlyphClass: 2
Flags: W
AnchorPoint: "Anchor-10" 554.282 1348.27 basechar 0
AnchorPoint: "Anchor-7" 222.935 -761.024 basechar 0
LayerCount: 2
Fore
SplineSet
723.8359375 454.854492188 m 5,0,1
 924.334960938 188.700195312 924.334960938 188.700195312 1207.4453125 188.700195312 c 6,2,-1
 1308.79492188 188.700195312 l 5,3,-1
 1308.79492188 -0.48046875 l 5,4,-1
 1205.21679688 -0.48046875 l 6,5,6
 878.456054688 -0.48046875 878.456054688 -0.48046875 618.020507812 353.499023438 c 5,7,8
 260.587890625 139.590820312 260.587890625 139.590820312 260.408203125 -159.668945312 c 4,9,10
 260.15625 -575.0078125 260.15625 -575.0078125 784.372070312 -574.651367188 c 6,11,-1
 1159.39453125 -574.396484375 l 5,12,-1
 1158.33984375 -757.858398438 l 5,13,-1
 801.475585938 -758.103515625 l 6,14,15
 414.388671875 -758.541015625 414.388671875 -758.541015625 245.69921875 -589.8515625 c 4,16,17
 96.4296875 -440.58203125 96.4296875 -440.58203125 91.8310546875 -146.545898438 c 4,18,19
 85.7421875 220.16015625 85.7421875 220.16015625 484.262695312 460.928710938 c 5,20,21
 430.107421875 503.7578125 430.107421875 503.7578125 318.288085938 631.508789062 c 4,22,23
 164.3203125 808.076171875 164.3203125 808.076171875 275.35546875 938.494140625 c 4,24,25
 333.544921875 1006.81738281 333.544921875 1006.81738281 450.65234375 1026.82226562 c 132,-1,26
 567.760742188 1046.82714844 567.760742188 1046.82714844 774.965820312 1033.17675781 c 132,-1,27
 982.170898438 1019.52636719 982.170898438 1019.52636719 1036.70800781 897.458007812 c 4,28,29
 1065.77539062 832.64453125 1065.77539062 832.64453125 1052.49804688 777.227539062 c 4,30,31
 1020.84082031 638.28515625 1020.84082031 638.28515625 723.8359375 454.854492188 c 5,0,1
882.872070312 793.70703125 m 4,32,33
 882.872070312 889.12109375 882.872070312 889.12109375 616.641601562 889.12109375 c 4,34,35
 409.879882812 889.12109375 409.879882812 889.12109375 402.318359375 814.055664062 c 4,36,37
 400.206054688 793.09765625 400.206054688 793.09765625 416.780273438 771.46875 c 4,38,39
 487.602539062 674.383789062 487.602539062 674.383789062 614.931640625 562.5859375 c 5,40,41
 674.0546875 591.258789062 674.0546875 591.258789062 801.950195312 682.33203125 c 4,42,43
 882.872070312 739.961914062 882.872070312 739.961914062 882.872070312 793.70703125 c 4,32,33
EndSplineSet
EndChar

StartChar: uniFECB
Encoding: 65227 65227 216
Width: 1127
VWidth: 2553
GlyphClass: 2
Flags: W
AnchorPoint: "Anchor-10" 394.602 1421.91 basechar 0
AnchorPoint: "Anchor-7" 545.228 -262.038 basechar 0
LayerCount: 2
Fore
SplineSet
1035.30761719 119.07421875 m 1,0,1
 483.96214099 -1.09082093403 483.96214099 -1.09082093403 374.7578125 -1.0859375 c 2,2,-1
 -12.9033203125 -1.06640625 l 1,3,-1
 -12.9033203125 188.229492188 l 1,4,-1
 308.684570312 188.30859375 l 1,5,6
 94.7705078125 425.946289062 94.7705078125 425.946289062 198.303710938 651.501953125 c 128,-1,7
 301.836914062 877.057617188 301.836914062 877.057617188 602.866210938 877.416015625 c 0,8,9
 845.323151439 878.033083594 845.323151439 878.033083594 958.231445312 754.41796875 c 1,10,-1
 901.989257812 606.96875 l 1,11,12
 728.859996081 741.753947053 728.859996081 741.753947053 503.59765625 682.202148438 c 0,13,14
 416.097149576 658.991627262 416.097149576 658.991627262 374.295898438 604.436523438 c 0,15,16
 312.8984375 522.346679688 312.8984375 522.346679688 347.883048353 409.242784863 c 0,17,18
 382.867659206 296.138890039 382.867659206 296.138890039 499.056640625 240.4453125 c 0,19,20
 568.717773438 207.045898438 568.717773438 207.045898438 737.791015625 244.159179688 c 2,21,-1
 1035.30761719 309.465820312 l 1,22,-1
 1035.30761719 119.07421875 l 1,0,1
EndSplineSet
EndChar

StartChar: uniFECC
Encoding: 65228 65228 217
Width: 1104
VWidth: 2553
GlyphClass: 2
Flags: W
AnchorPoint: "Anchor-10" 505.677 1208.6 basechar 0
AnchorPoint: "Anchor-7" 456.382 -263.212 basechar 0
LayerCount: 2
Fore
SplineSet
770.823242188 578.212890625 m 0,0,1
 769 668 769 668 558.805664062 668.885742188 c 0,2,3
 298 669 298 669 325.055664062 575.2421875 c 0,4,5
 335 542 335 542 401.385742188 495.069335938 c 0,6,7
 533 402 533 402 558.740234375 387.637695312 c 5,8,9
 583 394 583 394 700 486 c 4,10,11
 773.142794908 542.312759301 773.142794908 542.312759301 770.823242188 578.212890625 c 0,0,1
446.038085938 263.124023438 m 1,12,13
 114.340820312 451.912109375 114.340820312 451.912109375 122.474609375 610.07421875 c 0,14,15
 128.895507812 731.83984375 128.895507812 731.83984375 260.491210938 794.916992188 c 0,16,17
 348.908203125 837.309570312 348.908203125 837.309570312 542.141601562 837.323242188 c 0,18,19
 817.490234375 837.301757812 817.490234375 837.301757812 911.204101562 754.126953125 c 0,20,21
 976.331054688 696.322265625 976.331054688 696.322265625 961.1171875 565.510742188 c 128,-1,22
 945.903320312 434.69921875 945.903320312 434.69921875 665.588867188 259.16796875 c 1,23,24
 720.60546875 184.74609375 720.60546875 184.74609375 1075.32910156 188.23046875 c 2,25,-1
 1112.6328125 188.595703125 l 1,26,-1
 1112.6328125 -0.48046875 l 1,27,-1
 1047.58203125 -0.48046875 l 2,28,29
 659.54296875 -1.0615234375 659.54296875 -1.0615234375 559.403320312 99.6318359375 c 2,30,-1
 552.24609375 106.828125 l 1,31,-1
 544.88671875 99.837890625 l 2,32,33
 438.642578125 -1.06640625 438.642578125 -1.06640625 52.9580078125 -1.06640625 c 2,34,-1
 -9.73046875 -1.06640625 l 1,35,-1
 -9.73046875 188.23046875 l 1,36,-1
 25.330078125 188.23046875 l 2,37,38
 384.569142458 188.246092255 384.569142458 188.246092255 446.038085938 263.124023438 c 1,12,13
EndSplineSet
EndChar

StartChar: uniFEDA
Encoding: 65242 65242 231
Width: 2039
VWidth: 2553
GlyphClass: 2
Flags: W
AnchorPoint: "Anchor-10" 637.624 1599.46 basechar 0
AnchorPoint: "Anchor-7" 544.902 -313.681 basechar 0
LayerCount: 2
Fore
SplineSet
734.5546875 813.643554688 m 2,0,1
 799.241210938 805.491210938 799.241210938 805.491210938 839.706054688 805.491210938 c 0,2,3
 989.23067998 805.491210938 989.23067998 805.491210938 1038.59776446 855.986828143 c 0,4,5
 1068.09960938 886.163085938 1068.09960938 886.163085938 1068.09960938 912.194335938 c 0,6,7
 1068.09960938 964.123046875 1068.09960938 964.123046875 977.216308594 978.502441406 c 128,-1,8
 886.333007812 992.881835938 886.333007812 992.881835938 850.263671875 1040.05761719 c 0,9,10
 795.561523438 1111.6015625 795.561523438 1111.6015625 820.032226562 1188.515625 c 0,11,12
 867.19921875 1336.76855469 867.19921875 1336.76855469 1131.48535156 1356.41015625 c 2,13,-1
 1160.75488281 1358.58496094 l 1,14,-1
 1160.75488281 1258.15820312 l 1,15,-1
 1135.71386719 1256.12109375 l 2,16,17
 964.405523347 1242.18713172 964.405523347 1242.18713172 922.126953125 1171.90429688 c 0,18,19
 919.6328125 1167.75281199 919.6328125 1167.75281199 919.6328125 1143.37792969 c 0,20,21
 919.6328125 1094.77539062 919.6328125 1094.77539062 973.572265625 1077.42089844 c 0,22,23
 1001.41503906 1068.46386719 1001.41503906 1068.46386719 1052.90820312 1060.56884766 c 128,-1,24
 1104.40136719 1052.67382812 1104.40136719 1052.67382812 1138.02539062 1020.43572361 c 128,-1,25
 1171.64941406 988.197619086 1171.64941406 988.197619086 1171.64941406 931.016290012 c 128,-1,26
 1171.64941406 873.834960938 1171.64941406 873.834960938 1148.35058594 836.818359375 c 0,27,28
 1035.65332031 657.772460938 1035.65332031 657.772460938 726.939453125 706.025390625 c 2,29,-1
 703.897460938 709.626953125 l 1,30,-1
 703.897460938 817.506835938 l 1,31,-1
 734.5546875 813.643554688 l 2,0,1
1779.21289062 391.061523438 m 2,32,33
 1779.21872896 188.111328123 1779.21872896 188.111328123 1998.14257812 188.111328125 c 2,34,-1
 2046.734375 188.111328125 l 1,35,-1
 2046.734375 -1.06640625 l 1,36,-1
 1987.75488281 -1.06640625 l 2,37,38
 1792.18215526 -1.06640625 1792.18215526 -1.06640625 1689.91699219 125.884765625 c 1,39,40
 1588.43396872 -1.06640625 1588.43396872 -1.06640625 1395.66992188 -1.06640625 c 2,41,-1
 493.995117188 -1.06640625 l 2,42,43
 146.692699997 -0.968575685502 146.692699997 -0.968575685502 125.6796875 377.255859375 c 0,44,45
 122.28515625 439.328125 122.28515625 439.328125 122.1953125 440.826171875 c 2,46,-1
 122.188476562 655.689453125 l 1,47,-1
 300.944335938 655.689453125 l 1,48,-1
 300.944335938 451.571289062 l 2,49,50
 300.940449877 188.230468749 300.940449877 188.230468749 498.510742188 188.23046875 c 2,51,-1
 1402.87207031 188.23046875 l 1,52,53
 1600.45605469 189.354492188 1600.45605469 189.354492188 1600.45605469 416.446289062 c 2,54,-1
 1600.45605469 1387.18847656 l 1,55,-1
 1779.21289062 1387.18847656 l 1,56,-1
 1779.21289062 391.061523438 l 2,32,33
EndSplineSet
EndChar

StartChar: uniFEDB
Encoding: 65243 65243 232
Width: 888
VWidth: 2553
GlyphClass: 2
Flags: W
AnchorPoint: "Anchor-10" 296.18 1466.67 basechar 0
AnchorPoint: "Anchor-7" 421.179 -274.565 basechar 0
LayerCount: 2
Fore
SplineSet
391.426757812 -0.0966796875 m 2,0,-1
 -13.310546875 -0.0966796875 l 1,1,-1
 -13.310546875 189.200195312 l 1,2,-1
 342.91796875 189.227539062 l 2,3,4
 550 189 550 189 550.708007812 322.768554688 c 0,5,6
 550.999595643 378.922129532 550.999595643 378.922129532 443.646484375 501.317382812 c 2,7,-1
 172.858398438 810.047851562 l 2,8,9
 115 876 115 876 93.494140625 905.619140625 c 0,10,11
 67 941 67 941 71.6220703125 1000.41113281 c 0,12,13
 81.9646523357 1120.58926925 81.9646523357 1120.58926925 189.275390625 1159.80664062 c 2,14,-1
 836.5 1396.33886719 l 1,15,-1
 836.5 1211.94628906 l 1,16,-1
 247.211914062 995.982421875 l 5,17,-1
 566.962890625 632.473632812 l 2,18,19
 730 447 730 447 712.686523438 285.399902344 c 0,20,21
 696 133 696 133 565.368164062 47.052734375 c 0,22,23
 494 -0 494 -0 391.426757812 -0.0966796875 c 2,0,-1
EndSplineSet
EndChar

StartChar: uniFEDC
Encoding: 65244 65244 233
Width: 1066
VWidth: 2553
GlyphClass: 2
Flags: W
AnchorPoint: "Anchor-10" 293.27 1401.68 basechar 0
AnchorPoint: "Anchor-7" 307.814 -331.873 basechar 0
LayerCount: 2
Fore
SplineSet
696.606445312 219.549804688 m 1,0,1
 620.977235344 -1.06640625 620.977235344 -1.06640625 388.515625 -1.06640625 c 2,2,-1
 -13.310546875 -1.06640625 l 1,3,-1
 -13.310546875 188.23046875 l 1,4,-1
 340.0078125 188.2578125 l 2,5,6
 547 188 547 188 547.798828125 321.798828125 c 0,7,8
 548.000188982 378.052795607 548.000188982 378.052795607 440.736328125 500.346679688 c 2,9,-1
 169.948242188 809.078125 l 2,10,11
 118 868 118 868 90.5974865884 904.820373277 c 0,12,13
 64 940 64 940 68.712890625 999.439453125 c 0,14,15
 78.9765971174 1120.7234532 78.9765971174 1120.7234532 186.369140625 1159.80859375 c 2,16,-1
 833.58984375 1395.36230469 l 1,17,-1
 833.58984375 1210.9765625 l 1,18,-1
 244 998 l 5,19,-1
 820.413085938 343.630859375 l 2,20,21
 956.621404328 189.001267463 956.621404328 189.001267463 1046.55273438 188.700195312 c 2,22,-1
 1077.06835938 188.700195312 l 1,23,-1
 1077.06835938 -0.48046875 l 1,24,-1
 1056.45019531 -0.48046875 l 2,25,26
 854 -0 854 -0 696.606445312 219.549804688 c 1,0,1
EndSplineSet
EndChar

StartChar: uniFEDE
Encoding: 65246 65246 235
Width: 1587
VWidth: 2553
GlyphClass: 2
Flags: W
AnchorPoint: "Anchor-10" 509.754 1181.62 basechar 0
AnchorPoint: "Anchor-7" 288.91 -677.293 basechar 0
LayerCount: 2
Fore
SplineSet
269.877929688 44.44921875 m 2,0,1
 269.877929688 -296.354492188 269.877929688 -296.354492188 703.356445312 -296.354492188 c 2,2,-1
 728.643554688 -296.354492188 l 1,3,-1
 756.365234375 -295.764648438 l 2,4,5
 1142.70390501 -288.00594637 1142.70390501 -288.00594637 1147.36523438 48.416015625 c 2,6,-1
 1148.03710938 96.9072265625 l 1,7,8
 1148 386 1148 386 1147.37695312 433.754882812 c 2,9,-1
 1147.37695312 1386.63671875 l 1,10,-1
 1321.29882812 1386.63671875 l 1,11,-1
 1321.29882812 433.765625 l 2,12,13
 1320.99963398 188.700195312 1320.99963398 188.700195312 1540.24902344 188.700195312 c 2,14,-1
 1608.79492188 188.700195312 l 1,15,-1
 1608.79492188 -0.48046875 l 1,16,-1
 1556.84960938 -0.48046875 l 2,17,18
 1383 -0 1383 -0 1320.68652344 81.6357421875 c 1,19,-1
 1320.25488281 43.984375 l 2,20,21
 1314.0032379 -467.734966586 1314.0032379 -467.734966586 747.430664062 -485.068359375 c 2,22,-1
 728.374023438 -485.651367188 l 1,23,-1
 701.188476562 -485.651367188 l 2,24,25
 91 -486 91 -486 91.12109375 43.2763671875 c 1,26,-1
 91 446 l 5,27,-1
 269.877929688 446.033203125 l 1,28,-1
 269.877929688 44.44921875 l 2,0,1
EndSplineSet
EndChar

StartChar: uniFEDF
Encoding: 65247 65247 236
Width: 589
VWidth: 2553
GlyphClass: 2
Flags: W
AnchorPoint: "Anchor-10" 345.682 1533.64 basechar 0
AnchorPoint: "Anchor-7" 181.01 -242.415 basechar 0
LayerCount: 2
Fore
SplineSet
96.9697265625 189.200195312 m 6,0,1
 280.95703125 189.200195313 280.95703125 189.200195313 280.95703125 402.866210938 c 6,2,-1
 280.95703125 1388.15820312 l 5,3,-1
 459.71484375 1388.15820312 l 5,4,-1
 459.71484375 394.938476562 l 6,5,6
 460.000069805 -0.0966796875 460.000069805 -0.0966796875 76.173828125 -0.0966796875 c 6,7,-1
 -12.876953125 -0.0966796875 l 5,8,-1
 -12.876953125 189.200195312 l 5,9,-1
 96.9697265625 189.200195312 l 6,0,1
EndSplineSet
EndChar

StartChar: uniFEE0
Encoding: 65248 65248 237
Width: 699
VWidth: 2553
GlyphClass: 2
Flags: W
AnchorPoint: "Anchor-10" 373.225 1655.2 basechar 0
AnchorPoint: "Anchor-7" 291.065 -292.554 basechar 0
LayerCount: 2
Fore
SplineSet
459.02734375 438.258789062 m 2,0,1
 459.02734375 188.23046875 459.02734375 188.23046875 668.973632812 188.23046875 c 2,2,-1
 714.518554688 188.23046875 l 1,3,-1
 714.518554688 -1.06640625 l 1,4,-1
 659.068359375 -1.06640625 l 2,5,6
 493 -1 493 -1 371.234375 129.458007812 c 1,7,8
 251.939306848 -1.06640625 251.939306848 -1.06640625 99.7177734375 -1.06640625 c 2,9,-1
 -15.900390625 -1.06640625 l 1,10,-1
 -15.900390625 188.23046875 l 1,11,-1
 87.873046875 188.23046875 l 2,12,13
 283.931640625 188.000080329 283.931640625 188.000080329 283.931640625 439.43359375 c 2,14,-1
 283.931640625 1387.72753906 l 1,15,-1
 459.02734375 1387.72753906 l 1,16,-1
 459.02734375 438.258789062 l 2,0,1
EndSplineSet
EndChar

StartChar: uniFEE2
Encoding: 65250 65250 239
Width: 1360
VWidth: 2553
GlyphClass: 2
Flags: W
AnchorPoint: "Anchor-10" 589.565 1154.03 basechar 0
LayerCount: 2
Fore
SplineSet
832.837890625 579.115234375 m 0,0,1
 698.231059737 578.942336663 698.231059737 578.942336663 684.531545493 567.491169295 c 128,-1,2
 670.83203125 556.040001927 670.83203125 556.040001927 670.83203125 400.20703125 c 128,-1,3
 670.83203125 244.193359375 670.83203125 244.193359375 720.286132812 193.526367188 c 128,-1,4
 769.711914062 142.890625 769.711914062 142.890625 858.740234375 142.890625 c 0,5,6
 870.278320312 142.890625 870.278320312 142.890625 882.500976562 143.775390625 c 0,7,8
 1022.97265625 153.684507934 1022.97265625 153.684507934 1022.97265625 411.822265625 c 0,9,10
 1022.97265625 579.090820312 1022.97265625 579.090820312 832.837890625 579.115234375 c 0,0,1
1116 105 m 1,11,12
 1079 50 1079 50 1042.49414062 27.4052734375 c 0,13,14
 967 -22 967 -22 831.712890625 -16 c 0,15,16
 696 -10 696 -10 611.123046875 71.6357421875 c 0,17,18
 493 184 493 184 498.890625 425.30859375 c 0,19,20
 501 513 501 513 505.227539062 553.943359375 c 1,21,22
 265.010742188 531.001025952 265.010742188 531.001025952 265.010742188 161.032226562 c 2,23,-1
 265.010742188 -496.416992188 l 1,24,-1
 90.94921875 -496.416992188 l 1,25,-1
 90.94921875 156.591796875 l 2,26,27
 91 704 91 704 493.255859375 744.525390625 c 1,28,-1
 928.190429688 744.5390625 l 1,29,30
 1169 742 1169 742 1190.44140625 465.870117188 c 0,31,32
 1195 408 1195 408 1192.22152526 371.417047205 c 0,33,34
 1188 312 1188 312 1188 305 c 4,35,36
 1187 187 1187 187 1321.3671875 187.079101562 c 2,37,-1
 1372.01464844 187.079101562 l 1,38,-1
 1372.01464844 -1.06640625 l 1,39,-1
 1330.15429688 -1.06640625 l 2,40,41
 1173 -1 1173 -1 1116 105 c 1,11,12
EndSplineSet
EndChar

StartChar: uniFEE3
Encoding: 65251 65251 240
Width: 955
VWidth: 2553
GlyphClass: 2
Flags: W
AnchorPoint: "Anchor-10" 401.346 1064.25 basechar 0
AnchorPoint: "Anchor-7" 408.389 -252.648 basechar 0
LayerCount: 2
Fore
SplineSet
502.309570312 808.006835938 m 0,0,1
 799.966796875 808.192382812 799.966796875 808.192382812 847.712890625 560.354492188 c 0,2,3
 864.510742188 473.735351562 864.510742188 473.735351562 864.510742188 352.966308594 c 128,-1,4
 864.510742188 232.197265625 864.510742188 232.197265625 812.931640625 126.744140625 c 0,5,6
 744.071289062 -14.5595703125 744.071289062 -14.5595703125 524.868164062 -13.5903320312 c 128,-1,7
 305.665039062 -12.62109375 305.665039062 -12.62109375 242.626953125 88.8740234375 c 1,8,9
 178.321289062 -1.06640625 178.321289062 -1.06640625 47.23046875 -1.06640625 c 2,10,-1
 -12.9033203125 -1.06640625 l 1,11,-1
 -12.9033203125 188.228515625 l 1,12,-1
 64.806640625 188.228515625 l 2,13,14
 150.046875 188.356445312 150.046875 188.356445312 165.130859375 254.454101562 c 1,15,-1
 165.111328125 262.42578125 l 1,16,17
 162.555463272 517.264208577 162.555463272 517.264208577 202.231445312 613.555664062 c 0,18,19
 274.51953125 793.509765625 274.51953125 793.509765625 495.005859375 807.961914062 c 0,20,21
 498.71484375 808.1953125 498.71484375 808.1953125 502.309570312 808.006835938 c 0,0,1
519.029296875 636.109375 m 0,22,23
 345.509765625 636.31640625 345.509765625 636.31640625 341.678710938 400.687988281 c 128,-1,24
 337.84765625 165.059570312 337.84765625 165.059570312 520.587890625 163.83984375 c 0,25,26
 690.700195312 163.150869203 690.700195312 163.150869203 690.700195312 399.733637727 c 128,-1,27
 690.700195312 636.31640625 690.700195312 636.31640625 519.029296875 636.109375 c 0,22,23
EndSplineSet
EndChar

StartChar: uniFEE4
Encoding: 65252 65252 241
Width: 1057
VWidth: 2553
GlyphClass: 2
Flags: W
AnchorPoint: "Anchor-10" 516.487 1160.49 basechar 0
AnchorPoint: "Anchor-7" 495.36 -274.948 basechar 0
LayerCount: 2
Fore
SplineSet
360.28125 338.958007812 m 0,0,1
 382.067382812 142.15234375 382.067382812 142.15234375 568.38671875 165.336914062 c 0,2,3
 692.756835938 180.275390625 692.756835938 180.275390625 699.939453125 339.6171875 c 0,4,5
 712.889712098 613.560719186 712.889712098 613.560719186 585.533203125 636.916992188 c 0,6,7
 567.284179688 640.208984375 567.284179688 640.208984375 545.885742188 640.8828125 c 0,8,9
 385.93359375 643.07421875 385.93359375 643.07421875 362.891601562 464.185546875 c 0,10,11
 354.309570312 396.784179688 354.309570312 396.784179688 360.28125 338.958007812 c 0,0,1
187.362304688 255.337890625 m 1,12,13
 185.499023438 473.737304688 185.499023438 473.737304688 213.215820312 571.168945312 c 0,14,15
 281.493164062 811.18359375 281.493164062 811.18359375 541.397460938 811.18359375 c 128,-1,16
 801.301757812 811.18359375 801.301757812 811.18359375 849.135742188 566.12109375 c 0,17,18
 871.543945312 453.09765625 871.543945312 453.09765625 864.701171875 278.0234375 c 1,19,-1
 864.685546875 277.8203125 l 2,20,21
 864.194335938 273.244140625 864.194335938 273.244140625 864.184570312 268.44921875 c 0,22,23
 864.04296875 188.359375 864.04296875 188.359375 1002.97363281 188.359375 c 2,24,-1
 1065.24023438 188.359375 l 1,25,-1
 1065.24023438 -0.8203125 l 5,26,-1
 978.501953125 -0.8203125 l 2,27,28
 861.739257812 -0.8203125 861.739257812 -0.8203125 812.965820312 77.173828125 c 2,29,-1
 803.677734375 92.0263671875 l 1,30,31
 780.275397289 50.3312921268 780.275397289 50.3312921268 761.134768957 37.8809780946 c 0,32,33
 685.245583733 -11.482301485 685.245583733 -11.482301485 543.893554688 -13.37890625 c 0,34,35
 342.0703125 -16.087890625 342.0703125 -16.087890625 263.96484375 76.0361328125 c 2,36,-1
 256.9453125 84.314453125 l 1,37,38
 163.21484375 -1.06640625 163.21484375 -1.06640625 53.826171875 -1.06640625 c 2,39,-1
 -8.55859375 -1.06640625 l 1,40,-1
 -8.55859375 188.228515625 l 1,41,-1
 61.3603515625 188.228515625 l 2,42,43
 181.676757812 188.228515625 181.676757812 188.228515625 187.362304688 255.337890625 c 1,12,13
EndSplineSet
EndChar

StartChar: uniFEEA
Encoding: 65258 65258 247
Width: 1078
VWidth: 2553
GlyphClass: 2
Flags: W
AnchorPoint: "Anchor-10" 643.183 1260.91 basechar 0
AnchorPoint: "Anchor-7" 323.281 -274.565 basechar 0
LayerCount: 2
Fore
SplineSet
679.69921875 402.87890625 m 1,0,-1
 627.245117188 688.3515625 l 1,1,2
 249.568692557 638.024544292 249.568692557 638.024544292 251.432617188 480.896484375 c 0,3,4
 253.350556587 357.948577483 253.350556587 357.948577483 679.69921875 402.87890625 c 1,0,-1
737.745117188 220.0390625 m 1,5,6
 114 152 114 152 90.279296875 432.462890625 c 0,7,8
 63 763 63 763 587.188476562 851.181640625 c 1,9,-1
 568.653320312 944.513671875 l 5,10,-1
 748 979 l 1,11,-1
 847.192382812 412.846679688 l 2,12,13
 885.943193582 189.327665777 885.943193582 189.327665777 1058.06347656 189.223632812 c 2,14,-1
 1095.22460938 189.201171875 l 1,15,-1
 1096.39941406 -0.0966796875 l 1,16,-1
 1037.02050781 -0.0966796875 l 2,17,18
 802 -0 802 -0 737.745117188 220.0390625 c 1,5,6
EndSplineSet
EndChar

StartChar: uniFEEB
Encoding: 65259 65259 248
Width: 1219
VWidth: 2553
GlyphClass: 2
Flags: W
AnchorPoint: "Anchor-10" 572.837 1442.83 basechar 0
AnchorPoint: "Anchor-7" 518.543 -279.197 basechar 0
LayerCount: 2
Fore
SplineSet
427.174804688 239.8671875 m 1,0,1
 518.3828125 274.122070312 518.3828125 274.122070312 571.365234375 383.767578125 c 0,2,3
 655.112475695 558.909237553 655.112475695 558.909237553 529.725585938 621.46875 c 0,4,5
 479.408695528 646.572487587 479.408695528 646.572487587 409.850585938 625.737304688 c 0,6,7
 307.078125 592.30859375 307.078125 592.30859375 268.452148438 480.588867188 c 0,8,9
 211.841796875 313.71484375 211.841796875 313.71484375 427.174804688 239.8671875 c 1,0,1
752.134765625 512.297851562 m 0,10,11
 751.02734375 301.279296875 751.02734375 301.279296875 576.65625 183.368164062 c 1,12,13
 727.005859375 117.563476562 727.005859375 117.563476562 807.122070312 118.037109375 c 128,-1,14
 887.23828125 118.510742188 887.23828125 118.510742188 937.7578125 180.469726562 c 0,15,16
 954.555792585 201.00124337 954.555792585 201.00124337 954.984375 232.01953125 c 0,17,18
 954.552734375 336.446289062 954.552734375 336.446289062 746.856445312 573.750976562 c 1,19,20
 752.013671875 544.047851562 752.013671875 544.047851562 752.134765625 512.297851562 c 0,10,11
569.780273438 775.911132812 m 1,21,-1
 685.844726562 906.895507812 l 1,22,23
 1129.33125553 412.526560917 1129.33125553 412.526560917 1127.46191406 219.848632812 c 0,24,25
 1126.39648438 99.4208984375 1126.39648438 99.4208984375 1011.66992188 17.0537109375 c 0,26,27
 935.221001615 -37.830744814 935.221001615 -37.830744814 807.682617188 -37.9892578125 c 0,28,29
 767.237304688 -37.8291015625 767.237304688 -37.8291015625 721.954101562 -32.4736328125 c 0,30,31
 534.58984375 -9.71875 534.58984375 -9.71875 438.094726562 70.3291015625 c 1,32,33
 204.0703125 -0.0966796875 204.0703125 -0.0966796875 16.302734375 -0.0966796875 c 2,34,-1
 -12.951171875 -0.0966796875 l 5,35,-1
 -12.951171875 189.328125 l 1,36,-1
 219.69140625 188.9765625 l 1,37,38
 97.1171875 272.2421875 97.1171875 272.2421875 99.3544921875 444.256835938 c 0,39,40
 100.956054688 552.122070312 100.956054688 552.122070312 181.134765625 652.346679688 c 128,-1,41
 261.313476562 752.571289062 261.313476562 752.571289062 379.296875 781.700683594 c 128,-1,42
 497.280273438 810.830078125 497.280273438 810.830078125 569.780273438 775.911132812 c 1,21,-1
EndSplineSet
EndChar

StartChar: uniFEEC
Encoding: 65260 65260 249
Width: 977
VWidth: 2553
GlyphClass: 2
Flags: W
AnchorPoint: "Anchor-7" 142.183 -722.715 basechar 0
AnchorPoint: "Anchor-10" 415.514 1176.02 basechar 0
LayerCount: 2
Fore
SplineSet
516.717773438 -409.096679688 m 0,0,1
 655.860351562 -409.096679688 655.860351562 -409.096679688 655.860351562 -230.108398438 c 0,2,3
 655.860351562 -154.203125 655.860351562 -154.203125 590.537109375 -77.482421875 c 128,-1,4
 525.382295743 -0.956295278329 525.382295743 -0.956295278329 417.505859375 0.44140625 c 2,5,-1
 339.484375 1.4482421875 l 1,6,7
 325.464540809 -100.94052635 325.464540809 -100.94052635 355.853515625 -213.165039062 c 0,8,9
 408.201171875 -409.096679688 408.201171875 -409.096679688 516.717773438 -409.096679688 c 0,0,1
985.715820312 188.780273438 m 1,10,-1
 985.715820312 -0.50390625 l 1,11,-1
 688.786132812 -1.1240234375 l 1,12,-1
 707.8046875 -19.0205078125 l 2,13,14
 874.6953125 -176.583984375 874.6953125 -176.583984375 799.09765625 -387.9765625 c 0,15,16
 734.620188085 -568.399994582 734.620188085 -568.399994582 532.28958623 -569.869919166 c 128,-1,17
 329.958984375 -571.33984375 329.958984375 -571.33984375 237.409179688 -366.7734375 c 0,18,19
 178.535286237 -235.282288915 178.535286237 -235.282288915 184.8828125 -1.06640625 c 1,20,-1
 -9.1865234375 -1.06640625 l 1,21,-1
 -9.1865234375 188.233398438 l 1,22,-1
 182.21484375 188.299804688 l 1,23,24
 173.305485327 418.798731957 173.305485327 418.798731957 234.38671875 553.96484375 c 0,25,26
 334.883789062 776.357421875 334.883789062 776.357421875 563.709960938 755.954101562 c 0,27,28
 673.817137223 745.991059191 673.817137223 745.991059191 739.59375 671.791992188 c 0,29,30
 827.733398438 572.465820312 827.733398438 572.465820312 817.964355469 437.654785156 c 128,-1,31
 808.1953125 302.84375 808.1953125 302.84375 714.698242188 207.068359375 c 2,32,-1
 697.688476562 189.643554688 l 1,33,-1
 985.715820312 188.780273438 l 1,10,-1
655.860351562 419.642578125 m 0,34,35
 655.524793115 598.999740468 655.524793115 598.999740468 516.717773438 598.630859375 c 0,36,37
 392 599 392 599 343.256835938 348.916992188 c 0,38,39
 328 271 328 271 339.484375 188.084960938 c 1,40,-1
 417.505859375 189.092773438 l 2,41,42
 543.799360946 190.724121144 543.799360946 190.724121144 599.899680473 267.862060572 c 132,-1,43
 656 345 656 345 655.860351562 419.642578125 c 0,34,35
EndSplineSet
EndChar

StartChar: uniFEEE
Encoding: 65262 65262 251
Width: 911
VWidth: 2553
GlyphClass: 2
Flags: W
AnchorPoint: "Anchor-10" 348.37 1237.36 basechar 0
AnchorPoint: "Anchor-7" 390.055 -688.957 basechar 0
LayerCount: 2
Fore
SplineSet
765.659179688 291.953125 m 1,0,-1
 763.094726562 186.268554688 l 1,1,-1
 921.352539062 188.610351562 l 5,2,-1
 921.352539062 -0.48046875 l 5,3,-1
 763.920898438 -0.48046875 l 1,4,5
 760 -274 760 -274 625.556640625 -398.708007812 c 0,6,7
 491.4927452 -523.541181858 491.4927452 -523.541181858 222.75390625 -523.412109375 c 2,8,-1
 117.0234375 -523.361328125 l 1,9,-1
 116.920898438 -335.1953125 l 1,10,-1
 216.883789062 -335.265625 l 2,11,12
 564.50751221 -335.998961063 564.50751221 -335.998961063 578.970703125 -20.1533203125 c 2,13,-1
 579.8984375 0.1064453125 l 1,14,-1
 569.0390625 0.1064453125 l 2,15,16
 545 0 545 0 501.0859375 0.0458984375 c 128,-1,17
 457 0 457 0 385.240234375 0 c 0,18,19
 233 0 233 0 152.607421875 89.74609375 c 0,20,21
 72 179 72 179 91.076171875 413.728515625 c 0,22,23
 103 563 103 563 169.798828125 636.775390625 c 0,24,25
 262 737 262 737 437.5703125 733.58984375 c 0,26,27
 714 729 714 729 757.346679688 454.97265625 c 0,28,29
 767 394 767 394 765.659179688 291.953125 c 1,0,-1
433.612304688 558.374023438 m 0,30,31
 259.951171875 566.287109375 259.951171875 566.287109375 249.859375 390.225585938 c 0,32,33
 242.620117188 250.751953125 242.620117188 250.751953125 297.1484375 214.814453125 c 0,34,35
 366.501953125 169.40625 366.501953125 169.40625 589.709960938 193.930664062 c 1,36,37
 598.137772041 435.192393578 598.137772041 435.192393578 561.925116449 494.500826118 c 128,-1,38
 525.712460858 553.809258657 525.712460858 553.809258657 433.612304688 558.374023438 c 0,30,31
EndSplineSet
EndChar

StartChar: uniFEF0
Encoding: 65264 65264 253
Width: 1466
VWidth: 2553
GlyphClass: 2
Flags: W
AnchorPoint: "Anchor-10" 244.973 701.354 basechar 0
AnchorPoint: "Anchor-7" 210.008 -673.278 basechar 0
LayerCount: 2
Fore
SplineSet
747.252929688 -527.177734375 m 2,0,1
 90.5372830098 -527.177734375 90.5372830098 -527.177734375 90.2431640625 -39.330078125 c 2,2,-1
 90 364 l 29,3,4
 269.000976562 363 l 1,5,-1
 269.000976562 -38.158203125 l 2,6,7
 269.000000388 -337.880859375 269.000000388 -337.880859375 749.427734375 -337.880859375 c 2,8,-1
 791.125976562 -337.880859375 l 1,9,-1
 824.692382812 -337.29296875 l 2,10,11
 1199.30566406 -330.994861087 1199.30566406 -330.994861087 1199.30566406 -90.384765625 c 2,12,-1
 1199.30566406 -0.1826171875 l 1,13,-1
 947.569335938 -0.2578125 l 2,14,15
 895 -0 895 -0 872.110839844 89.8422851562 c 0,16,17
 849 180 849 180 878.721679688 188.23046875 c 1,18,-1
 1477.68261719 188.693359375 l 1,19,-1
 1477.68261719 -0.4677734375 l 1,20,-1
 1375.71484375 -0.1748046875 l 1,21,-1
 1375.71484375 -86.86328125 l 2,22,23
 1376.00032942 -513.49228606 1376.00032942 -513.49228606 815.879882812 -526.59375 c 2,24,-1
 790.913085938 -527.177734375 l 1,25,-1
 747.252929688 -527.177734375 l 2,0,1
EndSplineSet
EndChar

StartChar: uniFEFB
Encoding: 65275 65275 264
Width: 1158
VWidth: 2553
GlyphClass: 3
Flags: W
AnchorPoint: "Anchor-9" 910.412 1616.27 baselig 0
AnchorPoint: "Anchor-6" 816.517 -264.566 baselig 0
AnchorPoint: "Anchor-6" 156.087 -316.797 baselig 1
AnchorPoint: "Anchor-9" 168.411 1619.19 baselig 1
LayerCount: 2
Fore
SplineSet
173.5859375 1388.69726562 m 1,0,-1
 348.681640625 1388.69726562 l 1,1,-1
 348.681640625 239.924804688 l 1,2,-1
 173.5859375 239.924804688 l 1,3,-1
 173.5859375 1388.69726562 l 1,0,-1
1028.70898438 393.971679688 m 2,4,5
 1028.70898438 -0.0966796875 1028.70898438 -0.0966796875 645.16796875 -0.0966796875 c 2,6,-1
 90.650390625 -0.0966796875 l 1,7,-1
 90.650390625 189.200195312 l 1,8,-1
 652.384765625 189.200195312 l 2,9,10
 849.951171875 189.328125 849.951171875 189.328125 849.951171875 411.596679688 c 2,11,-1
 849.951171875 1388.15820312 l 1,12,-1
 1028.70898438 1388.15820312 l 1,13,-1
 1028.70898438 393.971679688 l 2,4,5
EndSplineSet
LCarets2: 1 0
Ligature2: "'rlig' Required Ligatures in Arabic lookup 16 subtable" uniFEDF uniFE8E
EndChar

StartChar: arabic_dot
Encoding: 65536 -1 265
Width: 204
VWidth: 2629
GlyphClass: 2
Flags: W
LayerCount: 2
Fore
SplineSet
-28 89 m 128,-1,1
 -28 143.17766953 -28 143.17766953 9.66116523517 180.838834765 c 128,-1,2
 47.3223304703 218.5 47.3223304703 218.5 101 218.5 c 0,3,4
 155.67766953 218.5 155.67766953 218.5 193.338834765 180.838834765 c 128,-1,5
 231 143.17766953 231 143.17766953 231 89.5 c 0,6,7
 231 34.8223304703 231 34.8223304703 193.338834765 -2.83883476483 c 128,-1,8
 155.67766953 -40.5 155.67766953 -40.5 102 -40.5 c 0,9,10
 47.3223304703 -40.5 47.3223304703 -40.5 9.66116523517 -2.83883476483 c 128,-1,0
 -28 34.8223304703 -28 34.8223304703 -28 89 c 128,-1,1
EndSplineSet
EndChar

StartChar: arabic_2dots
Encoding: 65537 -1 266
Width: 527
VWidth: 2629
GlyphClass: 2
Flags: W
LayerCount: 2
Fore
SplineSet
296 89 m 128,-1,1
 296 143.17766953 296 143.17766953 333.661165235 180.838834765 c 128,-1,2
 371.32233047 218.5 371.32233047 218.5 425 218.5 c 0,3,4
 479.67766953 218.5 479.67766953 218.5 517.338834765 180.838834765 c 0,5,6
 535.990409181 162.187260349 535.990409181 162.187260349 545.49520459 139.124240267 c 128,-1,7
 555 116.061220185 555 116.061220185 555 89.5 c 0,8,9
 555 34.8223304703 555 34.8223304703 517.338834765 -2.83883476483 c 128,-1,10
 479.67766953 -40.5 479.67766953 -40.5 426 -40.5 c 0,11,12
 371.32233047 -40.5 371.32233047 -40.5 333.661165235 -2.83883476483 c 128,-1,0
 296 34.8223304703 296 34.8223304703 296 89 c 128,-1,1
-28 89 m 128,-1,14
 -28 143.17766953 -28 143.17766953 9.66116523517 180.838834765 c 128,-1,15
 47.3223304703 218.5 47.3223304703 218.5 101 218.5 c 0,16,17
 155.67766953 218.5 155.67766953 218.5 193.338834765 180.838834765 c 128,-1,18
 231 143.17766953 231 143.17766953 231 89.5 c 0,19,20
 231 34.8223304703 231 34.8223304703 193.338834765 -2.83883476483 c 128,-1,21
 155.67766953 -40.5 155.67766953 -40.5 102 -40.5 c 0,22,23
 47.3223304703 -40.5 47.3223304703 -40.5 9.66116523517 -2.83883476483 c 128,-1,13
 -28 34.8223304703 -28 34.8223304703 -28 89 c 128,-1,14
EndSplineSet
EndChar

StartChar: arabic_3dots
Encoding: 65538 -1 267
Width: 527
VWidth: 2629
GlyphClass: 2
Flags: W
LayerCount: 2
Fore
SplineSet
135.5 399 m 128,-1,1
 135.5 453.17766953 135.5 453.17766953 173.161165235 490.838834765 c 128,-1,2
 210.82233047 528.5 210.82233047 528.5 264.5 528.5 c 0,3,4
 319.17766953 528.5 319.17766953 528.5 356.838834765 490.838834765 c 128,-1,5
 394.5 453.17766953 394.5 453.17766953 394.5 399.5 c 0,6,7
 394.5 344.82233047 394.5 344.82233047 356.838834765 307.161165235 c 128,-1,8
 319.17766953 269.5 319.17766953 269.5 265.5 269.5 c 0,9,10
 210.82233047 269.5 210.82233047 269.5 173.161165235 307.161165235 c 128,-1,0
 135.5 344.82233047 135.5 344.82233047 135.5 399 c 128,-1,1
296 89 m 128,-1,12
 296 143.17766953 296 143.17766953 333.661165235 180.838834765 c 128,-1,13
 371.32233047 218.5 371.32233047 218.5 425 218.5 c 0,14,15
 479.67766953 218.5 479.67766953 218.5 517.338834765 180.838834765 c 0,16,17
 535.990409181 162.187260349 535.990409181 162.187260349 545.49520459 139.124240267 c 128,-1,18
 555 116.061220185 555 116.061220185 555 89.5 c 0,19,20
 555 34.8223304703 555 34.8223304703 517.338834765 -2.83883476483 c 128,-1,21
 479.67766953 -40.5 479.67766953 -40.5 426 -40.5 c 0,22,23
 371.32233047 -40.5 371.32233047 -40.5 333.661165235 -2.83883476483 c 128,-1,11
 296 34.8223304703 296 34.8223304703 296 89 c 128,-1,12
-28 89 m 128,-1,25
 -28 143.17766953 -28 143.17766953 9.66116523517 180.838834765 c 128,-1,26
 47.3223304703 218.5 47.3223304703 218.5 101 218.5 c 0,27,28
 155.67766953 218.5 155.67766953 218.5 193.338834765 180.838834765 c 128,-1,29
 231 143.17766953 231 143.17766953 231 89.5 c 0,30,31
 231 34.8223304703 231 34.8223304703 193.338834765 -2.83883476483 c 128,-1,32
 155.67766953 -40.5 155.67766953 -40.5 102 -40.5 c 0,33,34
 47.3223304703 -40.5 47.3223304703 -40.5 9.66116523517 -2.83883476483 c 128,-1,24
 -28 34.8223304703 -28 34.8223304703 -28 89 c 128,-1,25
EndSplineSet
EndChar

StartChar: arabic_3dots_a
Encoding: 65539 -1 268
Width: 527
VWidth: 2629
GlyphClass: 2
Flags: W
LayerCount: 2
Fore
SplineSet
135.5 -203 m 132,-1,1
 135.5 -148.82233047 135.5 -148.82233047 173.161165235 -111.161165235 c 4,2,3
 191.812739651 -92.5095908192 191.812739651 -92.5095908192 214.875759733 -83.0047954096 c 132,-1,4
 237.938779815 -73.5 237.938779815 -73.5 264.5 -73.5 c 4,5,6
 319.17766953 -73.5 319.17766953 -73.5 356.838834765 -111.161165235 c 132,-1,7
 394.5 -148.82233047 394.5 -148.82233047 394.5 -202.5 c 4,8,9
 394.5 -257.17766953 394.5 -257.17766953 356.838834765 -294.838834765 c 132,-1,10
 319.17766953 -332.5 319.17766953 -332.5 265.5 -332.5 c 4,11,12
 210.82233047 -332.5 210.82233047 -332.5 173.161165235 -294.838834765 c 132,-1,0
 135.5 -257.17766953 135.5 -257.17766953 135.5 -203 c 132,-1,1
296 107 m 132,-1,14
 296 161.17766953 296 161.17766953 333.661165235 198.838834765 c 132,-1,15
 371.32233047 236.5 371.32233047 236.5 425 236.5 c 4,16,17
 479.67766953 236.5 479.67766953 236.5 517.338834765 198.838834765 c 4,18,19
 535.990409181 180.187260349 535.990409181 180.187260349 545.49520459 157.124240267 c 132,-1,20
 555 134.061220185 555 134.061220185 555 107.5 c 4,21,22
 555 52.8223304703 555 52.8223304703 517.338834765 15.1611652352 c 132,-1,23
 479.67766953 -22.5 479.67766953 -22.5 426 -22.5 c 4,24,25
 371.32233047 -22.5 371.32233047 -22.5 333.661165235 15.1611652352 c 132,-1,13
 296 52.8223304703 296 52.8223304703 296 107 c 132,-1,14
-28 107 m 132,-1,27
 -28 161.17766953 -28 161.17766953 9.66116523517 198.838834765 c 132,-1,28
 47.3223304703 236.5 47.3223304703 236.5 101 236.5 c 4,29,30
 155.67766953 236.5 155.67766953 236.5 193.338834765 198.838834765 c 132,-1,31
 231 161.17766953 231 161.17766953 231 107.5 c 4,32,33
 231 52.8223304703 231 52.8223304703 193.338834765 15.1611652352 c 132,-1,34
 155.67766953 -22.5 155.67766953 -22.5 102 -22.5 c 4,35,36
 47.3223304703 -22.5 47.3223304703 -22.5 9.66116523517 15.1611652352 c 132,-1,26
 -28 52.8223304703 -28 52.8223304703 -28 107 c 132,-1,27
EndSplineSet
EndChar

StartChar: uni066E.fina
Encoding: 65540 -1 269
Width: 2070
VWidth: 2553
GlyphClass: 2
Flags: W
AnchorPoint: "Anchor-10" 672.312 1239.13 basechar 0
AnchorPoint: "Anchor-7" 672.312 -215.677 basechar 0
LayerCount: 2
Fore
SplineSet
269.904296875 451.571289062 m 2,0,1
 269.904296875 188.23046875 269.904296875 188.23046875 467.470703125 188.23046875 c 2,2,-1
 1132.02246094 188.23046875 l 1,3,-1
 1402.46484375 191.4453125 l 2,4,5
 1663.56763769 194.994123494 1663.56763769 194.994123494 1663.41796875 424.291992188 c 2,6,-1
 1663.2734375 645.71875 l 5,7,-1
 1846.01074219 645.71875 l 5,8,-1
 1846.18847656 421.938476562 l 2,9,10
 1845.99975742 188.700195312 1845.99975742 188.700195312 2048.51269531 188.700195312 c 2,11,-1
 2080.89453125 188.700195312 l 1,12,-1
 2080.89453125 -0.48046875 l 1,13,-1
 2046.70898438 -0.48046875 l 2,14,15
 1826.22218043 -0.000483671984369 1826.22218043 -0.000483671984369 1758.76367188 162.506835938 c 2,16,-1
 1751.23046875 180.654296875 l 1,17,18
 1630.95604808 -1.06640625 1630.95604808 -1.06640625 1358.95996094 -1.06640625 c 2,19,-1
 461.77734375 -1.06640625 l 2,20,21
 91.1516158243 -1.00002715531 91.1516158243 -1.00002715531 91.1494140625 453.916992188 c 2,22,-1
 91.1484375 655.689453125 l 1,23,-1
 269.904296875 655.689453125 l 1,24,-1
 269.904296875 451.571289062 l 2,0,1
EndSplineSet
EndChar

StartChar: uni06A1.fina
Encoding: 65543 -1 272
Width: 2090
VWidth: 2553
GlyphClass: 2
Flags: W
AnchorPoint: "Anchor-10" 464.606 1364.71 basechar 0
AnchorPoint: "Anchor-7" 590.192 -267.906 basechar 0
LayerCount: 2
Fore
SplineSet
1352.87597656 507.373046875 m 128,-1,1
 1352.87597656 428.653320312 1352.87597656 428.653320312 1409.90722656 372.901367188 c 128,-1,2
 1467.08007812 317.016601562 1467.08007812 317.016601562 1547.95605469 317.016601562 c 128,-1,3
 1628.83007812 317.016601562 1628.83007812 317.016601562 1686.00292969 372.901367188 c 128,-1,4
 1743.03417969 428.65234375 1743.03417969 428.65234375 1743.03417969 507.373046875 c 128,-1,5
 1743.03417969 586.087890625 1743.03417969 586.087890625 1686.00292969 641.836914062 c 128,-1,6
 1628.82714844 697.724609375 1628.82714844 697.724609375 1547.95605469 697.724609375 c 128,-1,7
 1467.08105469 697.724609375 1467.08105469 697.724609375 1409.90722656 641.836914062 c 128,-1,0
 1352.87597656 586.091796875 1352.87597656 586.091796875 1352.87597656 507.373046875 c 128,-1,1
269.944335938 452.541015625 m 2,8,9
 269.944335938 189.231250941 269.944335938 189.231250941 467.510742188 189.200195312 c 2,10,-1
 1380.76171875 189.056640625 l 1,11,12
 1124.09383374 363.616283013 1124.09383374 363.616283013 1198.49902344 627.727539062 c 0,13,14
 1238 767 1238 767 1393.26367188 829.920898438 c 0,15,16
 1463 858 1463 858 1563.71679688 857.908203125 c 0,17,18
 1664 858 1664 858 1749.77832031 808.23828125 c 0,19,20
 1883 732 1883 732 1904.46289062 616.977539062 c 128,-1,21
 1926 502 1926 502 1901.2265625 422.892578125 c 0,22,23
 1877 344 1877 344 1825.65332031 288.766601562 c 0,24,25
 1774 234 1774 234 1693.12011719 187.713867188 c 1,26,-1
 2102.54882812 189.655273438 l 1,27,-1
 2102.54882812 0.55859375 l 1,28,-1
 1902.59570312 0 l 2,29,30
 1689 -1 1689 -1 1546.51855469 108.455078125 c 1,31,32
 1379.03845941 0.0248994417726 1379.03845941 0.0248994417726 1191.42871094 0 c 2,33,-1
 462.9765625 -0.0966796875 l 2,34,35
 91.1910236627 -4.96494254776e-05 91.1910236627 -4.96494254776e-05 91.189453125 441.977539062 c 2,36,-1
 91.1884765625 716.799804688 l 1,37,-1
 269.944335938 716.799804688 l 1,38,-1
 269.944335938 452.541015625 l 2,8,9
EndSplineSet
EndChar

StartChar: uni06A1.init
Encoding: 65544 -1 273
Width: 831
VWidth: 2553
GlyphClass: 2
Flags: W
AnchorPoint: "Anchor-10" 568.999 1328.33 basechar 0
AnchorPoint: "Anchor-7" 451.628 -205.113 basechar 0
LayerCount: 2
Fore
SplineSet
552.928710938 367.875976562 m 5,0,1
 506 367 506 367 454 367 c 132,-1,2
 402 367 402 367 364.697265625 367.543945312 c 4,3,4
 208 368 208 368 134.85546875 448.404296875 c 4,5,6
 62 529 62 529 61.9619140625 708.303710938 c 4,7,8
 62 1074 62 1074 399.336914062 1074.38964844 c 4,9,10
 712 1074 712 1074 730.86328125 795.657226562 c 4,11,12
 739 674 739 674 739.229492188 670.657226562 c 6,13,-1
 738.727539062 490.028320312 l 5,14,-1
 738.727539062 357.400390625 l 6,15,16
 738.999964346 -2.95283784826 738.999964346 -2.95283784826 222.553710938 -1.06640625 c 6,17,-1
 -7.63671875 -0.2255859375 l 5,18,-1
 -8.056640625 189.278320312 l 5,19,-1
 235.087890625 189.426757812 l 6,20,21
 552.928710938 189.999871455 552.928710938 189.999871455 552.928710938 349.958007812 c 6,22,-1
 552.928710938 367.875976562 l 5,0,1
518.5 858 m 4,23,24
 471 899 471 899 391.962890625 899.401367188 c 4,25,26
 223 899 223 899 222.833007812 717.990234375 c 4,27,28
 223 613 223 613 270.044921875 582.90625 c 132,-1,29
 317 553 317 553 397.5 553 c 132,-1,30
 478 553 478 553 563.176757812 561.609375 c 5,31,32
 565 607 565 607 565 628.5 c 4,33,34
 565 817.863157895 565 817.863157895 518.5 858 c 4,23,24
EndSplineSet
EndChar

StartChar: uni06A1.medi
Encoding: 65545 -1 274
Width: 1078
VWidth: 2553
GlyphClass: 2
Flags: W
AnchorPoint: "Anchor-10" 529.997 1176.33 basechar 0
AnchorPoint: "Anchor-7" 529.997 -205.113 basechar 0
LayerCount: 2
Fore
SplineSet
336.817382812 511.796875 m 132,-1,1
 336.817382812 433.077148438 336.817382812 433.077148438 393.848632812 377.325195312 c 132,-1,2
 451.021484375 321.440429688 451.021484375 321.440429688 531.897460938 321.440429688 c 132,-1,3
 612.771484375 321.440429688 612.771484375 321.440429688 669.944335938 377.325195312 c 132,-1,4
 726.975585938 433.076171875 726.975585938 433.076171875 726.975585938 511.796875 c 132,-1,5
 726.975585938 590.51171875 726.975585938 590.51171875 669.944335938 646.260742188 c 132,-1,6
 612.768554688 702.1484375 612.768554688 702.1484375 531.897460938 702.1484375 c 132,-1,7
 451.022460938 702.1484375 451.022460938 702.1484375 393.848632812 646.260742188 c 132,-1,0
 336.817382812 590.515625 336.817382812 590.515625 336.817382812 511.796875 c 132,-1,1
530.166992188 107.44921875 m 1,8,9
 363.898251671 -1.06640625 363.898251671 -1.06640625 174.987304688 -1.06640625 c 2,10,-1
 -8.5087890625 -1.06640625 l 1,11,-1
 -8.5087890625 188.232421875 l 1,12,-1
 362.799804688 188.21484375 l 1,13,14
 104 364 104 364 178.641601562 631.450195312 c 0,15,16
 218 772 218 772 375.4296875 835.751953125 c 0,17,18
 446 864 446 864 547.563476562 864.095703125 c 128,-1,19
 649 864 649 864 735.6640625 813.844726562 c 0,20,21
 870 737 870 737 891.802734375 620.685546875 c 0,22,23
 913 504 913 504 883.783203125 408.693359375 c 0,24,25
 844 281 844 281 678.397460938 186.856445312 c 1,26,-1
 1086.109375 188.588867188 l 1,27,-1
 1086.109375 -0.5087890625 l 1,28,-1
 886.15625 -1.06640625 l 2,29,30
 688 -2 688 -2 530.166992188 107.44921875 c 1,8,9
EndSplineSet
EndChar

StartChar: uni066F.fina
Encoding: 65546 -1 275
Width: 1586
VWidth: 2553
GlyphClass: 2
Flags: W
AnchorPoint: "Anchor-10" 388.276 1051.72 basechar 0
AnchorPoint: "Anchor-7" 505.229 -698.06 basechar 0
LayerCount: 2
Fore
SplineSet
1238.20605469 2.98046875 m 1,0,1
 1229 -0 1229 -0 1146.19596517 -0.0689184093547 c 0,2,3
 1063 -0 1063 -0 1047.2734375 -0.0927734375 c 0,4,5
 893 -0 893 -0 813.371634173 88.1115060438 c 0,6,7
 733 177 733 177 749.522460938 386.52734375 c 0,8,9
 761 526 761 526 833.087890625 604.720703125 c 0,10,11
 928 710 928 710 1096.01464844 706.391601562 c 0,12,13
 1371 701 1371 701 1415.79101562 427.784179688 c 0,14,15
 1425.93462376 365.402056981 1425.93462376 365.402056981 1424.10546875 291.760742188 c 2,16,-1
 1421.57519531 189.892578125 l 1,17,-1
 1598.67773438 190.279296875 l 1,18,-1
 1598.67773438 -0.130859375 l 1,19,-1
 1413.27929688 -0.8193359375 l 1,20,-1
 1414.15039062 -64.462890625 l 2,21,22
 1420.99441364 -600.562414903 1420.99441364 -600.562414903 839.385742188 -595.594726562 c 2,23,-1
 770.78515625 -595.008789062 l 1,24,-1
 701.184570312 -595.008789062 l 2,25,26
 91.12109375 -595.000001744 91.12109375 -595.000001744 91.12109375 -66.0810546875 c 2,27,-1
 91 336 l 5,28,-1
 269.877929688 336.674804688 l 1,29,-1
 269.877929688 -64.9072265625 l 2,30,31
 269.9998969 -405.711914062 269.9998969 -405.711914062 703.356445312 -405.711914062 c 2,32,-1
 770.865234375 -405.711914062 l 1,33,-1
 847.770507812 -405.125 l 2,34,35
 1227.81936859 -402.001484559 1227.81936859 -402.001484559 1236.56347656 -61.064453125 c 2,36,-1
 1238.20605469 2.98046875 l 1,0,1
1248.11328125 193.720703125 m 1,37,38
 1256.48535156 408.158203125 1256.48535156 408.158203125 1220.27929688 467.452148438 c 128,-1,39
 1184.15917969 526.609375 1184.15917969 526.609375 1110.77783203 530.12890625 c 128,-1,40
 1037.39648438 533.6484375 1037.39648438 533.6484375 997.118164062 516.057617188 c 0,41,42
 916.73215532 480.948547931 916.73215532 480.948547931 908.861194848 365.773102091 c 128,-1,43
 900.990234375 250.59765625 900.990234375 250.59765625 955.594726562 214.612304688 c 0,44,45
 1024.90820312 169.229492188 1024.90820312 169.229492188 1248.11328125 193.720703125 c 1,37,38
EndSplineSet
EndChar

StartChar: arabic_ring
Encoding: 65549 -1 278
Width: 524
VWidth: 2391
GlyphClass: 2
Flags: W
LayerCount: 2
Fore
SplineSet
316.577148438 134.233398438 m 0,0,1
 386.274414062 167.527775565 386.274414062 167.527775565 386.274414062 236.784667969 c 0,2,3
 386.274414062 282.827053844 386.274414062 282.827053844 376.698242188 298.102003485 c 128,-1,4
 367.122070312 313.376953125 367.122070312 313.376953125 364.889648438 316.687988281 c 0,5,6
 328.273123116 370.99609375 328.273123116 370.99609375 252.967539185 370.99609375 c 0,7,8
 177.661955254 370.99609375 177.661955254 370.99609375 146.803710938 295.033203125 c 0,9,10
 137.805664062 272.876026953 137.805664062 272.876026953 137.805664062 233.019556445 c 128,-1,11
 137.805664062 193.163085938 137.805664062 193.163085938 173.766601562 157.844726562 c 128,-1,12
 209.727539062 122.526367188 209.727539062 122.526367188 250.898802205 122.526367188 c 0,13,14
 292.070065347 122.526367188 292.070065347 122.526367188 316.577148438 134.233398438 c 0,0,1
508.694335938 246.760742188 m 128,-1,16
 508.694335938 143.036730895 508.694335938 143.036730895 437.205084824 70.9851623226 c 0,17,18
 365.71583371 -1.06640625 365.71583371 -1.06640625 262.041015625 -1.06640625 c 128,-1,19
 158.409179688 -1.06640625 158.409179688 -1.06640625 86.8974609375 71.0083007812 c 128,-1,20
 15.3857421875 143.083007812 15.3857421875 143.083007812 15.3857421875 246.760742188 c 128,-1,21
 15.3857421875 350.438476562 15.3857421875 350.438476562 86.8745117188 421.927246094 c 0,22,23
 158.36328125 493.416015625 158.36328125 493.416015625 262.041015625 493.416015625 c 128,-1,24
 365.765625 493.416015625 365.765625 493.416015625 437.793945312 422.513671875 c 0,25,15
 508.694335938 350.487304688 508.694335938 350.487304688 508.694335938 246.760742188 c 128,-1,16
EndSplineSet
EndChar

StartChar: arabic_gaf_bar
Encoding: 65550 -1 279
Width: 657
VWidth: 2391
GlyphClass: 2
Flags: W
LayerCount: 2
Fore
SplineSet
627.461914062 1796.35058594 m 1,0,-1
 15.3857421875 1570.20507812 l 1,1,-1
 15.3857421875 1674.74902344 l 1,2,-1
 627.461914062 1900.89257812 l 1,3,-1
 627.461914062 1796.35058594 l 1,0,-1
EndSplineSet
EndChar

StartChar: uni066E.init.math
Encoding: 65560 -1 289
Width: 1039
VWidth: 2553
GlyphClass: 2
Flags: W
LayerCount: 2
Fore
SplineSet
674.8125 107.743164062 m 0,0,1
 592.064453125 8.9091796875 592.064453125 8.9091796875 406.875 8.9091796875 c 2,2,-1
 5.5263671875 8.9091796875 l 1,3,-1
 5.5263671875 188.700195312 l 1,4,-1
 337.802734375 188.700195312 l 2,5,6
 472.755859375 188.700195312 472.755859375 188.700195312 538.663574219 254.607910156 c 0,7,8
 604.571289062 320.515625 604.571289062 320.515625 604.571289062 464.258789062 c 2,9,-1
 604.571289062 711.13671875 l 1,10,-1
 784.362304688 711.13671875 l 1,11,-1
 784.362304688 464.258789062 l 2,12,13
 784.362304688 238.727539062 784.362304688 238.727539062 674.8125 107.743164062 c 0,0,1
EndSplineSet
EndChar

StartChar: guillemotleft
Encoding: 171 171 290
Width: 995
Flags: W
LayerCount: 2
Fore
SplineSet
454.049804688 951.09765625 m 5,0,-1
 420.057617188 891.32421875 l 6,1,2
 390.668945312 839.651367188 390.668945312 839.651367188 368.681640625 788.734375 c 132,-1,3
 346.694335938 737.817382812 346.694335938 737.817382812 332.091796875 687.661132812 c 4,4,5
 322.075195312 653.256835938 322.075195312 653.256835938 315.400390625 618.56640625 c 132,-1,6
 308.725585938 583.876953125 308.725585938 583.876953125 305.390625 548.89453125 c 132,-1,7
 302.0546875 513.913085938 302.0546875 513.913085938 302.0546875 478.6171875 c 4,8,9
 302.0546875 372.711914062 302.0546875 372.711914062 332.108398438 268.795898438 c 4,10,11
 361.3203125 167.791015625 361.3203125 167.791015625 420.005859375 65.0107421875 c 6,12,-1
 454.169921875 5.177734375 l 5,13,-1
 297.421875 5.177734375 l 5,14,-1
 285.637695312 23.7392578125 l 6,15,16
 212.310546875 139.235351562 212.310546875 139.235351562 175.568359375 251.16015625 c 4,17,18
 138.0546875 365.490234375 138.0546875 365.490234375 138.0546875 478.6171875 c 4,19,20
 138.0546875 591.326171875 138.0546875 591.326171875 175.583007812 705.157226562 c 4,21,22
 193.959960938 760.89453125 193.959960938 760.89453125 221.469726562 817.719726562 c 132,-1,23
 248.979492188 874.543945312 248.979492188 874.543945312 285.604492188 932.47265625 c 6,24,-1
 297.380859375 951.09765625 l 5,25,-1
 454.049804688 951.09765625 l 5,0,-1
830.049804688 951.09765625 m 5,26,-1
 796.057617188 891.32421875 l 6,27,28
 737.318359375 788.043945312 737.318359375 788.043945312 708.091796875 687.661132812 c 4,29,30
 702.081054688 667.017578125 702.081054688 667.017578125 697.274414062 646.2734375 c 132,-1,31
 692.46875 625.528320312 692.46875 625.528320312 688.864257812 604.680664062 c 132,-1,32
 685.260742188 583.83203125 685.260742188 583.83203125 682.858398438 562.875976562 c 132,-1,33
 680.456054688 541.919921875 680.456054688 541.919921875 679.255859375 520.857421875 c 132,-1,34
 678.0546875 499.793945312 678.0546875 499.793945312 678.0546875 478.6171875 c 4,35,36
 678.0546875 425.659179688 678.0546875 425.659179688 685.565429688 373.216796875 c 132,-1,37
 693.076171875 320.7734375 693.076171875 320.7734375 708.108398438 268.795898438 c 4,38,39
 722.59375 218.709960938 722.59375 218.709960938 744.674804688 167.528320312 c 132,-1,40
 766.756835938 116.34765625 766.756835938 116.34765625 795.745117188 65.4677734375 c 6,41,-1
 830.169921875 5.177734375 l 5,42,-1
 673.421875 5.177734375 l 5,43,-1
 661.637695312 23.7392578125 l 6,44,45
 588.30859375 139.712890625 588.30859375 139.712890625 551.568359375 251.16015625 c 4,46,47
 514.0546875 365.490234375 514.0546875 365.490234375 514.0546875 478.6171875 c 4,48,49
 514.0546875 591.326171875 514.0546875 591.326171875 551.583007812 705.157226562 c 4,50,51
 569.959960938 760.89453125 569.959960938 760.89453125 597.469726562 817.719726562 c 132,-1,52
 624.979492188 874.543945312 624.979492188 874.543945312 661.604492188 932.47265625 c 6,53,-1
 673.380859375 951.09765625 l 5,54,-1
 830.049804688 951.09765625 l 5,26,-1
EndSplineSet
EndChar

StartChar: guillemotright
Encoding: 187 187 291
Width: 992
Flags: W
LayerCount: 2
Fore
SplineSet
540.950195312 951.09765625 m 1,0,-1
 697.619140625 951.09765625 l 1,1,-1
 709.395507812 932.47265625 l 2,2,3
 856.9453125 699.096679688 856.9453125 699.096679688 856.9453125 477.861328125 c 128,-1,4
 856.9453125 256.625976562 856.9453125 256.625976562 709.670898438 24.2255859375 c 2,5,-1
 697.578125 5.177734375 l 1,6,-1
 540.830078125 5.177734375 l 1,7,-1
 574.994140625 65.0107421875 l 2,8,9
 692.9453125 271.5859375 692.9453125 271.5859375 692.9453125 477.71484375 c 128,-1,10
 692.9453125 683.842773438 692.9453125 683.842773438 574.942382812 891.32421875 c 2,11,-1
 540.950195312 951.09765625 l 1,0,-1
164.950195312 951.09765625 m 1,12,-1
 321.619140625 951.09765625 l 1,13,-1
 333.395507812 932.47265625 l 2,14,15
 480.9453125 699.096679688 480.9453125 699.096679688 480.9453125 477.64453125 c 128,-1,16
 480.9453125 256.192382812 480.9453125 256.192382812 333.362304688 23.740234375 c 2,17,-1
 321.578125 5.177734375 l 1,18,-1
 164.830078125 5.177734375 l 1,19,-1
 198.994140625 65.0107421875 l 2,20,21
 316.9453125 271.5859375 316.9453125 271.5859375 316.9453125 477.71484375 c 128,-1,22
 316.9453125 683.842773438 316.9453125 683.842773438 198.942382812 891.32421875 c 2,23,-1
 164.950195312 951.09765625 l 1,12,-1
EndSplineSet
EndChar

StartChar: uniFEFC
Encoding: 65276 65276 298
Width: 1296
VWidth: 2553
Flags: W
AnchorPoint: "Anchor-9" 210.664 1594.56 baselig 1
AnchorPoint: "Anchor-6" 159.608 -288.627 baselig 1
AnchorPoint: "Anchor-6" 784.826 -275.129 baselig 0
AnchorPoint: "Anchor-9" 928.017 1609.22 baselig 0
LayerCount: 2
Fore
SplineSet
174.759765625 1388.69726562 m 1,0,-1
 349.853515625 1388.69726562 l 1,1,-1
 349.853515625 239.924804688 l 1,2,-1
 174.759765625 239.924804688 l 1,3,-1
 174.759765625 1388.69726562 l 1,0,-1
1226.21777344 -0.0966796875 m 2,4,5
 1060.04308126 -0.00116914925917 1060.04308126 -0.00116914925917 938.379882812 130.426757812 c 1,6,7
 819.116210938 -0.0966796875 819.116210938 -0.0966796875 660.42578125 -0.0966796875 c 2,8,-1
 90.88671875 -0.0966796875 l 1,9,-1
 90.88671875 189.200195312 l 1,10,-1
 642.995117188 189.200195312 l 2,11,12
 851.081054688 189.328125 851.081054688 189.328125 851.081054688 466.403320312 c 2,13,-1
 851.081054688 1388.69726562 l 1,14,-1
 1026.17578125 1388.69726562 l 1,15,-1
 1026.17578125 465.228515625 l 2,16,17
 1026.17578125 189.200195312 1026.17578125 189.200195312 1277.83203125 189.200195312 c 2,18,-1
 1310.48730469 189.200195312 l 1,19,-1
 1310.48730469 -0.0966796875 l 1,20,-1
 1226.21777344 -0.0966796875 l 2,4,5
EndSplineSet
LCarets2: 1 0
Ligature2: "'rlig' Required Ligatures in Arabic lookup 16 subtable" uniFEE0 uniFE8E
EndChar
